{
DisplayStrings = (
sa
);
date = "2015-06-08 08:53:00 +0000";
familyName = "Noname Sans";
fontMaster = (
{
alignmentZones = (
"{800, 10}",
"{700, 10}",
"{470, 10}",
"{0, -10}",
"{-200, -10}"
);
ascender = 800;
capHeight = 700;
customParameters = (
{
name = TTFStems;
value = (
        {
        Name = Thin;
        Width = 16;
    },
        {
        Name = Lowercase;
        Width = 16;
    },
        {
        Name = Uppercase;
        Width = 18;
    }
);
}
);
descender = -200;
guideLines = (
{
position = "{-113, 574}";
},
{
position = "{524, 141}";
},
{
position = "{-113, 765}";
},
{
position = "{524, -122}";
}
);
horizontalStems = (
16,
16,
18
);
id = "C4872ECA-A3A9-40AB-960A-1DB2202F16DE";
userData = {
GSOffsetHorizontal = 9;
GSOffsetMakeStroke = 1;
GSOffsetVertical = 9;
};
verticalStems = (
17,
19
);
weight = Light;
weightValue = 17;
xHeight = 470;
},
{
alignmentZones = (
"{800, 12}",
"{700, 12}",
"{480, 12}",
"{0, -12}",
"{-200, -12}"
);
ascender = 800;
capHeight = 700;
customParameters = (
{
name = TTFStems;
value = (
        {
        Name = Thin;
        Width = 80;
    },
        {
        Name = Lowercase;
        Width = 88;
    },
        {
        Name = Uppercase;
        Width = 91;
    }
);
}
);
descender = -200;
guideLines = (
{
position = "{563, 593}";
},
{
position = "{524, 114}";
},
{
position = "{-113, 773}";
},
{
position = "{524, -133}";
}
);
horizontalStems = (
80,
88,
91
);
id = "3E7589AA-8194-470F-8E2F-13C1C581BE24";
userData = {
GSOffsetHorizontal = 45;
GSOffsetMakeStroke = 1;
GSOffsetVertical = 44;
};
verticalStems = (
90,
93
);
weightValue = 90;
xHeight = 480;
},
{
alignmentZones = (
"{800, 15}",
"{700, 15}",
"{490, 15}",
"{0, -15}",
"{-200, -15}"
);
ascender = 800;
capHeight = 700;
customParameters = (
{
name = TTFStems;
value = (
        {
        Name = Thin;
        Width = 108;
    },
        {
        Name = Lowercase;
        Width = 210;
    },
        {
        Name = Uppercase;
        Width = 215;
    }
);
}
);

glyphs = (
{
glyphname = A;
lastChange = "2015-12-31 14:22:44 +0000";
layers = (
{
anchors = (
{
name = bottom;
position = "{377, 0}";
},
{
name = ogonek;
position = "{678, 10}";
},
{
name = top;
position = "{377, 700}";
}
);
background = {
paths = (
{
closed = 1;
nodes = (
"567 700 LINE",
"191 700 LINE",
"24 0 LINE",
"270 0 LINE",
"364 470 LINE",
"379 470 LINE",
"477 0 LINE",
"733 0 LINE"
);
}
);
};
layerId = "BFFFD157-90D3-4B85-B99D-9A2F366F03CA";
name = Bold;
paths = (
{
closed = 1;
nodes = (
"555 700 LINE",
"205 700 LINE",
"20 0 LINE",
"253 0 LINE",
"356 470 LINE",
"385 470 LINE",
"491 0 LINE",
"733 0 LINE"
);
},
{
closed = 1;
nodes = (
"162 268 LINE",
"154 103 LINE",
"596 103 LINE",
"600 268 LINE"
);
}
);
width = 753;
},
{
anchors = (
{
name = bottom;
position = "{329, 0}";
},
{
name = ogonek;
position = "{591, 10}";
},
{
name = top;
position = "{329, 700}";
}
);
layerId = "3E7589AA-8194-470F-8E2F-13C1C581BE24";
name = Regular;
paths = (
{
closed = 1;
nodes = (
"412 700 LINE",
"248 700 LINE",
"40 0 LINE",
"134 0 LINE",
"313 610 LINE",
"342 610 LINE",
"521 0 LINE",
"617 0 LINE"
);
},
{
closed = 1;
nodes = (
"150 269 LINE",
"148 178 LINE",
"510 178 LINE",
"514 269 LINE"
);
}
);
width = 657;
},
{
anchors = (
{
name = bottom;
position = "{297, 0}";
},
{
name = ogonek;
position = "{548, 0}";
},
{
name = top;
position = "{297, 700}";
}
);
background = {
paths = (
{
closed = 1;
nodes = (
"133 253 LINE",
"134 215 LINE",
"451 215 LINE",
"455 253 LINE"
);
}
);
};
layerId = "C4872ECA-A3A9-40AB-960A-1DB2202F16DE";
name = Light;
paths = (
{
closed = 1;
nodes = (
"321 700 LINE",
"275 700 LINE",
"45 0 LINE",
"65 0 LINE",
"289 679 LINE",
"307 679 LINE",
"527 0 LINE",
"548 0 LINE"
);
},
{
closed = 1;
nodes = (
"128 225 LINE",
"123 207 LINE",
"472 207 LINE",
"467 225 LINE"
);
}
);
width = 593;
}
);
leftKerningGroup = A;
rightKerningGroup = A;
unicode = 0041;
},
{
glyphname = B;
lastChange = "2015-11-15 09:26:00 +0000";
layers = (
{
background = {
paths = (
{
closed = 1;
nodes = (
"275 700 LINE",
"50 700 LINE",
"50 0 LINE",
"275 0 LINE"
);
},
{
closed = 1;
nodes = (
"180 700 LINE",
"172 530 LINE",
"475 530 LINE",
"475 700 LINE"
);
},
{
closed = 1;
nodes = (
"180 170 LINE",
"172 0 LINE",
"485 0 LINE",
"485 170 LINE"
);
},
{
closed = 1;
nodes = (
"180 430 LINE",
"172 260 LINE",
"455 260 LINE",
"455 430 LINE"
);
}
);
};
layerId = "BFFFD157-90D3-4B85-B99D-9A2F366F03CA";
name = Bold;
paths = (
{
closed = 1;
nodes = (
"264 632 LINE",
"50 695 LINE",
"50 5 LINE",
"264 52 LINE"
);
},
{
closed = 1;
nodes = (
"370 250 OFFCURVE",
"395 234 OFFCURVE",
"395 197 CURVE SMOOTH",
"395 166 OFFCURVE",
"378 144 OFFCURVE",
"320 144 CURVE SMOOTH",
"296 144 OFFCURVE",
"272 146 OFFCURVE",
"250 148 CURVE",
"50 5 LINE",
"140 -4 OFFCURVE",
"211 -9 OFFCURVE",
"282 -9 CURVE SMOOTH",
"495 -9 OFFCURVE",
"620 48 OFFCURVE",
"620 191 CURVE SMOOTH",
"620 320 OFFCURVE",
"518 357 OFFCURVE",
"419 378 CURVE",
"424 308 LINE",
"516 323 OFFCURVE",
"600 359 OFFCURVE",
"600 488 CURVE SMOOTH",
"600 625 OFFCURVE",
"502 706 OFFCURVE",
"270 706 CURVE SMOOTH",
"195 706 OFFCURVE",
"126 702 OFFCURVE",
"50 695 CURVE",
"255 522 LINE",
"274 525 OFFCURVE",
"294 526 OFFCURVE",
"308 526 CURVE SMOOTH",
"364 526 OFFCURVE",
"388 505 OFFCURVE",
"388 461 CURVE SMOOTH",
"388 426 OFFCURVE",
"369 402 OFFCURVE",
"327 402 CURVE SMOOTH",
"257 402 LINE",
"246 250 LINE",
"318 250 LINE SMOOTH"
);
}
);
width = 640;
},
{
background = {
paths = (
{
closed = 1;
nodes = (
"183 700 LINE",
"90 700 LINE",
"90 0 LINE",
"183 0 LINE"
);
},
{
closed = 1;
nodes = (
"590 700 LINE",
"497 700 LINE",
"497 0 LINE",
"590 0 LINE"
);
},
{
closed = 1;
nodes = (
"144 369 LINE",
"142 278 LINE",
"554 278 LINE",
"558 369 LINE"
);
}
);
};
layerId = "3E7589AA-8194-470F-8E2F-13C1C581BE24";
name = Regular;
paths = (
{
closed = 1;
nodes = (
"183 654 LINE",
"90 697 LINE",
"90 3 LINE",
"183 52 LINE"
);
},
{
closed = 1;
nodes = (
"414 279 OFFCURVE",
"468 243 OFFCURVE",
"468 176 CURVE SMOOTH",
"468 120 OFFCURVE",
"429 83 OFFCURVE",
"302 83 CURVE SMOOTH",
"250 83 OFFCURVE",
"197 85 OFFCURVE",
"151 91 CURVE",
"90 3 LINE",
"161 -4 OFFCURVE",
"232 -6 OFFCURVE",
"287 -6 CURVE SMOOTH",
"450 -6 OFFCURVE",
"560 44 OFFCURVE",
"560 177 CURVE SMOOTH",
"560 297 OFFCURVE",
"468 354 OFFCURVE",
"316 354 CURVE",
"316 307 LINE",
"468 307 OFFCURVE",
"522 402 OFFCURVE",
"522 496 CURVE SMOOTH",
"522 609 OFFCURVE",
"453 706 OFFCURVE",
"251 706 CURVE SMOOTH",
"202 706 OFFCURVE",
"143 702 OFFCURVE",
"90 697 CURVE",
"139 610 LINE",
"180 615 OFFCURVE",
"225 617 OFFCURVE",
"254 617 CURVE SMOOTH",
"376 617 OFFCURVE",
"430 578 OFFCURVE",
"430 487 CURVE SMOOTH",
"430 414 OFFCURVE",
"389 369 OFFCURVE",
"297 369 CURVE SMOOTH",
"144 369 LINE",
"142 279 LINE",
"299 279 LINE SMOOTH"
);
}
);
width = 608;
},
{
background = {
paths = (
{
closed = 1;
nodes = (
"125 681 LINE",
"106 691 LINE",
"106 10 LINE",
"125 18 LINE"
);
},
{
closed = 1;
nodes = (
"496 -4 OFFCURVE",
"625 103 OFFCURVE",
"625 342 CURVE SMOOTH",
"625 585 OFFCURVE",
"496 704 OFFCURVE",
"272 704 CURVE SMOOTH",
"219 704 OFFCURVE",
"163 699 OFFCURVE",
"106 691 CURVE",
"116 673 LINE",
"169 681 OFFCURVE",
"223 686 OFFCURVE",
"272 686 CURVE SMOOTH",
"486 686 OFFCURVE",
"606 560 OFFCURVE",
"606 342 CURVE SMOOTH",
"606 116 OFFCURVE",
"486 14 OFFCURVE",
"276 14 CURVE SMOOTH",
"224 14 OFFCURVE",
"171 19 OFFCURVE",
"119 28 CURVE",
"106 10 LINE",
"163 1 OFFCURVE",
"219 -4 OFFCURVE",
"276 -4 CURVE SMOOTH"
);
}
);
};
layerId = "C4872ECA-A3A9-40AB-960A-1DB2202F16DE";
name = Light;
paths = (
{
closed = 1;
nodes = (
"125 681 LINE",
"106 691 LINE",
"106 10 LINE",
"125 18 LINE"
);
},
{
closed = 1;
nodes = (
"443 317 OFFCURVE",
"512 252 OFFCURVE",
"512 161 CURVE SMOOTH",
"512 57 OFFCURVE",
"427 14 OFFCURVE",
"276 14 CURVE SMOOTH",
"217 14 OFFCURVE",
"170 17 OFFCURVE",
"119 28 CURVE",
"106 10 LINE",
"164 1 OFFCURVE",
"209 -4 OFFCURVE",
"277 -4 CURVE SMOOTH",
"440 -4 OFFCURVE",
"531 47 OFFCURVE",
"531 162 CURVE SMOOTH",
"531 267 OFFCURVE",
"453 332 OFFCURVE",
"280 332 CURVE",
"280 322 LINE",
"430 322 OFFCURVE",
"490 399 OFFCURVE",
"490 512 CURVE SMOOTH",
"490 608 OFFCURVE",
"445 704 OFFCURVE",
"252 704 CURVE SMOOTH",
"210 704 OFFCURVE",
"156 700 OFFCURVE",
"106 691 CURVE",
"116 673 LINE",
"159 680 OFFCURVE",
"209 686 OFFCURVE",
"252 686 CURVE SMOOTH",
"430 686 OFFCURVE",
"471 600 OFFCURVE",
"471 512 CURVE SMOOTH",
"471 407 OFFCURVE",
"417 335 OFFCURVE",
"271 335 CURVE SMOOTH",
"118 335 LINE",
"119 317 LINE",
"271 317 LINE SMOOTH"
);
}
);
width = 599;
}
);
leftKerningGroup = B;
leftMetricsKey = H;
rightKerningGroup = B;
unicode = 0042;
},
{
glyphname = C;
lastChange = "2015-12-28 14:10:40 +0000";
layers = (
{
background = {
paths = (
{
closed = 1;
nodes = (
"610 -15 OFFCURVE",
"748 114 OFFCURVE",
"748 354 CURVE SMOOTH",
"748 584 OFFCURVE",
"619 715 OFFCURVE",
"408 715 CURVE SMOOTH",
"192 715 OFFCURVE",
"55 585 OFFCURVE",
"55 342 CURVE SMOOTH",
"55 111 OFFCURVE",
"186 -15 OFFCURVE",
"396 -15 CURVE SMOOTH"
);
},
{
closed = 1;
nodes = (
"332 203 OFFCURVE",
"288 253 OFFCURVE",
"288 348 CURVE SMOOTH",
"288 444 OFFCURVE",
"333 488 OFFCURVE",
"401 488 CURVE SMOOTH",
"471 488 OFFCURVE",
"516 444 OFFCURVE",
"516 345 CURVE SMOOTH",
"516 250 OFFCURVE",
"473 203 OFFCURVE",
"404 203 CURVE SMOOTH"
);
}
);
};
layerId = "BFFFD157-90D3-4B85-B99D-9A2F366F03CA";
name = Bold;
paths = (
{
closed = 1;
nodes = (
"534 226 LINE",
"504 213 OFFCURVE",
"460 204 OFFCURVE",
"412 204 CURVE SMOOTH",
"317 204 OFFCURVE",
"268 242 OFFCURVE",
"268 347 CURVE SMOOTH",
"268 451 OFFCURVE",
"316 490 OFFCURVE",
"407 490 CURVE SMOOTH",
"450 490 OFFCURVE",
"486 480 OFFCURVE",
"512 466 CURVE",
"580 668 LINE",
"527 700 OFFCURVE",
"457 715 OFFCURVE",
"384 715 CURVE SMOOTH",
"152 715 OFFCURVE",
"35 585 OFFCURVE",
"35 342 CURVE SMOOTH",
"35 111 OFFCURVE",
"148 -15 OFFCURVE",
"374 -15 CURVE SMOOTH",
"450 -15 OFFCURVE",
"524 1 OFFCURVE",
"572 26 CURVE"
);
}
);
width = 600;
},
{
layerId = "3E7589AA-8194-470F-8E2F-13C1C581BE24";
name = Regular;
paths = (
{
closed = 1;
nodes = (
"520 107 LINE",
"472 88 OFFCURVE",
"415 80 OFFCURVE",
"372 80 CURVE SMOOTH",
"226 80 OFFCURVE",
"153 162 OFFCURVE",
"153 344 CURVE SMOOTH",
"153 533 OFFCURVE",
"227 620 OFFCURVE",
"374 620 CURVE SMOOTH",
"420 620 OFFCURVE",
"472 611 OFFCURVE",
"518 592 CURVE",
"541 678 LINE",
"498 698 OFFCURVE",
"440 711 OFFCURVE",
"377 711 CURVE SMOOTH",
"167 711 OFFCURVE",
"60 585 OFFCURVE",
"60 342 CURVE SMOOTH",
"60 111 OFFCURVE",
"161 -11 OFFCURVE",
"361 -11 CURVE SMOOTH",
"437 -11 OFFCURVE",
"500 5 OFFCURVE",
"543 26 CURVE"
);
}
);
width = 586;
},
{
layerId = "C4872ECA-A3A9-40AB-960A-1DB2202F16DE";
name = Light;
paths = (
{
closed = 1;
nodes = (
"526 55 LINE",
"483 22 OFFCURVE",
"422 9 OFFCURVE",
"367 9 CURVE SMOOTH",
"194 9 OFFCURVE",
"104 122 OFFCURVE",
"104 342 CURVE SMOOTH",
"104 572 OFFCURVE",
"188 691 OFFCURVE",
"378 691 CURVE SMOOTH",
"432 691 OFFCURVE",
"476 681 OFFCURVE",
"519 656 CURVE",
"528 671 LINE",
"480 700 OFFCURVE",
"433 709 OFFCURVE",
"379 709 CURVE SMOOTH",
"177 709 OFFCURVE",
"85 583 OFFCURVE",
"85 342 CURVE SMOOTH",
"85 111 OFFCURVE",
"182 -9 OFFCURVE",
"369 -9 CURVE SMOOTH",
"431 -9 OFFCURVE",
"490 5 OFFCURVE",
"536 41 CURVE"
);
}
);
width = 587;
}
);
leftKerningGroup = O;
leftMetricsKey = O;
rightKerningGroup = C;
unicode = 0043;
},
{
glyphname = D;
lastChange = "2015-11-15 09:16:11 +0000";
layers = (
{
background = {
paths = (
{
closed = 1;
nodes = (
"585 -15 OFFCURVE",
"723 114 OFFCURVE",
"723 354 CURVE SMOOTH",
"723 584 OFFCURVE",
"594 715 OFFCURVE",
"383 715 CURVE SMOOTH",
"167 715 OFFCURVE",
"30 585 OFFCURVE",
"30 342 CURVE SMOOTH",
"30 111 OFFCURVE",
"161 -15 OFFCURVE",
"371 -15 CURVE SMOOTH"
);
},
{
closed = 1;
nodes = (
"307 203 OFFCURVE",
"263 253 OFFCURVE",
"263 348 CURVE SMOOTH",
"263 444 OFFCURVE",
"308 488 OFFCURVE",
"376 488 CURVE SMOOTH",
"446 488 OFFCURVE",
"491 444 OFFCURVE",
"491 345 CURVE SMOOTH",
"491 250 OFFCURVE",
"448 203 OFFCURVE",
"379 203 CURVE SMOOTH"
);
}
);
};
layerId = "BFFFD157-90D3-4B85-B99D-9A2F366F03CA";
name = Bold;
paths = (
{
closed = 1;
nodes = (
"275 688 LINE",
"50 696 LINE",
"50 5 LINE",
"275 18 LINE"
);
},
{
closed = 1;
nodes = (
"547 -10 OFFCURVE",
"682 108 OFFCURVE",
"682 349 CURVE SMOOTH",
"682 588 OFFCURVE",
"551 709 OFFCURVE",
"260 709 CURVE SMOOTH",
"196 709 OFFCURVE",
"113 703 OFFCURVE",
"50 696 CURVE",
"234 482 LINE",
"259 486 OFFCURVE",
"286 489 OFFCURVE",
"306 489 CURVE SMOOTH",
"405 489 OFFCURVE",
"452 439 OFFCURVE",
"452 338 CURVE SMOOTH",
"452 230 OFFCURVE",
"398 194 OFFCURVE",
"304 194 CURVE SMOOTH",
"281 194 OFFCURVE",
"257 196 OFFCURVE",
"231 201 CURVE",
"50 5 LINE",
"129 -4 OFFCURVE",
"196 -10 OFFCURVE",
"260 -10 CURVE SMOOTH"
);
}
);
width = 717;
},
{
background = {
paths = (
{
closed = 1;
nodes = (
"569 -15 OFFCURVE",
"696 110 OFFCURVE",
"696 350 CURVE SMOOTH",
"696 580 OFFCURVE",
"578 712 OFFCURVE",
"382 712 CURVE SMOOTH",
"186 712 OFFCURVE",
"60 585 OFFCURVE",
"60 342 CURVE SMOOTH",
"60 111 OFFCURVE",
"180 -15 OFFCURVE",
"373 -15 CURVE SMOOTH"
);
},
{
closed = 1;
nodes = (
"229 75 OFFCURVE",
"153 169 OFFCURVE",
"153 349 CURVE SMOOTH",
"153 532 OFFCURVE",
"234 621 OFFCURVE",
"377 621 CURVE SMOOTH",
"523 621 OFFCURVE",
"603 529 OFFCURVE",
"603 343 CURVE SMOOTH",
"603 164 OFFCURVE",
"524 75 OFFCURVE",
"379 75 CURVE SMOOTH"
);
}
);
};
layerId = "3E7589AA-8194-470F-8E2F-13C1C581BE24";
name = Regular;
paths = (
{
closed = 1;
nodes = (
"183 667 LINE",
"90 691 LINE",
"90 9 LINE",
"183 36 LINE"
);
},
{
closed = 1;
nodes = (
"491 -4 OFFCURVE",
"643 104 OFFCURVE",
"643 352 CURVE SMOOTH",
"643 585 OFFCURVE",
"503 704 OFFCURVE",
"258 704 CURVE SMOOTH",
"216 704 OFFCURVE",
"153 700 OFFCURVE",
"90 691 CURVE",
"148 605 LINE",
"191 609 OFFCURVE",
"234 611 OFFCURVE",
"267 611 CURVE SMOOTH",
"471 611 OFFCURVE",
"550 505 OFFCURVE",
"550 342 CURVE SMOOTH",
"550 171 OFFCURVE",
"458 88 OFFCURVE",
"272 88 CURVE SMOOTH",
"236 88 OFFCURVE",
"189 91 OFFCURVE",
"143 96 CURVE",
"90 9 LINE",
"153 0 OFFCURVE",
"216 -4 OFFCURVE",
"259 -4 CURVE SMOOTH"
);
}
);
width = 703;
},
{
background = {
paths = (
{
closed = 1;
nodes = (
"538 -10 OFFCURVE",
"659 105 OFFCURVE",
"659 348 CURVE SMOOTH",
"659 589 OFFCURVE",
"541 710 OFFCURVE",
"367 710 CURVE SMOOTH",
"192 710 OFFCURVE",
"71 588 OFFCURVE",
"71 348 CURVE SMOOTH",
"71 108 OFFCURVE",
"190 -10 OFFCURVE",
"365 -10 CURVE SMOOTH"
);
},
{
closed = 1;
nodes = (
"200 8 OFFCURVE",
"90 120 OFFCURVE",
"90 348 CURVE SMOOTH",
"90 579 OFFCURVE",
"202 692 OFFCURVE",
"367 692 CURVE SMOOTH",
"532 692 OFFCURVE",
"640 579 OFFCURVE",
"640 348 CURVE SMOOTH",
"640 113 OFFCURVE",
"527 8 OFFCURVE",
"365 8 CURVE SMOOTH"
);
}
);
};
layerId = "C4872ECA-A3A9-40AB-960A-1DB2202F16DE";
name = Light;
paths = (
{
closed = 1;
nodes = (
"125 681 LINE",
"106 691 LINE",
"106 10 LINE",
"125 18 LINE"
);
},
{
closed = 1;
nodes = (
"496 -4 OFFCURVE",
"625 103 OFFCURVE",
"625 342 CURVE SMOOTH",
"625 585 OFFCURVE",
"496 704 OFFCURVE",
"272 704 CURVE SMOOTH",
"219 704 OFFCURVE",
"163 699 OFFCURVE",
"106 691 CURVE",
"116 673 LINE",
"169 681 OFFCURVE",
"223 686 OFFCURVE",
"272 686 CURVE SMOOTH",
"486 686 OFFCURVE",
"606 560 OFFCURVE",
"606 342 CURVE SMOOTH",
"606 116 OFFCURVE",
"486 14 OFFCURVE",
"276 14 CURVE SMOOTH",
"224 14 OFFCURVE",
"171 19 OFFCURVE",
"119 28 CURVE",
"106 10 LINE",
"163 1 OFFCURVE",
"219 -4 OFFCURVE",
"276 -4 CURVE SMOOTH"
);
}
);
width = 710;
}
);
leftKerningGroup = D;
leftMetricsKey = H;
rightKerningGroup = O;
rightMetricsKey = O;
unicode = 0044;
},
{
glyphname = E;
lastChange = "2015-12-31 14:22:54 +0000";
layers = (
{
anchors = (
{
name = bottom;
position = "{261, 0}";
},
{
name = ogonek;
position = "{463, 10}";
},
{
name = top;
position = "{261, 700}";
},
{
name = topleft;
position = "{20, 700}";
}
);
layerId = "BFFFD157-90D3-4B85-B99D-9A2F366F03CA";
name = Bold;
paths = (
{
closed = 1;
nodes = (
"275 700 LINE",
"50 700 LINE",
"50 0 LINE",
"275 0 LINE"
);
},
{
closed = 1;
nodes = (
"180 700 LINE",
"172 530 LINE",
"475 530 LINE",
"475 700 LINE"
);
},
{
closed = 1;
nodes = (
"180 170 LINE",
"172 0 LINE",
"485 0 LINE",
"485 170 LINE"
);
},
{
closed = 1;
nodes = (
"180 430 LINE",
"172 260 LINE",
"455 260 LINE",
"455 430 LINE"
);
}
);
width = 515;
},
{
anchors = (
{
name = bottom;
position = "{308, 0}";
},
{
name = ogonek;
position = "{500, 10}";
},
{
name = top;
position = "{308, 700}";
},
{
name = topleft;
position = "{20, 700}";
}
);
layerId = "3E7589AA-8194-470F-8E2F-13C1C581BE24";
name = Regular;
paths = (
{
closed = 1;
nodes = (
"183 700 LINE",
"90 700 LINE",
"90 0 LINE",
"183 0 LINE"
);
},
{
closed = 1;
nodes = (
"144 700 LINE",
"142 611 LINE",
"496 611 LINE",
"496 700 LINE"
);
},
{
closed = 1;
nodes = (
"144 89 LINE",
"142 0 LINE",
"506 0 LINE",
"506 89 LINE"
);
},
{
closed = 1;
nodes = (
"144 367 LINE",
"142 278 LINE",
"476 278 LINE",
"476 367 LINE"
);
}
);
width = 556;
},
{
anchors = (
{
name = bottom;
position = "{301, 0}";
},
{
name = ogonek;
position = "{492, 0}";
},
{
name = top;
position = "{301, 700}";
},
{
name = topleft;
position = "{20, 700}";
}
);
background = {
paths = (
{
closed = 1;
nodes = (
"111 335 LINE",
"113 317 LINE",
"519 317 LINE",
"523 335 LINE"
);
}
);
};
layerId = "C4872ECA-A3A9-40AB-960A-1DB2202F16DE";
name = Light;
paths = (
{
closed = 1;
nodes = (
"125 700 LINE",
"106 700 LINE",
"106 0 LINE",
"125 0 LINE"
);
},
{
closed = 1;
nodes = (
"118 700 LINE",
"119 682 LINE",
"482 682 LINE",
"482 700 LINE"
);
},
{
closed = 1;
nodes = (
"118 18 LINE",
"119 0 LINE",
"492 0 LINE",
"492 18 LINE"
);
},
{
closed = 1;
nodes = (
"118 335 LINE",
"119 317 LINE",
"462 317 LINE",
"462 335 LINE"
);
}
);
width = 562;
}
);
leftKerningGroup = E;
leftMetricsKey = H;
rightKerningGroup = E;
unicode = 0045;
},
{
glyphname = F;
lastChange = "2015-11-15 10:08:22 +0000";
layers = (
{
background = {
paths = (
{
closed = 1;
nodes = (
"180 423 LINE",
"172 208 LINE",
"614 208 LINE",
"618 423 LINE"
);
}
);
};
layerId = "BFFFD157-90D3-4B85-B99D-9A2F366F03CA";
name = Bold;
paths = (
{
closed = 1;
nodes = (
"275 700 LINE",
"50 700 LINE",
"50 0 LINE",
"275 0 LINE"
);
},
{
closed = 1;
nodes = (
"180 700 LINE",
"172 510 LINE",
"475 510 LINE",
"475 700 LINE"
);
},
{
closed = 1;
nodes = (
"180 397 LINE",
"172 207 LINE",
"460 207 LINE",
"460 397 LINE"
);
}
);
width = 505;
},
{
background = {
paths = (
{
closed = 1;
nodes = (
"144 369 LINE",
"142 278 LINE",
"554 278 LINE",
"558 369 LINE"
);
}
);
};
layerId = "3E7589AA-8194-470F-8E2F-13C1C581BE24";
name = Regular;
paths = (
{
closed = 1;
nodes = (
"183 700 LINE",
"90 700 LINE",
"90 0 LINE",
"183 0 LINE"
);
},
{
closed = 1;
nodes = (
"144 700 LINE",
"142 609 LINE",
"486 609 LINE",
"486 700 LINE"
);
},
{
closed = 1;
nodes = (
"144 369 LINE",
"142 278 LINE",
"466 278 LINE",
"466 369 LINE"
);
}
);
width = 536;
},
{
layerId = "C4872ECA-A3A9-40AB-960A-1DB2202F16DE";
name = Light;
paths = (
{
closed = 1;
nodes = (
"125 700 LINE",
"106 700 LINE",
"106 0 LINE",
"125 0 LINE"
);
},
{
closed = 1;
nodes = (
"118 700 LINE",
"119 682 LINE",
"452 682 LINE",
"452 700 LINE"
);
},
{
closed = 1;
nodes = (
"118 335 LINE",
"119 317 LINE",
"432 317 LINE",
"432 335 LINE"
);
}
);
width = 516;
}
);
leftKerningGroup = F;
leftMetricsKey = H;
rightKerningGroup = F;
unicode = 0046;
},
{
glyphname = G;
lastChange = "2015-11-15 09:27:04 +0000";
layers = (
{
background = {
paths = (
{
closed = 1;
nodes = (
"280 700 LINE",
"55 700 LINE",
"55 0 LINE",
"280 0 LINE"
);
},
{
closed = 1;
nodes = (
"695 700 LINE",
"470 700 LINE",
"470 0 LINE",
"695 0 LINE"
);
},
{
closed = 1;
nodes = (
"185 423 LINE",
"177 208 LINE",
"619 208 LINE",
"623 423 LINE"
);
}
);
};
layerId = "BFFFD157-90D3-4B85-B99D-9A2F366F03CA";
name = Bold;
paths = (
{
closed = 1;
nodes = (
"510 -15 OFFCURVE",
"595 6 OFFCURVE",
"661 34 CURVE",
"661 409 LINE",
"376 409 LINE",
"376 259 LINE",
"474 259 LINE",
"474 83 LINE",
"499 199 LINE",
"477 192 OFFCURVE",
"438 188 OFFCURVE",
"410 188 CURVE SMOOTH",
"307 188 OFFCURVE",
"268 241 OFFCURVE",
"268 343 CURVE SMOOTH",
"268 448 OFFCURVE",
"306 501 OFFCURVE",
"431 501 CURVE SMOOTH",
"501 501 OFFCURVE",
"550 484 OFFCURVE",
"588 464 CURVE",
"634 664 LINE",
"584 695 OFFCURVE",
"514 715 OFFCURVE",
"412 715 CURVE SMOOTH",
"172 715 OFFCURVE",
"35 595 OFFCURVE",
"35 342 CURVE SMOOTH",
"35 101 OFFCURVE",
"168 -15 OFFCURVE",
"402 -15 CURVE SMOOTH"
);
}
);
width = 696;
},
{
background = {
paths = (
{
closed = 1;
nodes = (
"203 700 LINE",
"110 700 LINE",
"110 0 LINE",
"203 0 LINE"
);
},
{
closed = 1;
nodes = (
"610 700 LINE",
"517 700 LINE",
"517 0 LINE",
"610 0 LINE"
);
},
{
closed = 1;
nodes = (
"164 369 LINE",
"162 278 LINE",
"574 278 LINE",
"578 369 LINE"
);
}
);
};
layerId = "3E7589AA-8194-470F-8E2F-13C1C581BE24";
name = Regular;
paths = (
{
closed = 1;
nodes = (
"499 -11 OFFCURVE",
"566 5 OFFCURVE",
"619 26 CURVE",
"619 369 LINE",
"371 369 LINE",
"371 278 LINE",
"526 278 LINE",
"526 51 LINE",
"570 102 LINE",
"523 85 OFFCURVE",
"479 80 OFFCURVE",
"418 80 CURVE SMOOTH",
"236 80 OFFCURVE",
"153 162 OFFCURVE",
"153 344 CURVE SMOOTH",
"153 533 OFFCURVE",
"237 619 OFFCURVE",
"410 619 CURVE SMOOTH",
"470 619 OFFCURVE",
"522 610 OFFCURVE",
"568 591 CURVE",
"591 678 LINE",
"548 698 OFFCURVE",
"490 711 OFFCURVE",
"413 711 CURVE SMOOTH",
"177 711 OFFCURVE",
"60 585 OFFCURVE",
"60 342 CURVE SMOOTH",
"60 111 OFFCURVE",
"171 -11 OFFCURVE",
"407 -11 CURVE SMOOTH"
);
}
);
width = 674;
},
{
background = {
paths = (
{
closed = 1;
nodes = (
"133 700 LINE",
"114 700 LINE",
"114 0 LINE",
"133 0 LINE"
);
},
{
closed = 1;
nodes = (
"547 700 LINE",
"528 700 LINE",
"528 0 LINE",
"547 0 LINE"
);
},
{
closed = 1;
nodes = (
"125 335 LINE",
"127 317 LINE",
"533 317 LINE",
"537 335 LINE"
);
}
);
};
layerId = "C4872ECA-A3A9-40AB-960A-1DB2202F16DE";
name = Light;
paths = (
{
closed = 1;
nodes = (
"481 -9 OFFCURVE",
"533 5 OFFCURVE",
"597 41 CURVE",
"597 335 LINE",
"377 335 LINE",
"377 317 LINE",
"578 317 LINE",
"578 38 LINE",
"589 57 LINE",
"541 25 OFFCURVE",
"484 9 OFFCURVE",
"397 9 CURVE SMOOTH",
"204 9 OFFCURVE",
"104 122 OFFCURVE",
"104 342 CURVE SMOOTH",
"104 572 OFFCURVE",
"195 691 OFFCURVE",
"395 691 CURVE SMOOTH",
"459 691 OFFCURVE",
"506 678 OFFCURVE",
"549 656 CURVE",
"558 671 LINE",
"510 697 OFFCURVE",
"460 709 OFFCURVE",
"396 709 CURVE SMOOTH",
"184 709 OFFCURVE",
"85 583 OFFCURVE",
"85 342 CURVE SMOOTH",
"85 111 OFFCURVE",
"192 -9 OFFCURVE",
"399 -9 CURVE SMOOTH"
);
}
);
width = 677;
}
);
leftKerningGroup = O;
leftMetricsKey = O;
rightKerningGroup = G;
unicode = 0047;
},
{
glyphname = H;
lastChange = "2015-11-15 09:21:21 +0000";
layers = (
{
layerId = "BFFFD157-90D3-4B85-B99D-9A2F366F03CA";
name = Bold;
paths = (
{
closed = 1;
nodes = (
"275 700 LINE",
"50 700 LINE",
"50 0 LINE",
"275 0 LINE"
);
},
{
closed = 1;
nodes = (
"700 700 LINE",
"475 700 LINE",
"475 0 LINE",
"700 0 LINE"
);
},
{
closed = 1;
nodes = (
"180 423 LINE",
"172 208 LINE",
"624 208 LINE",
"628 423 LINE"
);
}
);
width = 750;
},
{
layerId = "3E7589AA-8194-470F-8E2F-13C1C581BE24";
name = Regular;
paths = (
{
closed = 1;
nodes = (
"183 700 LINE",
"90 700 LINE",
"90 0 LINE",
"183 0 LINE"
);
},
{
closed = 1;
nodes = (
"630 700 LINE",
"537 700 LINE",
"537 0 LINE",
"630 0 LINE"
);
},
{
closed = 1;
nodes = (
"143 369 LINE",
"143 278 LINE",
"596 278 LINE",
"596 369 LINE"
);
}
);
width = 720;
},
{
layerId = "C4872ECA-A3A9-40AB-960A-1DB2202F16DE";
name = Light;
paths = (
{
closed = 1;
nodes = (
"125 700 LINE",
"106 700 LINE",
"106 0 LINE",
"125 0 LINE"
);
},
{
closed = 1;
nodes = (
"559 700 LINE",
"540 700 LINE",
"540 0 LINE",
"559 0 LINE"
);
},
{
closed = 1;
nodes = (
"117 335 LINE",
"119 317 LINE",
"545 317 LINE",
"549 335 LINE"
);
}
);
width = 665;
}
);
leftKerningGroup = H;
rightKerningGroup = H;
unicode = 0048;
},
{
glyphname = I;
lastChange = "2015-12-31 14:22:46 +0000";
layers = (
{
anchors = (
{
name = bottom;
position = "{168, 0}";
},
{
name = ogonek;
position = "{301, 10}";
},
{
name = top;
position = "{168, 700}";
},
{
name = topleft;
position = "{20, 700}";
}
);
layerId = "BFFFD157-90D3-4B85-B99D-9A2F366F03CA";
name = Bold;
paths = (
{
closed = 1;
nodes = (
"280 700 LINE",
"55 700 LINE",
"55 0 LINE",
"280 0 LINE"
);
}
);
width = 335;
},
{
anchors = (
{
name = bottom;
position = "{146, 0}";
},
{
name = ogonek;
position = "{262, 10}";
},
{
name = top;
position = "{146, 700}";
},
{
name = topleft;
position = "{20, 700}";
}
);
layerId = "3E7589AA-8194-470F-8E2F-13C1C581BE24";
name = Regular;
paths = (
{
closed = 1;
nodes = (
"192 700 LINE",
"99 700 LINE",
"99 0 LINE",
"192 0 LINE"
);
}
);
width = 291;
},
{
anchors = (
{
name = bottom;
position = "{127, 0}";
},
{
name = ogonek;
position = "{136, 0}";
},
{
name = top;
position = "{127, 700}";
},
{
name = topleft;
position = "{20, 700}";
}
);
layerId = "C4872ECA-A3A9-40AB-960A-1DB2202F16DE";
name = Light;
paths = (
{
closed = 1;
nodes = (
"136 700 LINE",
"117 700 LINE",
"117 0 LINE",
"136 0 LINE"
);
}
);
width = 253;
}
);
leftKerningGroup = I;
leftMetricsKey = "=H*1.1";
rightKerningGroup = I;
rightMetricsKey = "=H*1.1";
unicode = 0049;
},
{
glyphname = J;
lastChange = "2015-12-28 12:34:55 +0000";
layers = (
{
layerId = "BFFFD157-90D3-4B85-B99D-9A2F366F03CA";
name = Bold;
paths = (
{
closed = 1;
nodes = (
"315 700 LINE",
"90 700 LINE",
"90 97 LINE SMOOTH",
"90 25 OFFCURVE",
"67 -7 OFFCURVE",
"-26 -25 CURVE",
"36 -212 LINE",
"243 -177 OFFCURVE",
"315 -65 OFFCURVE",
"315 100 CURVE SMOOTH"
);
}
);
width = 370;
},
{
layerId = "3E7589AA-8194-470F-8E2F-13C1C581BE24";
name = Regular;
paths = (
{
closed = 1;
nodes = (
"233 700 LINE",
"140 700 LINE",
"140 70 LINE SMOOTH",
"140 -52 OFFCURVE",
"98 -83 OFFCURVE",
"0 -119 CURVE",
"38 -209 LINE",
"163 -155 OFFCURVE",
"233 -90 OFFCURVE",
"233 70 CURVE SMOOTH"
);
}
);
width = 332;
},
{
layerId = "C4872ECA-A3A9-40AB-960A-1DB2202F16DE";
name = Light;
paths = (
{
closed = 1;
nodes = (
"189 700 LINE",
"170 700 LINE",
"170 44 LINE SMOOTH",
"170 -98 OFFCURVE",
"103 -160 OFFCURVE",
"29 -190 CURVE",
"37 -208 LINE",
"117 -175 OFFCURVE",
"189 -106 OFFCURVE",
"189 47 CURVE SMOOTH"
);
}
);
width = 306;
}
);
leftKerningGroup = J;
rightKerningGroup = J;
rightMetricsKey = "=H*1.1";
unicode = 004A;
},
{
glyphname = K;
lastChange = "2015-11-15 09:21:59 +0000";
layers = (
{
background = {
paths = (
{
closed = 1;
nodes = (
"275 632 LINE",
"50 695 LINE",
"50 0 LINE",
"275 0 LINE"
);
},
{
closed = 1;
nodes = (
"501 208 OFFCURVE",
"597 301 OFFCURVE",
"597 452 CURVE SMOOTH",
"597 604 OFFCURVE",
"503 705 OFFCURVE",
"261 705 CURVE SMOOTH",
"204 705 OFFCURVE",
"119 701 OFFCURVE",
"50 695 CURVE",
"208 506 LINE",
"237 512 OFFCURVE",
"270 515 OFFCURVE",
"292 515 CURVE SMOOTH",
"356 515 OFFCURVE",
"382 484 OFFCURVE",
"382 438 CURVE SMOOTH",
"382 391 OFFCURVE",
"354 362 OFFCURVE",
"292 362 CURVE SMOOTH",
"205 362 LINE",
"168 208 LINE",
"296 208 LINE SMOOTH"
);
},
{
closed = 1;
nodes = (
"625 14 LINE",
"460 349 LINE",
"252 300 LINE",
"393 0 LINE",
"622 0 LINE"
);
}
);
};
layerId = "BFFFD157-90D3-4B85-B99D-9A2F366F03CA";
name = Bold;
paths = (
{
closed = 1;
nodes = (
"275 700 LINE",
"50 700 LINE",
"50 0 LINE",
"275 0 LINE"
);
},
{
closed = 1;
nodes = (
"681 14 LINE",
"522 346 LINE",
"676 684 LINE",
"671 700 LINE",
"429 700 LINE",
"329 423 LINE",
"206 423 LINE",
"206 208 LINE",
"326 208 LINE",
"423 0 LINE",
"678 0 LINE"
);
}
);
width = 692;
},
{
background = {
paths = (
{
closed = 1;
nodes = (
"183 652 LINE",
"90 696 LINE",
"90 0 LINE",
"183 0 LINE"
);
},
{
closed = 1;
nodes = (
"445 238 OFFCURVE",
"533 338 OFFCURVE",
"533 470 CURVE SMOOTH",
"533 594 OFFCURVE",
"454 704 OFFCURVE",
"239 704 CURVE SMOOTH",
"206 704 OFFCURVE",
"153 702 OFFCURVE",
"90 696 CURVE",
"149 606 LINE",
"193 611 OFFCURVE",
"229 612 OFFCURVE",
"248 612 CURVE SMOOTH",
"388 612 OFFCURVE",
"442 555 OFFCURVE",
"442 466 CURVE SMOOTH",
"442 375 OFFCURVE",
"385 329 OFFCURVE",
"270 329 CURVE SMOOTH",
"144 329 LINE",
"142 238 LINE",
"259 238 LINE SMOOTH"
);
},
{
closed = 1;
nodes = (
"551 13 LINE",
"368 305 LINE",
"291 248 LINE",
"451 0 LINE",
"548 0 LINE"
);
},
{
closed = 1;
nodes = (
"183 700 LINE",
"90 700 LINE",
"90 0 LINE",
"183 0 LINE"
);
},
{
closed = 1;
nodes = (
"590 700 LINE",
"497 700 LINE",
"497 0 LINE",
"590 0 LINE"
);
},
{
closed = 1;
nodes = (
"144 369 LINE",
"142 278 LINE",
"554 278 LINE",
"558 369 LINE"
);
}
);
};
layerId = "3E7589AA-8194-470F-8E2F-13C1C581BE24";
name = Regular;
paths = (
{
closed = 1;
nodes = (
"183 700 LINE",
"89 700 LINE",
"89 0 LINE",
"183 0 LINE"
);
},
{
closed = 1;
nodes = (
"551 15 LINE",
"346 341 LINE",
"538 687 LINE",
"534 700 LINE",
"444 700 LINE",
"266 369 LINE",
"178 369 LINE",
"178 278 LINE",
"272 278 LINE",
"450 0 LINE",
"548 0 LINE"
);
}
);
width = 586;
},
{
background = {
paths = (
{
closed = 1;
nodes = (
"125 689 LINE",
"106 697 LINE",
"106 0 LINE",
"125 0 LINE"
);
},
{
closed = 1;
nodes = (
"409 283 OFFCURVE",
"502 351 OFFCURVE",
"502 492 CURVE SMOOTH",
"502 627 OFFCURVE",
"417 704 OFFCURVE",
"230 704 CURVE SMOOTH",
"195 704 OFFCURVE",
"154 702 OFFCURVE",
"106 697 CURVE",
"114 679 LINE",
"159 684 OFFCURVE",
"195 686 OFFCURVE",
"230 686 CURVE SMOOTH",
"404 686 OFFCURVE",
"483 614 OFFCURVE",
"483 491 CURVE SMOOTH",
"483 362 OFFCURVE",
"399 301 OFFCURVE",
"220 301 CURVE SMOOTH",
"115 301 LINE",
"120 283 LINE",
"220 283 LINE SMOOTH"
);
},
{
closed = 1;
nodes = (
"285 296 LINE",
"263 296 LINE",
"493 0 LINE",
"518 0 LINE"
);
}
);
};
layerId = "C4872ECA-A3A9-40AB-960A-1DB2202F16DE";
name = Light;
paths = (
{
closed = 1;
nodes = (
"125 700 LINE",
"106 700 LINE",
"106 0 LINE",
"125 0 LINE"
);
},
{
closed = 1;
nodes = (
"513 5 LINE",
"262 327 LINE",
"479 696 LINE",
"478 700 LINE",
"459 700 LINE",
"246 335 LINE",
"117 335 LINE",
"117 317 LINE",
"246 317 LINE",
"493 0 LINE",
"511 0 LINE"
);
}
);
width = 550;
}
);
leftKerningGroup = K;
rightKerningGroup = K;
unicode = 004B;
},
{
glyphname = L;
lastChange = "2015-11-15 09:27:41 +0000";
layers = (
{
layerId = "BFFFD157-90D3-4B85-B99D-9A2F366F03CA";
name = Bold;
paths = (
{
closed = 1;
nodes = (
"275 700 LINE",
"50 700 LINE",
"50 0 LINE",
"275 0 LINE"
);
},
{
closed = 1;
nodes = (
"180 215 LINE",
"172 0 LINE",
"505 0 LINE",
"505 215 LINE"
);
}
);
width = 530;
},
{
layerId = "3E7589AA-8194-470F-8E2F-13C1C581BE24";
name = Regular;
paths = (
{
closed = 1;
nodes = (
"183 700 LINE",
"90 700 LINE",
"90 0 LINE",
"183 0 LINE"
);
},
{
closed = 1;
nodes = (
"144 91 LINE",
"142 0 LINE",
"486 0 LINE",
"486 91 LINE"
);
}
);
width = 522;
},
{
layerId = "C4872ECA-A3A9-40AB-960A-1DB2202F16DE";
name = Light;
paths = (
{
closed = 1;
nodes = (
"125 700 LINE",
"106 700 LINE",
"106 0 LINE",
"125 0 LINE"
);
},
{
closed = 1;
nodes = (
"118 18 LINE",
"119 0 LINE",
"462 0 LINE",
"462 18 LINE"
);
}
);
width = 504;
}
);
leftKerningGroup = L;
leftMetricsKey = H;
rightKerningGroup = L;
unicode = 004C;
},
{
glyphname = M;
lastChange = "2015-11-15 10:31:14 +0000";
layers = (
{
layerId = "BFFFD157-90D3-4B85-B99D-9A2F366F03CA";
name = Bold;
paths = (
{
closed = 1;
nodes = (
"900 700 LINE",
"600 700 LINE",
"511 343 LINE",
"505 343 LINE",
"411 700 LINE",
"107 700 LINE",
"40 0 LINE",
"266 0 LINE",
"290 324 LINE",
"300 324 LINE",
"390 10 LINE",
"604 10 LINE",
"692 324 LINE",
"702 324 LINE",
"725 0 LINE",
"974 0 LINE"
);
}
);
width = 1014;
},
{
layerId = "3E7589AA-8194-470F-8E2F-13C1C581BE24";
name = Regular;
paths = (
{
closed = 1;
nodes = (
"776 700 LINE",
"642 700 LINE",
"464 126 LINE",
"458 126 LINE",
"275 700 LINE",
"140 700 LINE",
"72 0 LINE",
"161 0 LINE",
"215 588 LINE",
"221 588 LINE",
"405 10 LINE",
"509 10 LINE",
"689 588 LINE",
"695 588 LINE",
"757 0 LINE",
"846 0 LINE"
);
}
);
width = 918;
},
{
layerId = "C4872ECA-A3A9-40AB-960A-1DB2202F16DE";
name = Light;
paths = (
{
closed = 1;
nodes = (
"699 700 LINE",
"668 700 LINE",
"437 23 LINE",
"434 23 LINE",
"204 700 LINE",
"172 700 LINE",
"85 0 LINE",
"101 0 LINE",
"188 678 LINE",
"191 678 LINE",
"422 0 LINE",
"448 0 LINE",
"680 678 LINE",
"683 678 LINE",
"770 0 LINE",
"789 0 LINE"
);
}
);
width = 874;
}
);
leftKerningGroup = M;
leftMetricsKey = "=H*.8";
rightKerningGroup = M;
rightMetricsKey = "=H*.8";
unicode = 004D;
},
{
glyphname = N;
lastChange = "2015-11-15 09:29:11 +0000";
layers = (
{
background = {
paths = (
{
closed = 1;
nodes = (
"275 700 LINE",
"50 700 LINE",
"50 0 LINE",
"275 0 LINE"
);
},
{
closed = 1;
nodes = (
"690 700 LINE",
"465 700 LINE",
"465 0 LINE",
"690 0 LINE"
);
},
{
closed = 1;
nodes = (
"180 423 LINE",
"172 208 LINE",
"614 208 LINE",
"618 423 LINE"
);
}
);
};
layerId = "BFFFD157-90D3-4B85-B99D-9A2F366F03CA";
name = Bold;
paths = (
{
closed = 1;
nodes = (
"475 393 LINE",
"235 700 LINE",
"50 700 LINE",
"50 0 LINE",
"265 0 LINE",
"265 298 LINE",
"505 0 LINE",
"690 0 LINE",
"690 700 LINE",
"475 700 LINE"
);
}
);
width = 740;
},
{
layerId = "3E7589AA-8194-470F-8E2F-13C1C581BE24";
name = Regular;
paths = (
{
closed = 1;
nodes = (
"540 177 LINE",
"170 700 LINE",
"90 700 LINE",
"90 0 LINE",
"180 0 LINE",
"180 525 LINE",
"550 0 LINE",
"630 0 LINE",
"630 700 LINE",
"540 700 LINE"
);
}
);
width = 720;
},
{
layerId = "C4872ECA-A3A9-40AB-960A-1DB2202F16DE";
name = Light;
paths = (
{
closed = 1;
nodes = (
"561 39 LINE",
"123 700 LINE",
"106 700 LINE",
"106 0 LINE",
"125 0 LINE",
"125 662 LINE",
"563 0 LINE",
"580 0 LINE",
"580 700 LINE",
"561 700 LINE"
);
}
);
width = 686;
}
);
leftKerningGroup = N;
leftMetricsKey = H;
rightKerningGroup = N;
rightMetricsKey = H;
unicode = 004E;
},
{
glyphname = O;
lastChange = "2015-12-31 14:22:47 +0000";
layers = (
{
anchors = (
{
name = bottom;
position = "{381, 0}";
},
{
name = center;
position = "{381, 350}";
},
{
name = ogonek;
position = "{686, 10}";
},
{
name = top;
position = "{381, 700}";
},
{
name = topleft;
position = "{20, 700}";
},
{
name = topright;
position = "{742, 700}";
}
);
background = {
paths = (
{
closed = 1;
nodes = (
"462 212 OFFCURVE",
"436 170 OFFCURVE",
"374 170 CURVE SMOOTH",
"315 170 OFFCURVE",
"288 212 OFFCURVE",
"288 320 CURVE SMOOTH",
"288 376 OFFCURVE",
"293 446 OFFCURVE",
"302 482 CURVE",
"321 489 OFFCURVE",
"350 494 OFFCURVE",
"378 494 CURVE SMOOTH",
"408 494 OFFCURVE",
"434 488 OFFCURVE",
"453 481 CURVE",
"458 451 OFFCURVE",
"462 386 OFFCURVE",
"462 328 CURVE SMOOTH"
);
},
{
closed = 1;
nodes = (
"689 379 CURVE SMOOTH",
"689 479 OFFCURVE",
"673 592 OFFCURVE",
"645 667 CURVE",
"571 697 OFFCURVE",
"504 710 OFFCURVE",
"399 710 CURVE SMOOTH",
"183 710 OFFCURVE",
"62 601 OFFCURVE",
"62 322 CURVE SMOOTH",
"62 92 OFFCURVE",
"178 -10 OFFCURVE",
"368 -10 CURVE SMOOTH",
"597 -10 OFFCURVE",
"689 97 OFFCURVE"
);
}
);
};
layerId = "BFFFD157-90D3-4B85-B99D-9A2F366F03CA";
name = Bold;
paths = (
{
closed = 1;
nodes = (
"590 -15 OFFCURVE",
"728 114 OFFCURVE",
"728 354 CURVE SMOOTH",
"728 584 OFFCURVE",
"599 715 OFFCURVE",
"388 715 CURVE SMOOTH",
"172 715 OFFCURVE",
"35 585 OFFCURVE",
"35 342 CURVE SMOOTH",
"35 111 OFFCURVE",
"166 -15 OFFCURVE",
"376 -15 CURVE SMOOTH"
);
},
{
closed = 1;
nodes = (
"312 203 OFFCURVE",
"268 253 OFFCURVE",
"268 348 CURVE SMOOTH",
"268 444 OFFCURVE",
"313 488 OFFCURVE",
"381 488 CURVE SMOOTH",
"451 488 OFFCURVE",
"496 444 OFFCURVE",
"496 345 CURVE SMOOTH",
"496 250 OFFCURVE",
"453 203 OFFCURVE",
"384 203 CURVE SMOOTH"
);
}
);
width = 762;
},
{
anchors = (
{
name = bottom;
position = "{378, 0}";
},
{
name = center;
position = "{378, 350}";
},
{
name = ogonek;
position = "{680, 10}";
},
{
name = top;
position = "{378, 700}";
},
{
name = topleft;
position = "{20, 700}";
},
{
name = topright;
position = "{736, 700}";
}
);
layerId = "3E7589AA-8194-470F-8E2F-13C1C581BE24";
name = Regular;
paths = (
{
closed = 1;
nodes = (
"569 -12 OFFCURVE",
"696 113 OFFCURVE",
"696 350 CURVE SMOOTH",
"696 580 OFFCURVE",
"578 712 OFFCURVE",
"382 712 CURVE SMOOTH",
"186 712 OFFCURVE",
"60 585 OFFCURVE",
"60 342 CURVE SMOOTH",
"60 114 OFFCURVE",
"180 -12 OFFCURVE",
"373 -12 CURVE SMOOTH"
);
},
{
closed = 1;
nodes = (
"229 78 OFFCURVE",
"153 172 OFFCURVE",
"153 349 CURVE SMOOTH",
"153 532 OFFCURVE",
"234 621 OFFCURVE",
"377 621 CURVE SMOOTH",
"523 621 OFFCURVE",
"603 529 OFFCURVE",
"603 343 CURVE SMOOTH",
"603 167 OFFCURVE",
"524 78 OFFCURVE",
"379 78 CURVE SMOOTH"
);
}
);
width = 756;
},
{
anchors = (
{
name = bottom;
position = "{379, 0}";
},
{
name = center;
position = "{379, 350}";
},
{
name = ogonek;
position = "{682, 10}";
},
{
name = top;
position = "{379, 700}";
},
{
name = topleft;
position = "{20, 700}";
},
{
name = topright;
position = "{738, 700}";
}
);
layerId = "C4872ECA-A3A9-40AB-960A-1DB2202F16DE";
name = Light;
paths = (
{
closed = 1;
nodes = (
"552 -10 OFFCURVE",
"673 105 OFFCURVE",
"673 348 CURVE SMOOTH",
"673 589 OFFCURVE",
"555 710 OFFCURVE",
"381 710 CURVE SMOOTH",
"206 710 OFFCURVE",
"85 588 OFFCURVE",
"85 348 CURVE SMOOTH",
"85 108 OFFCURVE",
"204 -10 OFFCURVE",
"379 -10 CURVE SMOOTH"
);
},
{
closed = 1;
nodes = (
"214 8 OFFCURVE",
"104 120 OFFCURVE",
"104 348 CURVE SMOOTH",
"104 579 OFFCURVE",
"216 692 OFFCURVE",
"381 692 CURVE SMOOTH",
"546 692 OFFCURVE",
"654 579 OFFCURVE",
"654 348 CURVE SMOOTH",
"654 113 OFFCURVE",
"541 8 OFFCURVE",
"379 8 CURVE SMOOTH"
);
}
);
width = 758;
}
);
leftKerningGroup = O;
rightKerningGroup = O;
unicode = 004F;
},
{
glyphname = P;
lastChange = "2015-11-15 10:54:48 +0000";
layers = (
{
background = {
paths = (
{
closed = 1;
nodes = (
"572 700 LINE",
"198 700 LINE",
"20 0 LINE",
"246 0 LINE",
"353 490 LINE",
"382 490 LINE",
"491 0 LINE",
"747 0 LINE"
);
},
{
closed = 1;
nodes = (
"169 298 LINE",
"161 113 LINE",
"603 113 LINE",
"607 298 LINE"
);
}
);
};
layerId = "BFFFD157-90D3-4B85-B99D-9A2F366F03CA";
name = Bold;
paths = (
{
closed = 1;
nodes = (
"275 632 LINE",
"50 697 LINE",
"50 0 LINE",
"275 0 LINE"
);
},
{
closed = 1;
nodes = (
"519 144 OFFCURVE",
"615 249 OFFCURVE",
"615 420 CURVE SMOOTH",
"615 591 OFFCURVE",
"521 705 OFFCURVE",
"258 705 CURVE SMOOTH",
"214 705 OFFCURVE",
"130 703 OFFCURVE",
"50 697 CURVE",
"227 475 LINE",
"256 482 OFFCURVE",
"290 485 OFFCURVE",
"312 485 CURVE SMOOTH",
"376 485 OFFCURVE",
"402 453 OFFCURVE",
"402 407 CURVE SMOOTH",
"402 360 OFFCURVE",
"374 330 OFFCURVE",
"312 330 CURVE SMOOTH",
"283 330 OFFCURVE",
"253 333 OFFCURVE",
"224 338 CURVE",
"189 152 LINE",
"231 147 OFFCURVE",
"274 144 OFFCURVE",
"316 144 CURVE SMOOTH"
);
}
);
width = 640;
},
{
layerId = "3E7589AA-8194-470F-8E2F-13C1C581BE24";
name = Regular;
paths = (
{
closed = 1;
nodes = (
"183 652 LINE",
"90 696 LINE",
"90 0 LINE",
"183 0 LINE"
);
},
{
closed = 1;
nodes = (
"459 219 OFFCURVE",
"543 326 OFFCURVE",
"543 466 CURVE SMOOTH",
"543 600 OFFCURVE",
"464 704 OFFCURVE",
"239 704 CURVE SMOOTH",
"206 704 OFFCURVE",
"153 702 OFFCURVE",
"90 696 CURVE",
"143 606 LINE",
"181 611 OFFCURVE",
"215 612 OFFCURVE",
"240 612 CURVE SMOOTH",
"392 612 OFFCURVE",
"452 557 OFFCURVE",
"452 461 CURVE SMOOTH",
"452 363 OFFCURVE",
"395 309 OFFCURVE",
"260 309 CURVE SMOOTH",
"228 309 OFFCURVE",
"186 311 OFFCURVE",
"144 317 CURVE",
"142 227 LINE",
"181 221 OFFCURVE",
"220 219 OFFCURVE",
"259 219 CURVE SMOOTH"
);
}
);
width = 585;
},
{
layerId = "C4872ECA-A3A9-40AB-960A-1DB2202F16DE";
name = Light;
paths = (
{
closed = 1;
nodes = (
"125 689 LINE",
"106 697 LINE",
"106 0 LINE",
"125 0 LINE"
);
},
{
closed = 1;
nodes = (
"409 253 OFFCURVE",
"512 321 OFFCURVE",
"512 478 CURVE SMOOTH",
"512 627 OFFCURVE",
"417 704 OFFCURVE",
"230 704 CURVE SMOOTH",
"195 704 OFFCURVE",
"154 702 OFFCURVE",
"106 697 CURVE",
"114 679 LINE",
"159 684 OFFCURVE",
"195 686 OFFCURVE",
"230 686 CURVE SMOOTH",
"404 686 OFFCURVE",
"493 614 OFFCURVE",
"493 477 CURVE SMOOTH",
"493 332 OFFCURVE",
"399 271 OFFCURVE",
"230 271 CURVE SMOOTH",
"192 271 OFFCURVE",
"153 273 OFFCURVE",
"120 278 CURVE",
"120 260 LINE",
"157 255 OFFCURVE",
"193 253 OFFCURVE",
"230 253 CURVE SMOOTH"
);
}
);
width = 572;
}
);
leftKerningGroup = P;
rightKerningGroup = P;
rightMetricsKey = "=O*.7";
unicode = 0050;
},
{
glyphname = Q;
lastChange = "2015-11-15 09:18:07 +0000";
layers = (
{
background = {
paths = (
{
closed = 1;
nodes = (
"590 -15 OFFCURVE",
"728 114 OFFCURVE",
"728 354 CURVE SMOOTH",
"728 584 OFFCURVE",
"599 715 OFFCURVE",
"388 715 CURVE SMOOTH",
"172 715 OFFCURVE",
"35 585 OFFCURVE",
"35 342 CURVE SMOOTH",
"35 111 OFFCURVE",
"166 -15 OFFCURVE",
"376 -15 CURVE SMOOTH"
);
},
{
closed = 1;
nodes = (
"312 203 OFFCURVE",
"268 253 OFFCURVE",
"268 348 CURVE SMOOTH",
"268 444 OFFCURVE",
"313 488 OFFCURVE",
"381 488 CURVE SMOOTH",
"451 488 OFFCURVE",
"496 444 OFFCURVE",
"496 345 CURVE SMOOTH",
"496 250 OFFCURVE",
"453 203 OFFCURVE",
"384 203 CURVE SMOOTH"
);
}
);
};
layerId = "BFFFD157-90D3-4B85-B99D-9A2F366F03CA";
name = Bold;
paths = (
{
closed = 1;
nodes = (
"728 584 OFFCURVE",
"599 715 OFFCURVE",
"388 715 CURVE SMOOTH",
"172 715 OFFCURVE",
"35 585 OFFCURVE",
"35 342 CURVE SMOOTH",
"35 100 OFFCURVE",
"176 -10 OFFCURVE",
"363 -15 CURVE",
"339 30 LINE",
"331 -141 LINE",
"457 -185 OFFCURVE",
"575 -203 OFFCURVE",
"711 -212 CURVE",
"728 -3 LINE",
"667 -3 OFFCURVE",
"591 0 OFFCURVE",
"522 10 CURVE",
"523 25 LINE",
"650 68 OFFCURVE",
"728 175 OFFCURVE",
"728 354 CURVE SMOOTH"
);
},
{
closed = 1;
nodes = (
"268 444 OFFCURVE",
"313 488 OFFCURVE",
"381 488 CURVE SMOOTH",
"451 488 OFFCURVE",
"496 444 OFFCURVE",
"496 345 CURVE SMOOTH",
"496 250 OFFCURVE",
"453 203 OFFCURVE",
"384 203 CURVE SMOOTH",
"312 203 OFFCURVE",
"268 253 OFFCURVE",
"268 348 CURVE SMOOTH"
);
}
);
width = 763;
},
{
background = {
paths = (
{
closed = 1;
nodes = (
"569 -15 OFFCURVE",
"696 110 OFFCURVE",
"696 350 CURVE SMOOTH",
"696 580 OFFCURVE",
"578 712 OFFCURVE",
"382 712 CURVE SMOOTH",
"186 712 OFFCURVE",
"60 585 OFFCURVE",
"60 342 CURVE SMOOTH",
"60 111 OFFCURVE",
"180 -15 OFFCURVE",
"373 -15 CURVE SMOOTH"
);
},
{
closed = 1;
nodes = (
"229 75 OFFCURVE",
"153 169 OFFCURVE",
"153 349 CURVE SMOOTH",
"153 532 OFFCURVE",
"234 621 OFFCURVE",
"377 621 CURVE SMOOTH",
"523 621 OFFCURVE",
"603 529 OFFCURVE",
"603 343 CURVE SMOOTH",
"603 164 OFFCURVE",
"524 75 OFFCURVE",
"379 75 CURVE SMOOTH"
);
}
);
};
layerId = "3E7589AA-8194-470F-8E2F-13C1C581BE24";
name = Regular;
paths = (
{
closed = 1;
nodes = (
"696 580 OFFCURVE",
"578 712 OFFCURVE",
"382 712 CURVE SMOOTH",
"186 712 OFFCURVE",
"60 585 OFFCURVE",
"60 342 CURVE SMOOTH",
"60 110 OFFCURVE",
"180 -15 OFFCURVE",
"374 -15 CURVE",
"347 31 LINE",
"334 -88 LINE",
"439 -116 OFFCURVE",
"563 -130 OFFCURVE",
"680 -137 CURVE",
"689 -39 LINE",
"610 -39 OFFCURVE",
"514 -33 OFFCURVE",
"433 -20 CURVE",
"434 -8 LINE",
"595 17 OFFCURVE",
"696 136 OFFCURVE",
"696 350 CURVE SMOOTH"
);
},
{
closed = 1;
nodes = (
"153 532 OFFCURVE",
"234 621 OFFCURVE",
"377 621 CURVE SMOOTH",
"523 621 OFFCURVE",
"603 529 OFFCURVE",
"603 343 CURVE SMOOTH",
"603 164 OFFCURVE",
"524 75 OFFCURVE",
"379 75 CURVE SMOOTH",
"229 75 OFFCURVE",
"153 169 OFFCURVE",
"153 349 CURVE SMOOTH"
);
}
);
width = 756;
},
{
background = {
paths = (
{
closed = 1;
nodes = (
"552 -10 OFFCURVE",
"673 105 OFFCURVE",
"673 348 CURVE SMOOTH",
"673 589 OFFCURVE",
"555 710 OFFCURVE",
"381 710 CURVE SMOOTH",
"206 710 OFFCURVE",
"85 588 OFFCURVE",
"85 348 CURVE SMOOTH",
"85 108 OFFCURVE",
"204 -10 OFFCURVE",
"379 -10 CURVE SMOOTH"
);
},
{
closed = 1;
nodes = (
"214 8 OFFCURVE",
"104 120 OFFCURVE",
"104 348 CURVE SMOOTH",
"104 579 OFFCURVE",
"216 692 OFFCURVE",
"381 692 CURVE SMOOTH",
"546 692 OFFCURVE",
"654 579 OFFCURVE",
"654 348 CURVE SMOOTH",
"654 113 OFFCURVE",
"541 8 OFFCURVE",
"379 8 CURVE SMOOTH"
);
}
);
};
layerId = "C4872ECA-A3A9-40AB-960A-1DB2202F16DE";
name = Light;
paths = (
{
closed = 1;
nodes = (
"673 589 OFFCURVE",
"555 710 OFFCURVE",
"381 710 CURVE SMOOTH",
"206 710 OFFCURVE",
"85 588 OFFCURVE",
"85 348 CURVE SMOOTH",
"85 120 OFFCURVE",
"192 10 OFFCURVE",
"333 -7 CURVE",
"329 0 LINE",
"324 -15 LINE",
"445 -70 OFFCURVE",
"562 -89 OFFCURVE",
"671 -95 CURVE",
"673 -75 LINE",
"563 -72 OFFCURVE",
"449 -47 OFFCURVE",
"360 -13 CURVE",
"361 -10 LINE",
"569 -17 OFFCURVE",
"673 125 OFFCURVE",
"673 348 CURVE SMOOTH"
);
},
{
closed = 1;
nodes = (
"104 579 OFFCURVE",
"216 692 OFFCURVE",
"381 692 CURVE SMOOTH",
"546 692 OFFCURVE",
"654 579 OFFCURVE",
"654 348 CURVE SMOOTH",
"654 113 OFFCURVE",
"541 8 OFFCURVE",
"379 8 CURVE SMOOTH",
"214 8 OFFCURVE",
"104 120 OFFCURVE",
"104 348 CURVE SMOOTH"
);
}
);
width = 758;
}
);
leftKerningGroup = O;
leftMetricsKey = O;
rightKerningGroup = O;
rightMetricsKey = O;
unicode = 0051;
},
{
glyphname = R;
lastChange = "2015-11-15 09:22:34 +0000";
layers = (
{
background = {
paths = (
{
closed = 1;
nodes = (
"275 632 LINE",
"50 695 LINE",
"50 0 LINE",
"275 0 LINE"
);
},
{
closed = 1;
nodes = (
"519 144 OFFCURVE",
"615 249 OFFCURVE",
"615 420 CURVE SMOOTH",
"615 591 OFFCURVE",
"521 705 OFFCURVE",
"281 705 CURVE SMOOTH",
"214 705 OFFCURVE",
"130 701 OFFCURVE",
"50 695 CURVE",
"227 475 LINE",
"256 482 OFFCURVE",
"290 485 OFFCURVE",
"312 485 CURVE SMOOTH",
"376 485 OFFCURVE",
"402 453 OFFCURVE",
"402 407 CURVE SMOOTH",
"402 360 OFFCURVE",
"374 330 OFFCURVE",
"312 330 CURVE SMOOTH",
"283 330 OFFCURVE",
"253 333 OFFCURVE",
"224 338 CURVE",
"189 152 LINE",
"231 147 OFFCURVE",
"274 144 OFFCURVE",
"316 144 CURVE SMOOTH"
);
}
);
};
layerId = "BFFFD157-90D3-4B85-B99D-9A2F366F03CA";
name = Bold;
paths = (
{
closed = 1;
nodes = (
"275 632 LINE",
"50 695 LINE",
"50 0 LINE",
"275 0 LINE"
);
},
{
closed = 1;
nodes = (
"511 158 OFFCURVE",
"607 281 OFFCURVE",
"607 432 CURVE SMOOTH",
"607 584 OFFCURVE",
"513 705 OFFCURVE",
"251 705 CURVE SMOOTH",
"202 705 OFFCURVE",
"119 701 OFFCURVE",
"50 695 CURVE",
"222 476 LINE",
"251 482 OFFCURVE",
"284 485 OFFCURVE",
"306 485 CURVE SMOOTH",
"370 485 OFFCURVE",
"396 454 OFFCURVE",
"396 408 CURVE SMOOTH",
"396 361 OFFCURVE",
"368 332 OFFCURVE",
"306 332 CURVE SMOOTH",
"219 332 LINE",
"168 158 LINE",
"306 158 LINE SMOOTH"
);
},
{
closed = 1;
nodes = (
"645 14 LINE",
"470 349 LINE",
"262 300 LINE",
"403 0 LINE",
"642 0 LINE"
);
}
);
width = 650;
},
{
background = {
paths = (
{
closed = 1;
nodes = (
"183 652 LINE",
"90 696 LINE",
"90 0 LINE",
"183 0 LINE"
);
},
{
closed = 1;
nodes = (
"459 219 OFFCURVE",
"543 326 OFFCURVE",
"543 466 CURVE SMOOTH",
"543 600 OFFCURVE",
"464 704 OFFCURVE",
"239 704 CURVE SMOOTH",
"206 704 OFFCURVE",
"153 702 OFFCURVE",
"90 696 CURVE",
"143 606 LINE",
"181 611 OFFCURVE",
"215 612 OFFCURVE",
"240 612 CURVE SMOOTH",
"392 612 OFFCURVE",
"452 557 OFFCURVE",
"452 461 CURVE SMOOTH",
"452 363 OFFCURVE",
"395 309 OFFCURVE",
"260 309 CURVE SMOOTH",
"228 309 OFFCURVE",
"186 311 OFFCURVE",
"144 317 CURVE",
"142 227 LINE",
"181 221 OFFCURVE",
"220 219 OFFCURVE",
"259 219 CURVE SMOOTH"
);
}
);
};
layerId = "3E7589AA-8194-470F-8E2F-13C1C581BE24";
name = Regular;
paths = (
{
closed = 1;
nodes = (
"183 652 LINE",
"90 696 LINE",
"90 0 LINE",
"183 0 LINE"
);
},
{
closed = 1;
nodes = (
"435 220 OFFCURVE",
"533 304 OFFCURVE",
"533 460 CURVE SMOOTH",
"533 611 OFFCURVE",
"454 704 OFFCURVE",
"239 704 CURVE SMOOTH",
"206 704 OFFCURVE",
"153 702 OFFCURVE",
"90 696 CURVE",
"149 606 LINE",
"193 611 OFFCURVE",
"229 612 OFFCURVE",
"248 612 CURVE SMOOTH",
"388 612 OFFCURVE",
"442 552 OFFCURVE",
"442 459 CURVE SMOOTH",
"442 362 OFFCURVE",
"385 311 OFFCURVE",
"270 311 CURVE SMOOTH",
"144 311 LINE",
"142 220 LINE",
"229 220 LINE SMOOTH"
);
},
{
closed = 1;
nodes = (
"551 13 LINE",
"368 305 LINE",
"291 248 LINE",
"451 0 LINE",
"548 0 LINE"
);
}
);
width = 608;
},
{
background = {
paths = (
{
closed = 1;
nodes = (
"125 689 LINE",
"106 697 LINE",
"106 0 LINE",
"125 0 LINE"
);
},
{
closed = 1;
nodes = (
"409 253 OFFCURVE",
"512 321 OFFCURVE",
"512 478 CURVE SMOOTH",
"512 627 OFFCURVE",
"417 704 OFFCURVE",
"230 704 CURVE SMOOTH",
"195 704 OFFCURVE",
"154 702 OFFCURVE",
"106 697 CURVE",
"114 679 LINE",
"159 684 OFFCURVE",
"195 686 OFFCURVE",
"230 686 CURVE SMOOTH",
"404 686 OFFCURVE",
"493 614 OFFCURVE",
"493 477 CURVE SMOOTH",
"493 332 OFFCURVE",
"399 271 OFFCURVE",
"230 271 CURVE SMOOTH",
"192 271 OFFCURVE",
"153 273 OFFCURVE",
"120 278 CURVE",
"120 260 LINE",
"157 255 OFFCURVE",
"193 253 OFFCURVE",
"230 253 CURVE SMOOTH"
);
}
);
};
layerId = "C4872ECA-A3A9-40AB-960A-1DB2202F16DE";
name = Light;
paths = (
{
closed = 1;
nodes = (
"125 689 LINE",
"106 697 LINE",
"106 0 LINE",
"125 0 LINE"
);
},
{
closed = 1;
nodes = (
"409 263 OFFCURVE",
"502 341 OFFCURVE",
"502 487 CURVE SMOOTH",
"502 627 OFFCURVE",
"417 704 OFFCURVE",
"230 704 CURVE SMOOTH",
"195 704 OFFCURVE",
"154 702 OFFCURVE",
"106 697 CURVE",
"114 679 LINE",
"159 684 OFFCURVE",
"195 686 OFFCURVE",
"230 686 CURVE SMOOTH",
"404 686 OFFCURVE",
"483 614 OFFCURVE",
"483 486 CURVE SMOOTH",
"483 352 OFFCURVE",
"399 281 OFFCURVE",
"220 281 CURVE SMOOTH",
"115 281 LINE",
"120 263 LINE",
"220 263 LINE SMOOTH"
);
},
{
closed = 1;
nodes = (
"513 6 LINE",
"285 276 LINE",
"263 276 LINE",
"493 0 LINE",
"512 0 LINE"
);
}
);
width = 593;
}
);
leftKerningGroup = R;
leftMetricsKey = H;
rightKerningGroup = R;
unicode = 0052;
},
{
glyphname = S;
lastChange = "2015-11-15 10:18:20 +0000";
layers = (
{
layerId = "BFFFD157-90D3-4B85-B99D-9A2F366F03CA";
name = Bold;
paths = (
{
closed = 1;
nodes = (
"473 692 OFFCURVE",
"399 711 OFFCURVE",
"319 711 CURVE SMOOTH",
"103 711 OFFCURVE",
"34 581 OFFCURVE",
"34 446 CURVE SMOOTH",
"34 365 OFFCURVE",
"59 305 OFFCURVE",
"84 261 CURVE",
"146 256 OFFCURVE",
"206 248 OFFCURVE",
"254 237 CURVE SMOOTH",
"297 227 OFFCURVE",
"307 218 OFFCURVE",
"307 203 CURVE SMOOTH",
"307 179 OFFCURVE",
"277 176 OFFCURVE",
"247 176 CURVE SMOOTH",
"188 176 OFFCURVE",
"118 186 OFFCURVE",
"53 211 CURVE",
"34 29 LINE",
"103 0 OFFCURVE",
"190 -13 OFFCURVE",
"267 -13 CURVE SMOOTH",
"455 -13 OFFCURVE",
"534 67 OFFCURVE",
"534 207 CURVE SMOOTH",
"534 314 OFFCURVE",
"484 371 OFFCURVE",
"407 399 CURVE SMOOTH",
"371 412 OFFCURVE",
"318 423 OFFCURVE",
"262 428 CURVE",
"260 435 OFFCURVE",
"259 443 OFFCURVE",
"259 450 CURVE SMOOTH",
"259 484 OFFCURVE",
"287 492 OFFCURVE",
"328 492 CURVE SMOOTH",
"382 492 OFFCURVE",
"440 478 OFFCURVE",
"489 456 CURVE",
"521 667 LINE"
);
}
);
width = 554;
},
{
layerId = "3E7589AA-8194-470F-8E2F-13C1C581BE24";
name = Regular;
paths = (
{
closed = 1;
nodes = (
"431 689 OFFCURVE",
"369 707 OFFCURVE",
"300 707 CURVE SMOOTH",
"135 707 OFFCURVE",
"69 604 OFFCURVE",
"69 472 CURVE SMOOTH",
"69 410 OFFCURVE",
"84 355 OFFCURVE",
"107 314 CURVE",
"189 307 OFFCURVE",
"279 292 OFFCURVE",
"336 265 CURVE SMOOTH",
"391 239 OFFCURVE",
"403 207 OFFCURVE",
"403 172 CURVE SMOOTH",
"403 98 OFFCURVE",
"349 78 OFFCURVE",
"273 78 CURVE SMOOTH",
"192 78 OFFCURVE",
"131 100 OFFCURVE",
"79 132 CURVE",
"55 40 LINE",
"114 5 OFFCURVE",
"190 -11 OFFCURVE",
"266 -11 CURVE SMOOTH",
"412 -11 OFFCURVE",
"496 46 OFFCURVE",
"496 176 CURVE SMOOTH",
"496 261 OFFCURVE",
"458 318 OFFCURVE",
"357 358 CURVE SMOOTH",
"303 379 OFFCURVE",
"244 391 OFFCURVE",
"174 400 CURVE",
"163 427 OFFCURVE",
"160 454 OFFCURVE",
"160 477 CURVE SMOOTH",
"160 580 OFFCURVE",
"219 616 OFFCURVE",
"299 616 CURVE SMOOTH",
"356 616 OFFCURVE",
"409 598 OFFCURVE",
"454 567 CURVE",
"482 654 LINE"
);
}
);
width = 551;
},
{
layerId = "C4872ECA-A3A9-40AB-960A-1DB2202F16DE";
name = Light;
paths = (
{
closed = 1;
nodes = (
"409 684 OFFCURVE",
"357 707 OFFCURVE",
"286 707 CURVE SMOOTH",
"165 707 OFFCURVE",
"79 638 OFFCURVE",
"79 496 CURVE SMOOTH",
"79 449 OFFCURVE",
"89 400 OFFCURVE",
"119 347 CURVE",
"219 336 OFFCURVE",
"304 318 OFFCURVE",
"359 290 CURVE SMOOTH",
"415 261 OFFCURVE",
"440 220 OFFCURVE",
"440 155 CURVE SMOOTH",
"440 50 OFFCURVE",
"367 8 OFFCURVE",
"258 8 CURVE SMOOTH",
"187 8 OFFCURVE",
"126 23 OFFCURVE",
"75 50 CURVE",
"69 32 LINE",
"117 5 OFFCURVE",
"184 -10 OFFCURVE",
"258 -10 CURVE SMOOTH",
"377 -10 OFFCURVE",
"459 38 OFFCURVE",
"459 156 CURVE SMOOTH",
"459 224 OFFCURVE",
"433 275 OFFCURVE",
"365 308 CURVE SMOOTH",
"307 337 OFFCURVE",
"220 354 OFFCURVE",
"132 365 CURVE",
"110 401 OFFCURVE",
"98 448 OFFCURVE",
"98 499 CURVE SMOOTH",
"98 627 OFFCURVE",
"175 689 OFFCURVE",
"287 689 CURVE SMOOTH",
"351 689 OFFCURVE",
"401 668 OFFCURVE",
"436 639 CURVE",
"443 656 LINE"
);
}
);
width = 530;
}
);
leftKerningGroup = S;
rightKerningGroup = S;
unicode = 0053;
},
{
glyphname = T;
lastChange = "2015-12-28 20:52:42 +0000";
layers = (
{
layerId = "BFFFD157-90D3-4B85-B99D-9A2F366F03CA";
name = Bold;
paths = (
{
closed = 1;
nodes = (
"444 626 LINE",
"219 626 LINE",
"219 0 LINE",
"444 0 LINE"
);
},
{
closed = 1;
nodes = (
"35 700 LINE",
"35 485 LINE",
"627 485 LINE",
"627 700 LINE"
);
}
);
width = 662;
},
{
background = {
paths = (
{
closed = 1;
nodes = (
"170 700 LINE",
"77 700 LINE",
"77 0 LINE",
"170 0 LINE"
);
},
{
closed = 1;
nodes = (
"577 700 LINE",
"484 700 LINE",
"484 0 LINE",
"577 0 LINE"
);
},
{
closed = 1;
nodes = (
"131 369 LINE",
"129 278 LINE",
"541 278 LINE",
"545 369 LINE"
);
}
);
};
layerId = "3E7589AA-8194-470F-8E2F-13C1C581BE24";
name = Regular;
paths = (
{
closed = 1;
nodes = (
"373 700 LINE",
"280 700 LINE",
"280 0 LINE",
"373 0 LINE"
);
},
{
closed = 1;
nodes = (
"50 700 LINE",
"50 609 LINE",
"603 609 LINE",
"603 700 LINE"
);
}
);
width = 653;
},
{
background = {
paths = (
{
closed = 1;
nodes = (
"127 700 LINE",
"108 700 LINE",
"108 0 LINE",
"127 0 LINE"
);
},
{
closed = 1;
nodes = (
"541 700 LINE",
"522 700 LINE",
"522 0 LINE",
"541 0 LINE"
);
},
{
closed = 1;
nodes = (
"119 335 LINE",
"121 317 LINE",
"527 317 LINE",
"531 335 LINE"
);
}
);
};
layerId = "C4872ECA-A3A9-40AB-960A-1DB2202F16DE";
name = Light;
paths = (
{
closed = 1;
nodes = (
"335 694 LINE",
"316 694 LINE",
"316 0 LINE",
"335 0 LINE"
);
},
{
closed = 1;
nodes = (
"60 700 LINE",
"60 682 LINE",
"591 682 LINE",
"591 700 LINE"
);
}
);
width = 651;
}
);
leftKerningGroup = T;
rightKerningGroup = T;
unicode = 0054;
},
{
glyphname = U;
lastChange = "2015-12-31 14:22:47 +0000";
layers = (
{
anchors = (
{
name = bottom;
position = "{370, 0}";
},
{
name = ogonek;
position = "{665, 10}";
},
{
name = top;
position = "{370, 700}";
},
{
name = topright;
position = "{719, 700}";
}
);
layerId = "BFFFD157-90D3-4B85-B99D-9A2F366F03CA";
name = Bold;
paths = (
{
closed = 1;
nodes = (
"45 310 LINE SMOOTH",
"45 81 OFFCURVE",
"173 -15 OFFCURVE",
"369 -15 CURVE SMOOTH",
"583 -15 OFFCURVE",
"694 90 OFFCURVE",
"694 310 CURVE SMOOTH",
"694 700 LINE",
"468 700 LINE",
"468 302 LINE SMOOTH",
"468 229 OFFCURVE",
"445 200 OFFCURVE",
"385 200 CURVE SMOOTH",
"328 200 OFFCURVE",
"301 229 OFFCURVE",
"301 302 CURVE SMOOTH",
"301 700 LINE",
"45 700 LINE"
);
}
);
width = 739;
},
{
anchors = (
{
name = bottom;
position = "{343, 0}";
},
{
name = ogonek;
position = "{617, 10}";
},
{
name = top;
position = "{343, 700}";
},
{
name = topright;
position = "{666, 700}";
}
);
background = {
paths = (
{
closed = 1;
nodes = (
"264 0 LINE",
"414 0 LINE",
"628 700 LINE",
"534 700 LINE",
"349 90 LINE",
"334 90 LINE",
"147 700 LINE",
"51 700 LINE"
);
}
);
};
layerId = "3E7589AA-8194-470F-8E2F-13C1C581BE24";
name = Regular;
paths = (
{
closed = 1;
nodes = (
"81 290 LINE SMOOTH",
"81 84 OFFCURVE",
"171 -12 OFFCURVE",
"343 -12 CURVE SMOOTH",
"527 -12 OFFCURVE",
"605 92 OFFCURVE",
"605 290 CURVE SMOOTH",
"605 700 LINE",
"514 700 LINE",
"514 300 LINE SMOOTH",
"514 164 OFFCURVE",
"485 79 OFFCURVE",
"349 79 CURVE SMOOTH",
"218 79 OFFCURVE",
"174 164 OFFCURVE",
"174 300 CURVE SMOOTH",
"174 700 LINE",
"81 700 LINE"
);
}
);
width = 686;
},
{
anchors = (
{
name = bottom;
position = "{321, 0}";
},
{
name = ogonek;
position = "{578, 10}";
},
{
name = top;
position = "{321, 700}";
},
{
name = topright;
position = "{622, 700}";
}
);
background = {
paths = (
{
closed = 1;
nodes = (
"115 700 LINE",
"96 700 LINE",
"96 0 LINE",
"115 0 LINE"
);
},
{
closed = 1;
nodes = (
"549 700 LINE",
"530 700 LINE",
"530 0 LINE",
"549 0 LINE"
);
},
{
closed = 1;
nodes = (
"107 335 LINE",
"109 317 LINE",
"535 317 LINE",
"539 335 LINE"
);
}
);
};
layerId = "C4872ECA-A3A9-40AB-960A-1DB2202F16DE";
name = Light;
paths = (
{
closed = 1;
nodes = (
"96 270 LINE SMOOTH",
"96 77 OFFCURVE",
"170 -10 OFFCURVE",
"323 -10 CURVE SMOOTH",
"490 -10 OFFCURVE",
"547 84 OFFCURVE",
"547 270 CURVE SMOOTH",
"547 700 LINE",
"529 700 LINE",
"529 270 LINE SMOOTH",
"529 93 OFFCURVE",
"479 9 OFFCURVE",
"324 9 CURVE SMOOTH",
"179 9 OFFCURVE",
"115 93 OFFCURVE",
"115 270 CURVE SMOOTH",
"115 700 LINE",
"96 700 LINE"
);
}
);
width = 642;
}
);
leftKerningGroup = U;
leftMetricsKey = "=H*.9";
rightKerningGroup = U;
rightMetricsKey = "=H*.9";
unicode = 0055;
},
{
glyphname = V;
lastChange = "2015-11-15 11:40:08 +0000";
layers = (
{
background = {
paths = (
{
closed = 1;
nodes = (
"518 0 LINE",
"659 699 LINE",
"382 699 LINE",
"343 227 LINE",
"336 227 LINE",
"283 699 LINE",
"-1 699 LINE",
"138 0 LINE"
);
}
);
};
layerId = "BFFFD157-90D3-4B85-B99D-9A2F366F03CA";
name = Bold;
paths = (
{
closed = 1;
nodes = (
"186 0 LINE",
"562 0 LINE",
"729 700 LINE",
"483 700 LINE",
"389 230 LINE",
"374 230 LINE",
"276 700 LINE",
"20 700 LINE"
);
}
);
width = 749;
},
{
background = {
paths = (
{
closed = 1;
nodes = (
"775 90 LINE",
"766 90 LINE",
"602 680 LINE",
"494 680 LINE",
"335 90 LINE",
"326 90 LINE",
"196 700 LINE",
"100 700 LINE",
"256 0 LINE",
"400 0 LINE",
"542 535 LINE",
"548 535 LINE",
"696 0 LINE",
"840 0 LINE",
"997 700 LINE",
"903 700 LINE"
);
}
);
};
layerId = "3E7589AA-8194-470F-8E2F-13C1C581BE24";
name = Regular;
paths = (
{
closed = 1;
nodes = (
"253 0 LINE",
"403 0 LINE",
"617 700 LINE",
"523 700 LINE",
"338 90 LINE",
"323 90 LINE",
"136 700 LINE",
"40 700 LINE"
);
}
);
width = 657;
},
{
background = {
paths = (
{
closed = 1;
nodes = (
"699 18 LINE",
"694 18 LINE",
"511 700 LINE",
"480 700 LINE",
"296 18 LINE",
"290 18 LINE",
"116 700 LINE",
"95 700 LINE",
"275 0 LINE",
"311 0 LINE",
"493 682 LINE",
"498 682 LINE",
"681 0 LINE",
"711 0 LINE",
"891 700 LINE",
"871 700 LINE"
);
}
);
};
layerId = "C4872ECA-A3A9-40AB-960A-1DB2202F16DE";
name = Light;
paths = (
{
closed = 1;
nodes = (
"278 0 LINE",
"314 0 LINE",
"548 700 LINE",
"528 700 LINE",
"299 19 LINE",
"293 19 LINE",
"66 700 LINE",
"45 700 LINE"
);
}
);
width = 593;
}
);
leftKerningGroup = V;
leftMetricsKey = A;
rightKerningGroup = V;
rightMetricsKey = A;
unicode = 0056;
},
{
glyphname = W;
lastChange = "2015-12-15 10:30:12 +0000";
layers = (
{
layerId = "BFFFD157-90D3-4B85-B99D-9A2F366F03CA";
name = Bold;
paths = (
{
closed = 1;
nodes = (
"791 230 LINE",
"776 230 LINE",
"700 690 LINE",
"421 690 LINE",
"343 230 LINE",
"328 230 LINE",
"272 700 LINE",
"20 700 LINE",
"116 0 LINE",
"484 0 LINE",
"549 355 LINE",
"556 355 LINE",
"620 0 LINE",
"997 0 LINE",
"1094 700 LINE",
"838 700 LINE"
);
}
);
width = 1114;
},
{
layerId = "3E7589AA-8194-470F-8E2F-13C1C581BE24";
name = Regular;
paths = (
{
closed = 1;
nodes = (
"718 90 LINE",
"703 90 LINE",
"542 690 LINE",
"434 690 LINE",
"278 90 LINE",
"263 90 LINE",
"136 700 LINE",
"40 700 LINE",
"196 0 LINE",
"340 0 LINE",
"482 545 LINE",
"488 545 LINE",
"636 0 LINE",
"780 0 LINE",
"937 700 LINE",
"843 700 LINE"
);
}
);
width = 977;
},
{
background = {
paths = (
{
closed = 1;
nodes = (
"235 0 LINE",
"271 0 LINE",
"488 700 LINE",
"468 700 LINE",
"258 23 LINE",
"248 23 LINE",
"46 700 LINE",
"25 700 LINE"
);
}
);
};
layerId = "C4872ECA-A3A9-40AB-960A-1DB2202F16DE";
name = Light;
paths = (
{
closed = 1;
nodes = (
"659 18 LINE",
"654 18 LINE",
"471 680 LINE",
"440 680 LINE",
"256 18 LINE",
"250 18 LINE",
"66 700 LINE",
"45 700 LINE",
"235 0 LINE",
"271 0 LINE",
"453 662 LINE",
"458 662 LINE",
"641 0 LINE",
"671 0 LINE",
"861 700 LINE",
"841 700 LINE"
);
}
);
width = 906;
}
);
leftKerningGroup = W;
leftMetricsKey = V;
rightKerningGroup = W;
rightMetricsKey = V;
unicode = 0057;
},
{
glyphname = X;
lastChange = "2015-11-15 10:32:19 +0000";
layers = (
{
background = {
paths = (
{
closed = 1;
nodes = (
"725 700 LINE",
"485 700 LINE",
"401 432 LINE",
"386 432 LINE",
"301 700 LINE",
"38 700 LINE",
"164 359 LINE",
"24 0 LINE",
"280 0 LINE",
"342 217 LINE",
"357 217 LINE",
"435 0 LINE",
"713 0 LINE",
"591 329 LINE"
);
}
);
};
layerId = "BFFFD157-90D3-4B85-B99D-9A2F366F03CA";
name = Bold;
paths = (
{
closed = 1;
nodes = (
"715 700 LINE",
"475 700 LINE",
"398 462 LINE",
"383 462 LINE",
"291 700 LINE",
"41 700 LINE",
"171 334 LINE",
"20 0 LINE",
"270 0 LINE",
"352 198 LINE",
"367 198 LINE",
"445 0 LINE",
"713 0 LINE",
"569 351 LINE"
);
}
);
width = 735;
},
{
background = {
paths = (
{
closed = 1;
nodes = (
"559 700 LINE",
"458 700 LINE",
"323 401 LINE",
"308 401 LINE",
"162 700 LINE",
"54 700 LINE",
"236 356 LINE",
"40 0 LINE",
"146 0 LINE",
"286 272 LINE",
"301 272 LINE",
"455 0 LINE",
"569 0 LINE",
"370 328 LINE"
);
}
);
};
layerId = "3E7589AA-8194-470F-8E2F-13C1C581BE24";
name = Regular;
paths = (
{
closed = 1;
nodes = (
"559 700 LINE",
"458 700 LINE",
"319 410 LINE",
"304 410 LINE",
"162 700 LINE",
"54 700 LINE",
"241 344 LINE",
"40 0 LINE",
"146 0 LINE",
"291 265 LINE",
"306 265 LINE",
"455 0 LINE",
"569 0 LINE",
"367 335 LINE"
);
}
);
width = 609;
},
{
background = {
paths = (
{
closed = 1;
nodes = (
"301 700 LINE",
"265 700 LINE",
"31 0 LINE",
"51 0 LINE",
"280 682 LINE",
"286 682 LINE",
"513 0 LINE",
"534 0 LINE"
);
}
);
};
layerId = "C4872ECA-A3A9-40AB-960A-1DB2202F16DE";
name = Light;
paths = (
{
closed = 1;
nodes = (
"507 700 LINE",
"484 700 LINE",
"292 364 LINE",
"286 364 LINE",
"80 700 LINE",
"59 700 LINE",
"269 354 LINE",
"45 0 LINE",
"67 0 LINE",
"279 338 LINE",
"285 338 LINE",
"507 0 LINE",
"529 0 LINE",
"302 347 LINE"
);
}
);
width = 574;
}
);
leftKerningGroup = X;
leftMetricsKey = A;
rightKerningGroup = X;
rightMetricsKey = A;
unicode = 0058;
},
{
glyphname = Y;
lastChange = "2015-11-15 10:56:36 +0000";
layers = (
{
background = {
paths = (
{
closed = 1;
nodes = (
"176 0 LINE",
"532 0 LINE",
"699 700 LINE",
"473 700 LINE",
"379 210 LINE",
"364 210 LINE",
"266 700 LINE",
"10 700 LINE"
);
}
);
};
layerId = "BFFFD157-90D3-4B85-B99D-9A2F366F03CA";
name = Bold;
paths = (
{
closed = 1;
nodes = (
"262 170 LINE",
"458 170 LINE",
"679 700 LINE",
"453 700 LINE",
"379 450 LINE",
"364 450 LINE",
"276 700 LINE",
"20 700 LINE"
);
},
{
closed = 1;
nodes = (
"474 280 LINE",
"249 280 LINE",
"249 0 LINE",
"474 0 LINE"
);
}
);
width = 699;
},
{
layerId = "3E7589AA-8194-470F-8E2F-13C1C581BE24";
name = Regular;
paths = (
{
closed = 1;
nodes = (
"296 179 LINE",
"364 179 LINE",
"617 700 LINE",
"518 700 LINE",
"340 324 LINE",
"325 324 LINE",
"142 700 LINE",
"40 700 LINE"
);
},
{
closed = 1;
nodes = (
"376 280 LINE",
"283 280 LINE",
"283 0 LINE",
"376 0 LINE"
);
}
);
width = 657;
},
{
background = {
paths = (
{
closed = 1;
nodes = (
"275 0 LINE",
"311 0 LINE",
"548 700 LINE",
"528 700 LINE",
"296 18 LINE",
"290 18 LINE",
"66 700 LINE",
"45 700 LINE"
);
}
);
};
layerId = "C4872ECA-A3A9-40AB-960A-1DB2202F16DE";
name = Light;
paths = (
{
closed = 1;
nodes = (
"296 234 LINE",
"302 234 LINE",
"548 700 LINE",
"528 700 LINE",
"302 274 LINE",
"296 274 LINE",
"66 700 LINE",
"45 700 LINE"
);
},
{
closed = 1;
nodes = (
"308 250 LINE",
"289 250 LINE",
"289 0 LINE",
"308 0 LINE"
);
}
);
width = 593;
}
);
leftKerningGroup = Y;
leftMetricsKey = A;
rightKerningGroup = Y;
rightMetricsKey = A;
unicode = 0059;
},
{
glyphname = Z;
lastChange = "2015-11-15 10:29:49 +0000";
layers = (
{
layerId = "BFFFD157-90D3-4B85-B99D-9A2F366F03CA";
name = Bold;
paths = (
{
closed = 1;
nodes = (
"342 210 LINE",
"559 523 LINE",
"559 700 LINE",
"56 700 LINE",
"56 490 LINE",
"263 490 LINE",
"40 172 LINE",
"40 0 LINE",
"570 0 LINE",
"570 210 LINE"
);
}
);
width = 610;
},
{
background = {
paths = (
{
closed = 1;
nodes = (
"159 700 LINE",
"66 700 LINE",
"66 0 LINE",
"159 0 LINE"
);
},
{
closed = 1;
nodes = (
"566 700 LINE",
"473 700 LINE",
"473 0 LINE",
"566 0 LINE"
);
},
{
closed = 1;
nodes = (
"120 369 LINE",
"118 278 LINE",
"530 278 LINE",
"534 369 LINE"
);
}
);
};
layerId = "3E7589AA-8194-470F-8E2F-13C1C581BE24";
name = Regular;
paths = (
{
closed = 1;
nodes = (
"193 92 LINE",
"546 616 LINE",
"546 700 LINE",
"88 700 LINE",
"88 608 LINE",
"430 608 LINE",
"72 78 LINE",
"72 0 LINE",
"549 0 LINE",
"549 92 LINE"
);
}
);
width = 621;
},
{
background = {
paths = (
{
closed = 1;
nodes = (
"102 700 LINE",
"83 700 LINE",
"83 0 LINE",
"102 0 LINE"
);
},
{
closed = 1;
nodes = (
"536 700 LINE",
"517 700 LINE",
"517 0 LINE",
"536 0 LINE"
);
},
{
closed = 1;
nodes = (
"94 335 LINE",
"96 317 LINE",
"522 317 LINE",
"526 335 LINE"
);
}
);
};
layerId = "C4872ECA-A3A9-40AB-960A-1DB2202F16DE";
name = Light;
paths = (
{
closed = 1;
nodes = (
"110 20 LINE",
"517 682 LINE",
"517 700 LINE",
"101 700 LINE",
"101 681 LINE",
"494 681 LINE",
"85 17 LINE",
"85 0 LINE",
"522 0 LINE",
"522 20 LINE"
);
}
);
width = 607;
}
);
leftKerningGroup = Z;
leftMetricsKey = "=H*.8";
rightKerningGroup = Z;
rightMetricsKey = "=H*.8";
unicode = 005A;
},
{
glyphname = a;
lastChange = "2016-01-09 10:30:20 +0000";
layers = (
{
anchors = (
{
name = bottom;
position = "{184, 0}";
},
{
name = ogonek;
position = "{488, 0}";
},
{
name = top;
position = "{258, 490}";
}
);
background = {
paths = (
{
closed = 1;
nodes = (
"268 153 LINE SMOOTH",
"268 123 OFFCURVE",
"254 113 OFFCURVE",
"236 113 CURVE SMOOTH",
"214 113 OFFCURVE",
"205 127 OFFCURVE",
"205 143 CURVE SMOOTH",
"205 155 OFFCURVE",
"210 164 OFFCURVE",
"218 170 CURVE SMOOTH",
"233 181 OFFCURVE",
"254 182 OFFCURVE",
"275 182 CURVE",
"295 289 LINE",
"203 289 OFFCURVE",
"123 277 OFFCURVE",
"72 240 CURVE SMOOTH",
"40 216 OFFCURVE",
"21 182 OFFCURVE",
"21 133 CURVE SMOOTH",
"21 49 OFFCURVE",
"75 -8 OFFCURVE",
"184 -8 CURVE SMOOTH",
"260 -8 OFFCURVE",
"301 16 OFFCURVE",
"322 49 CURVE",
"309 57 LINE",
"336 0 LINE",
"488 0 LINE",
"488 454 LINE",
"437 484 OFFCURVE",
"354 505 OFFCURVE",
"255 505 CURVE SMOOTH",
"167 505 OFFCURVE",
"86 489 OFFCURVE",
"25 461 CURVE",
"56 298 LINE",
"90 311 OFFCURVE",
"134 322 OFFCURVE",
"194 322 CURVE SMOOTH",
"225 322 OFFCURVE",
"270 319 OFFCURVE",
"308 305 CURVE",
"268 392 LINE"
);
}
);
};
layerId = "BFFFD157-90D3-4B85-B99D-9A2F366F03CA";
name = Bold;
paths = (
{
closed = 1;
nodes = (
"268 153 LINE SMOOTH",
"268 123 OFFCURVE",
"254 113 OFFCURVE",
"236 113 CURVE SMOOTH",
"214 113 OFFCURVE",
"205 127 OFFCURVE",
"205 143 CURVE SMOOTH",
"205 155 OFFCURVE",
"210 164 OFFCURVE",
"218 170 CURVE SMOOTH",
"233 181 OFFCURVE",
"254 182 OFFCURVE",
"275 182 CURVE",
"295 289 LINE",
"203 289 OFFCURVE",
"123 277 OFFCURVE",
"72 240 CURVE SMOOTH",
"40 216 OFFCURVE",
"21 182 OFFCURVE",
"21 133 CURVE SMOOTH",
"21 49 OFFCURVE",
"75 -8 OFFCURVE",
"184 -8 CURVE SMOOTH",
"250 -8 OFFCURVE",
"288 12 OFFCURVE",
"310 44 CURVE",
"320 44 LINE",
"336 0 LINE",
"488 0 LINE",
"488 454 LINE",
"437 484 OFFCURVE",
"354 505 OFFCURVE",
"255 505 CURVE SMOOTH",
"167 505 OFFCURVE",
"86 489 OFFCURVE",
"25 461 CURVE",
"56 298 LINE",
"90 311 OFFCURVE",
"134 322 OFFCURVE",
"194 322 CURVE SMOOTH",
"225 322 OFFCURVE",
"270 319 OFFCURVE",
"308 305 CURVE",
"268 392 LINE"
);
}
);
width = 518;
},
{
anchors = (
{
name = bottom;
position = "{218, 0}";
},
{
name = ogonek;
position = "{423, 0}";
},
{
name = top;
position = "{248, 480}";
}
);
background = {
paths = (
{
closed = 1;
nodes = (
"333 176 LINE SMOOTH",
"333 119 OFFCURVE",
"309 69 OFFCURVE",
"231 69 CURVE SMOOTH",
"170 69 OFFCURVE",
"153 99 OFFCURVE",
"153 127 CURVE SMOOTH",
"153 152 OFFCURVE",
"166 169 OFFCURVE",
"183 179 CURVE SMOOTH",
"219 201 OFFCURVE",
"284 204 OFFCURVE",
"338 204 CURVE",
"338 282 LINE",
"249 282 OFFCURVE",
"193 276 OFFCURVE",
"142 251 CURVE SMOOTH",
"94 227 OFFCURVE",
"65 184 OFFCURVE",
"65 124 CURVE SMOOTH",
"65 41 OFFCURVE",
"119 -11 OFFCURVE",
"215 -11 CURVE SMOOTH",
"283 -11 OFFCURVE",
"325 14 OFFCURVE",
"352 56 CURVE",
"330 67 LINE",
"346 0 LINE",
"423 0 LINE",
"423 435 LINE",
"383 468 OFFCURVE",
"317 492 OFFCURVE",
"237 492 CURVE SMOOTH",
"172 492 OFFCURVE",
"117 476 OFFCURVE",
"72 460 CURVE",
"86 371 LINE",
"122 387 OFFCURVE",
"167 400 OFFCURVE",
"226 400 CURVE SMOOTH",
"263 400 OFFCURVE",
"312 395 OFFCURVE",
"353 361 CURVE",
"333 454 LINE"
);
}
);
};
layerId = "3E7589AA-8194-470F-8E2F-13C1C581BE24";
name = Regular;
paths = (
{
closed = 1;
nodes = (
"333 176 LINE SMOOTH",
"333 119 OFFCURVE",
"309 69 OFFCURVE",
"231 69 CURVE SMOOTH",
"170 69 OFFCURVE",
"153 99 OFFCURVE",
"153 127 CURVE SMOOTH",
"153 152 OFFCURVE",
"166 169 OFFCURVE",
"183 179 CURVE SMOOTH",
"219 201 OFFCURVE",
"284 204 OFFCURVE",
"338 204 CURVE",
"338 282 LINE",
"249 282 OFFCURVE",
"193 276 OFFCURVE",
"142 251 CURVE SMOOTH",
"94 227 OFFCURVE",
"65 185 OFFCURVE",
"65 125 CURVE SMOOTH",
"65 42 OFFCURVE",
"119 -11 OFFCURVE",
"215 -11 CURVE SMOOTH",
"277 -11 OFFCURVE",
"310 11 OFFCURVE",
"330 41 CURVE",
"338 41 LINE",
"346 0 LINE",
"423 0 LINE",
"423 435 LINE",
"383 468 OFFCURVE",
"316 492 OFFCURVE",
"232 492 CURVE SMOOTH",
"171 492 OFFCURVE",
"116 479 OFFCURVE",
"72 460 CURVE",
"86 371 LINE",
"122 388 OFFCURVE",
"166 400 OFFCURVE",
"225 400 CURVE SMOOTH",
"262 400 OFFCURVE",
"312 395 OFFCURVE",
"353 361 CURVE",
"333 454 LINE"
);
}
);
width = 496;
},
{
anchors = (
{
name = bottom;
position = "{218, 0}";
},
{
name = ogonek;
position = "{369, 0}";
},
{
name = top;
position = "{226, 471}";
}
);
background = {
paths = (
{
closed = 1;
nodes = (
"352 147 LINE SMOOTH",
"352 68 OFFCURVE",
"314 7 OFFCURVE",
"212 7 CURVE SMOOTH",
"132 7 OFFCURVE",
"97 47 OFFCURVE",
"97 105 CURVE SMOOTH",
"97 136 OFFCURVE",
"107 160 OFFCURVE",
"125 178 CURVE SMOOTH",
"166 219 OFFCURVE",
"249 224 OFFCURVE",
"355 224 CURVE",
"355 241 LINE",
"245 241 OFFCURVE",
"158 233 OFFCURVE",
"113 190 CURVE SMOOTH",
"92 169 OFFCURVE",
"80 141 OFFCURVE",
"80 105 CURVE SMOOTH",
"80 39 OFFCURVE",
"119 -10 OFFCURVE",
"212 -10 CURVE SMOOTH",
"281 -10 OFFCURVE",
"336 15 OFFCURVE",
"357 83 CURVE",
"351 91 LINE",
"354 0 LINE",
"369 0 LINE",
"369 428 LINE",
"333 460 OFFCURVE",
"291 480 OFFCURVE",
"224 480 CURVE SMOOTH",
"163 480 OFFCURVE",
"116 462 OFFCURVE",
"82 438 CURVE",
"87 423 LINE",
"123 448 OFFCURVE",
"167 463 OFFCURVE",
"224 463 CURVE SMOOTH",
"284 463 OFFCURVE",
"323 445 OFFCURVE",
"355 417 CURVE",
"352 429 LINE"
);
}
);
};
layerId = "C4872ECA-A3A9-40AB-960A-1DB2202F16DE";
name = Light;
paths = (
{
closed = 1;
nodes = (
"352 147 LINE SMOOTH",
"352 68 OFFCURVE",
"314 7 OFFCURVE",
"212 7 CURVE SMOOTH",
"132 7 OFFCURVE",
"97 47 OFFCURVE",
"97 105 CURVE SMOOTH",
"97 136 OFFCURVE",
"107 160 OFFCURVE",
"125 178 CURVE SMOOTH",
"166 219 OFFCURVE",
"249 224 OFFCURVE",
"355 224 CURVE",
"355 241 LINE",
"245 241 OFFCURVE",
"158 233 OFFCURVE",
"113 190 CURVE SMOOTH",
"92 169 OFFCURVE",
"80 141 OFFCURVE",
"80 105 CURVE SMOOTH",
"80 39 OFFCURVE",
"119 -10 OFFCURVE",
"212 -10 CURVE SMOOTH",
"283 -10 OFFCURVE",
"334 18 OFFCURVE",
"349 68 CURVE",
"352 68 LINE",
"354 0 LINE",
"369 0 LINE",
"369 428 LINE",
"333 460 OFFCURVE",
"291 480 OFFCURVE",
"224 480 CURVE SMOOTH",
"163 480 OFFCURVE",
"116 462 OFFCURVE",
"82 438 CURVE",
"87 423 LINE",
"123 448 OFFCURVE",
"167 463 OFFCURVE",
"224 463 CURVE SMOOTH",
"284 463 OFFCURVE",
"323 445 OFFCURVE",
"355 417 CURVE",
"352 429 LINE"
);
}
);
width = 456;
},
{
anchors = (
{
name = bottom;
position = "{189, 0}";
},
{
name = ogonek;
position = "{446, 0}";
},
{
name = top;
position = "{237, 485}";
}
);
associatedMasterId = "3E7589AA-8194-470F-8E2F-13C1C581BE24";
background = {
paths = (
{
closed = 1;
nodes = (
"291 164 LINE SMOOTH",
"291 129 OFFCURVE",
"272 107 OFFCURVE",
"224 107 CURVE SMOOTH",
"182 107 OFFCURVE",
"169 123 OFFCURVE",
"169 140 CURVE SMOOTH",
"169 155 OFFCURVE",
"178 165 OFFCURVE",
"191 172 CURVE SMOOTH",
"216 185 OFFCURVE",
"259 186 OFFCURVE",
"297 186 CURVE",
"306 298 LINE",
"216 294 OFFCURVE",
"148 288 OFFCURVE",
"97 255 CURVE SMOOTH",
"58 230 OFFCURVE",
"34 187 OFFCURVE",
"34 130 CURVE SMOOTH",
"34 40 OFFCURVE",
"87 -10 OFFCURVE",
"190 -10 CURVE SMOOTH",
"262 -10 OFFCURVE",
"303 15 OFFCURVE",
"327 53 CURVE",
"310 62 LINE",
"331 0 LINE",
"446 0 LINE",
"446 445 LINE",
"400 476 OFFCURVE",
"326 499 OFFCURVE",
"236 499 CURVE SMOOTH",
"160 499 OFFCURVE",
"92 483 OFFCURVE",
"39 461 CURVE",
"61 329 LINE",
"96 343 OFFCURVE",
"141 355 OFFCURVE",
"200 355 CURVE SMOOTH",
"234 355 OFFCURVE",
"281 351 OFFCURVE",
"321 327 CURVE",
"291 423 LINE"
);
}
);
};
layerId = "1FA54028-AD2E-4209-AA7B-72DF2DF16264";
name = "{155, 100}";
paths = (
{
closed = 1;
nodes = (
"291 164 LINE SMOOTH",
"291 129 OFFCURVE",
"272 107 OFFCURVE",
"224 107 CURVE SMOOTH",
"182 107 OFFCURVE",
"169 123 OFFCURVE",
"169 140 CURVE SMOOTH",
"169 155 OFFCURVE",
"178 165 OFFCURVE",
"191 172 CURVE SMOOTH",
"216 185 OFFCURVE",
"259 186 OFFCURVE",
"297 186 CURVE",
"306 298 LINE",
"216 294 OFFCURVE",
"148 288 OFFCURVE",
"97 255 CURVE SMOOTH",
"58 230 OFFCURVE",
"34 190 OFFCURVE",
"34 132 CURVE SMOOTH",
"34 47 OFFCURVE",
"83 -10 OFFCURVE",
"186 -10 CURVE SMOOTH",
"244 -10 OFFCURVE",
"287 8 OFFCURVE",
"310 42 CURVE",
"319 42 LINE",
"331 0 LINE",
"446 0 LINE",
"446 445 LINE",
"400 476 OFFCURVE",
"326 499 OFFCURVE",
"236 499 CURVE SMOOTH",
"160 499 OFFCURVE",
"92 483 OFFCURVE",
"39 461 CURVE",
"61 329 LINE",
"96 343 OFFCURVE",
"141 355 OFFCURVE",
"200 355 CURVE SMOOTH",
"234 355 OFFCURVE",
"281 351 OFFCURVE",
"321 327 CURVE",
"291 423 LINE"
);
}
);
width = 496;
}
);
leftKerningGroup = a;
rightKerningGroup = a;
rightMetricsKey = m;
unicode = 0061;
},
{
glyphname = b;
lastChange = "2015-12-28 16:18:02 +0000";
layers = (
{
background = {
paths = (
{
closed = 1;
nodes = (
"250 0 LINE",
"250 240 LINE SMOOTH",
"250 272 OFFCURVE",
"264 283 OFFCURVE",
"284 283 CURVE SMOOTH",
"295 283 OFFCURVE",
"304 280 OFFCURVE",
"310 276 CURVE",
"310 0 LINE",
"530 0 LINE",
"530 446 LINE",
"490 477 OFFCURVE",
"438 500 OFFCURVE",
"377 500 CURVE SMOOTH",
"302 500 OFFCURVE",
"273 465 OFFCURVE",
"261 427 CURVE",
"250 427 LINE",
"250 800 LINE",
"30 800 LINE",
"30 0 LINE"
);
}
);
};
layerId = "BFFFD157-90D3-4B85-B99D-9A2F366F03CA";
name = Bold;
paths = (
{
closed = 1;
nodes = (
"250 427 LINE",
"250 800 LINE",
"30 800 LINE",
"30 27 LINE",
"251 121 LINE",
"251 244 LINE SMOOTH",
"251 287 OFFCURVE",
"265 312 OFFCURVE",
"297 312 CURVE SMOOTH",
"330 312 OFFCURVE",
"346 287 OFFCURVE",
"346 236 CURVE SMOOTH",
"346 185 OFFCURVE",
"327 159 OFFCURVE",
"289 159 CURVE SMOOTH",
"271 159 OFFCURVE",
"254 165 OFFCURVE",
"243 179 CURVE",
"30 27 LINE",
"97 4 OFFCURVE",
"171 -11 OFFCURVE",
"261 -11 CURVE SMOOTH",
"486 -11 OFFCURVE",
"559 91 OFFCURVE",
"559 272 CURVE SMOOTH",
"559 429 OFFCURVE",
"501 502 OFFCURVE",
"385 502 CURVE SMOOTH",
"313 502 OFFCURVE",
"277 473 OFFCURVE",
"261 427 CURVE"
);
}
);
width = 577;
},
{
background = {
paths = (
{
closed = 1;
nodes = (
"147 409 LINE",
"139 480 LINE",
"77 480 LINE",
"77 -200 LINE",
"167 -200 LINE",
"167 254 LINE SMOOTH",
"167 367 OFFCURVE",
"212 400 OFFCURVE",
"281 400 CURVE SMOOTH",
"355 400 OFFCURVE",
"396 361 OFFCURVE",
"396 251 CURVE SMOOTH",
"396 134 OFFCURVE",
"350 77 OFFCURVE",
"252 77 CURVE SMOOTH",
"220 77 OFFCURVE",
"188 83 OFFCURVE",
"152 106 CURVE",
"132 37 LINE",
"167 4 OFFCURVE",
"210 -9 OFFCURVE",
"262 -9 CURVE SMOOTH",
"410 -9 OFFCURVE",
"486 95 OFFCURVE",
"486 261 CURVE SMOOTH",
"486 402 OFFCURVE",
"434 489 OFFCURVE",
"297 489 CURVE SMOOTH",
"224 489 OFFCURVE",
"173 467 OFFCURVE",
"155 409 CURVE"
);
}
);
};
layerId = "3E7589AA-8194-470F-8E2F-13C1C581BE24";
name = Regular;
paths = (
{
closed = 1;
nodes = (
"167 429 LINE",
"167 800 LINE",
"77 800 LINE",
"77 19 LINE",
"167 28 LINE",
"167 254 LINE SMOOTH",
"167 367 OFFCURVE",
"212 400 OFFCURVE",
"281 400 CURVE SMOOTH",
"355 400 OFFCURVE",
"396 361 OFFCURVE",
"396 251 CURVE SMOOTH",
"396 134 OFFCURVE",
"351 77 OFFCURVE",
"251 77 CURVE SMOOTH",
"222 77 OFFCURVE",
"184 82 OFFCURVE",
"147 98 CURVE",
"77 19 LINE",
"127 0 OFFCURVE",
"185 -11 OFFCURVE",
"239 -11 CURVE SMOOTH",
"403 -11 OFFCURVE",
"486 94 OFFCURVE",
"486 261 CURVE SMOOTH",
"486 403 OFFCURVE",
"430 489 OFFCURVE",
"302 489 CURVE SMOOTH",
"240 489 OFFCURVE",
"195 468 OFFCURVE",
"175 429 CURVE"
);
}
);
width = 536;
},
{
background = {
paths = (
{
closed = 1;
nodes = (
"117 0 LINE",
"117 290 LINE SMOOTH",
"117 416 OFFCURVE",
"178 463 OFFCURVE",
"262 463 CURVE SMOOTH",
"322 463 OFFCURVE",
"365 436 OFFCURVE",
"394 406 CURVE",
"394 0 LINE",
"411 0 LINE",
"411 414 LINE",
"377 452 OFFCURVE",
"333 479 OFFCURVE",
"262 479 CURVE SMOOTH",
"168 479 OFFCURVE",
"133 430 OFFCURVE",
"121 384 CURVE",
"117 383 LINE",
"117 800 LINE",
"100 800 LINE",
"100 0 LINE"
);
}
);
};
layerId = "C4872ECA-A3A9-40AB-960A-1DB2202F16DE";
name = Light;
paths = (
{
closed = 1;
nodes = (
"117 383 LINE",
"117 800 LINE",
"100 800 LINE",
"100 20 LINE",
"117 15 LINE",
"117 290 LINE SMOOTH",
"117 410 OFFCURVE",
"170 464 OFFCURVE",
"260 464 CURVE SMOOTH",
"364 464 OFFCURVE",
"421 391 OFFCURVE",
"421 252 CURVE SMOOTH",
"421 91 OFFCURVE",
"352 6 OFFCURVE",
"230 6 CURVE SMOOTH",
"194 6 OFFCURVE",
"151 14 OFFCURVE",
"109 35 CURVE",
"100 20 LINE",
"144 -2 OFFCURVE",
"188 -10 OFFCURVE",
"230 -10 CURVE SMOOTH",
"362 -10 OFFCURVE",
"438 79 OFFCURVE",
"438 252 CURVE SMOOTH",
"438 401 OFFCURVE",
"380 480 OFFCURVE",
"260 480 CURVE SMOOTH",
"185 480 OFFCURVE",
"141 451 OFFCURVE",
"121 384 CURVE"
);
}
);
width = 501;
}
);
leftKerningGroup = h;
leftMetricsKey = h;
rightKerningGroup = o;
rightMetricsKey = o;
unicode = 0062;
},
{
glyphname = c;
lastChange = "2015-12-28 16:34:26 +0000";
layers = (
{
background = {
paths = (
{
closed = 1;
nodes = (
"442 -15 OFFCURVE",
"541 77 OFFCURVE",
"541 248 CURVE SMOOTH",
"541 412 OFFCURVE",
"449 505 OFFCURVE",
"285 505 CURVE SMOOTH",
"120 505 OFFCURVE",
"18 410 OFFCURVE",
"18 239 CURVE SMOOTH",
"18 75 OFFCURVE",
"112 -15 OFFCURVE",
"275 -15 CURVE SMOOTH"
);
},
{
closed = 1;
nodes = (
"246 181 OFFCURVE",
"229 200 OFFCURVE",
"229 240 CURVE SMOOTH",
"229 276 OFFCURVE",
"245 293 OFFCURVE",
"278 293 CURVE SMOOTH",
"313 293 OFFCURVE",
"330 275 OFFCURVE",
"330 235 CURVE SMOOTH",
"330 199 OFFCURVE",
"314 181 OFFCURVE",
"281 181 CURVE SMOOTH"
);
}
);
};
layerId = "BFFFD157-90D3-4B85-B99D-9A2F366F03CA";
name = Bold;
paths = (
{
closed = 1;
nodes = (
"384 198 LINE",
"364 188 OFFCURVE",
"336 183 OFFCURVE",
"308 183 CURVE SMOOTH",
"252 183 OFFCURVE",
"229 201 OFFCURVE",
"229 245 CURVE SMOOTH",
"229 288 OFFCURVE",
"252 304 OFFCURVE",
"306 304 CURVE SMOOTH",
"335 304 OFFCURVE",
"363 299 OFFCURVE",
"380 294 CURVE",
"406 484 LINE",
"374 496 OFFCURVE",
"325 505 OFFCURVE",
"275 505 CURVE SMOOTH",
"113 505 OFFCURVE",
"18 418 OFFCURVE",
"18 245 CURVE SMOOTH",
"18 81 OFFCURVE",
"109 -15 OFFCURVE",
"268 -15 CURVE SMOOTH",
"321 -15 OFFCURVE",
"377 -5 OFFCURVE",
"409 9 CURVE"
);
}
);
width = 422;
},
{
background = {
paths = (
{
closed = 1;
nodes = (
"385 267 LINE",
"107 267 LINE",
"112 185 LINE",
"441 185 LINE",
"448 216 OFFCURVE",
"453 247 OFFCURVE",
"453 285 CURVE SMOOTH",
"453 401 OFFCURVE",
"407 491 OFFCURVE",
"263 491 CURVE SMOOTH",
"121 491 OFFCURVE",
"50 398 OFFCURVE",
"50 236 CURVE SMOOTH",
"50 59 OFFCURVE",
"133 -12 OFFCURVE",
"281 -12 CURVE SMOOTH",
"346 -12 OFFCURVE",
"399 2 OFFCURVE",
"450 27 CURVE",
"438 109 LINE",
"396 89 OFFCURVE",
"338 75 OFFCURVE",
"284 75 CURVE SMOOTH",
"201 75 OFFCURVE",
"140 103 OFFCURVE",
"140 243 CURVE SMOOTH",
"140 343 OFFCURVE",
"172 404 OFFCURVE",
"258 404 CURVE SMOOTH",
"333 404 OFFCURVE",
"363 360 OFFCURVE",
"363 293 CURVE SMOOTH",
"363 281 OFFCURVE",
"362 264 OFFCURVE",
"359 250 CURVE"
);
}
);
};
layerId = "3E7589AA-8194-470F-8E2F-13C1C581BE24";
name = Regular;
paths = (
{
closed = 1;
nodes = (
"392 98 LINE",
"359 83 OFFCURVE",
"313 76 OFFCURVE",
"278 76 CURVE SMOOTH",
"189 76 OFFCURVE",
"140 122 OFFCURVE",
"140 243 CURVE SMOOTH",
"140 354 OFFCURVE",
"182 401 OFFCURVE",
"274 401 CURVE SMOOTH",
"312 401 OFFCURVE",
"351 393 OFFCURVE",
"384 379 CURVE",
"401 463 LINE",
"368 479 OFFCURVE",
"322 489 OFFCURVE",
"273 489 CURVE SMOOTH",
"124 489 OFFCURVE",
"50 401 OFFCURVE",
"50 237 CURVE SMOOTH",
"50 73 OFFCURVE",
"127 -11 OFFCURVE",
"274 -11 CURVE SMOOTH",
"323 -11 OFFCURVE",
"366 -2 OFFCURVE",
"403 14 CURVE"
);
}
);
width = 443;
},
{
background = {
paths = (
{
closed = 1;
nodes = (
"387 247 LINE",
"73 247 LINE",
"75 230 LINE",
"396 230 LINE",
"400 254 OFFCURVE",
"402 284 OFFCURVE",
"402 304 CURVE SMOOTH",
"402 389 OFFCURVE",
"363 479 OFFCURVE",
"242 479 CURVE SMOOTH",
"130 479 OFFCURVE",
"63 403 OFFCURVE",
"63 230 CURVE SMOOTH",
"63 69 OFFCURVE",
"122 -11 OFFCURVE",
"264 -11 CURVE SMOOTH",
"310 -11 OFFCURVE",
"347 -3 OFFCURVE",
"390 19 CURVE",
"383 35 LINE",
"344 13 OFFCURVE",
"304 5 OFFCURVE",
"263 5 CURVE SMOOTH",
"133 5 OFFCURVE",
"80 78 OFFCURVE",
"80 230 CURVE SMOOTH",
"80 392 OFFCURVE",
"139 463 OFFCURVE",
"242 463 CURVE SMOOTH",
"354 463 OFFCURVE",
"385 375 OFFCURVE",
"385 300 CURVE SMOOTH",
"385 279 OFFCURVE",
"384 259 OFFCURVE",
"381 239 CURVE"
);
}
);
};
layerId = "C4872ECA-A3A9-40AB-960A-1DB2202F16DE";
name = Light;
paths = (
{
closed = 1;
nodes = (
"364 43 LINE",
"330 17 OFFCURVE",
"290 6 OFFCURVE",
"248 6 CURVE SMOOTH",
"133 6 OFFCURVE",
"80 79 OFFCURVE",
"80 232 CURVE SMOOTH",
"80 379 OFFCURVE",
"122 464 OFFCURVE",
"248 464 CURVE SMOOTH",
"297 464 OFFCURVE",
"329 451 OFFCURVE",
"359 421 CURVE",
"367 435 LINE",
"340 464 OFFCURVE",
"301 480 OFFCURVE",
"248 480 CURVE SMOOTH",
"112 480 OFFCURVE",
"63 391 OFFCURVE",
"63 232 CURVE SMOOTH",
"63 69 OFFCURVE",
"117 -10 OFFCURVE",
"249 -10 CURVE SMOOTH",
"296 -10 OFFCURVE",
"338 3 OFFCURVE",
"370 28 CURVE"
);
}
);
width = 414;
}
);
leftKerningGroup = o;
leftMetricsKey = o;
rightKerningGroup = c;
rightMetricsKey = "=e*.8";
unicode = 0063;
},
{
glyphname = d;
lastChange = "2015-12-28 16:16:52 +0000";
layers = (
{
background = {
paths = (
{
closed = 1;
nodes = (
"327 153 LINE SMOOTH",
"327 123 OFFCURVE",
"313 113 OFFCURVE",
"295 113 CURVE SMOOTH",
"273 113 OFFCURVE",
"264 127 OFFCURVE",
"264 143 CURVE SMOOTH",
"264 155 OFFCURVE",
"269 164 OFFCURVE",
"277 170 CURVE SMOOTH",
"292 181 OFFCURVE",
"313 182 OFFCURVE",
"334 182 CURVE",
"354 289 LINE",
"262 289 OFFCURVE",
"182 277 OFFCURVE",
"131 240 CURVE SMOOTH",
"99 216 OFFCURVE",
"80 182 OFFCURVE",
"80 133 CURVE SMOOTH",
"80 49 OFFCURVE",
"134 -8 OFFCURVE",
"243 -8 CURVE SMOOTH",
"309 -8 OFFCURVE",
"347 12 OFFCURVE",
"369 44 CURVE",
"379 44 LINE",
"395 0 LINE",
"547 0 LINE",
"547 454 LINE",
"496 484 OFFCURVE",
"413 505 OFFCURVE",
"314 505 CURVE SMOOTH",
"226 505 OFFCURVE",
"145 489 OFFCURVE",
"84 461 CURVE",
"115 298 LINE",
"149 311 OFFCURVE",
"193 322 OFFCURVE",
"253 322 CURVE SMOOTH",
"284 322 OFFCURVE",
"329 319 OFFCURVE",
"367 305 CURVE",
"327 392 LINE"
);
}
);
};
layerId = "BFFFD157-90D3-4B85-B99D-9A2F366F03CA";
name = Bold;
paths = (
{
closed = 1;
nodes = (
"547 800 LINE",
"326 800 LINE",
"326 222 LINE SMOOTH",
"326 187 OFFCURVE",
"315 162 OFFCURVE",
"283 162 CURVE SMOOTH",
"250 162 OFFCURVE",
"231 187 OFFCURVE",
"231 238 CURVE SMOOTH",
"231 289 OFFCURVE",
"250 315 OFFCURVE",
"288 315 CURVE SMOOTH",
"306 315 OFFCURVE",
"323 309 OFFCURVE",
"334 295 CURVE",
"366 457 LINE",
"335 485 OFFCURVE",
"293 503 OFFCURVE",
"233 503 CURVE SMOOTH",
"91 503 OFFCURVE",
"18 403 OFFCURVE",
"18 242 CURVE SMOOTH",
"18 86 OFFCURVE",
"84 -8 OFFCURVE",
"231 -8 CURVE SMOOTH",
"307 -8 OFFCURVE",
"344 17 OFFCURVE",
"366 54 CURVE",
"376 54 LINE",
"394 0 LINE",
"547 0 LINE"
);
}
);
width = 577;
},
{
background = {
paths = (
{
closed = 1;
nodes = (
"369 44 LINE",
"369 -200 LINE",
"459 -200 LINE",
"459 480 LINE",
"397 480 LINE",
"369 382 LINE",
"369 211 LINE SMOOTH",
"369 108 OFFCURVE",
"324 74 OFFCURVE",
"261 74 CURVE SMOOTH",
"181 74 OFFCURVE",
"140 126 OFFCURVE",
"140 236 CURVE SMOOTH",
"140 346 OFFCURVE",
"183 401 OFFCURVE",
"267 401 CURVE SMOOTH",
"313 401 OFFCURVE",
"352 384 OFFCURVE",
"377 348 CURVE",
"394 419 LINE",
"369 460 OFFCURVE",
"324 489 OFFCURVE",
"252 489 CURVE SMOOTH",
"119 489 OFFCURVE",
"50 395 OFFCURVE",
"50 231 CURVE SMOOTH",
"50 86 OFFCURVE",
"108 -11 OFFCURVE",
"242 -11 CURVE SMOOTH",
"301 -11 OFFCURVE",
"337 8 OFFCURVE",
"359 44 CURVE"
);
}
);
};
layerId = "3E7589AA-8194-470F-8E2F-13C1C581BE24";
name = Regular;
paths = (
{
closed = 1;
nodes = (
"459 800 LINE",
"369 800 LINE",
"369 211 LINE SMOOTH",
"369 108 OFFCURVE",
"321 74 OFFCURVE",
"258 74 CURVE SMOOTH",
"178 74 OFFCURVE",
"140 126 OFFCURVE",
"140 236 CURVE SMOOTH",
"140 346 OFFCURVE",
"183 401 OFFCURVE",
"271 401 CURVE SMOOTH",
"313 401 OFFCURVE",
"352 388 OFFCURVE",
"378 358 CURVE",
"397 444 LINE",
"371 470 OFFCURVE",
"327 489 OFFCURVE",
"264 489 CURVE SMOOTH",
"122 489 OFFCURVE",
"50 392 OFFCURVE",
"50 228 CURVE SMOOTH",
"50 83 OFFCURVE",
"100 -11 OFFCURVE",
"233 -11 CURVE SMOOTH",
"299 -11 OFFCURVE",
"345 12 OFFCURVE",
"365 57 CURVE",
"373 57 LINE",
"382 0 LINE",
"459 0 LINE"
);
}
);
width = 536;
},
{
background = {
paths = (
{
closed = 1;
nodes = (
"383 87 LINE",
"383 -230 LINE",
"400 -230 LINE",
"400 450 LINE",
"383 455 LINE",
"383 180 LINE SMOOTH",
"383 60 OFFCURVE",
"330 6 OFFCURVE",
"241 6 CURVE SMOOTH",
"137 6 OFFCURVE",
"80 79 OFFCURVE",
"80 218 CURVE SMOOTH",
"80 379 OFFCURVE",
"149 464 OFFCURVE",
"270 464 CURVE SMOOTH",
"306 464 OFFCURVE",
"349 456 OFFCURVE",
"391 435 CURVE",
"400 450 LINE",
"356 472 OFFCURVE",
"312 480 OFFCURVE",
"270 480 CURVE SMOOTH",
"139 480 OFFCURVE",
"63 391 OFFCURVE",
"63 218 CURVE SMOOTH",
"63 69 OFFCURVE",
"121 -10 OFFCURVE",
"241 -10 CURVE SMOOTH",
"315 -10 OFFCURVE",
"359 19 OFFCURVE",
"379 86 CURVE"
);
}
);
};
layerId = "C4872ECA-A3A9-40AB-960A-1DB2202F16DE";
name = Light;
paths = (
{
closed = 1;
nodes = (
"400 800 LINE",
"383 800 LINE",
"383 176 LINE SMOOTH",
"383 65 OFFCURVE",
"330 6 OFFCURVE",
"239 6 CURVE SMOOTH",
"137 6 OFFCURVE",
"80 76 OFFCURVE",
"80 225 CURVE SMOOTH",
"80 376 OFFCURVE",
"138 464 OFFCURVE",
"256 464 CURVE SMOOTH",
"295 464 OFFCURVE",
"346 454 OFFCURVE",
"391 409 CURVE",
"395 426 LINE",
"353 469 OFFCURVE",
"301 480 OFFCURVE",
"256 480 CURVE SMOOTH",
"128 480 OFFCURVE",
"63 388 OFFCURVE",
"63 225 CURVE SMOOTH",
"63 66 OFFCURVE",
"121 -10 OFFCURVE",
"239 -10 CURVE SMOOTH",
"315 -10 OFFCURVE",
"362 23 OFFCURVE",
"379 87 CURVE",
"383 87 LINE",
"385 0 LINE",
"400 0 LINE"
);
}
);
width = 500;
}
);
leftKerningGroup = o;
leftMetricsKey = o;
rightKerningGroup = d;
rightMetricsKey = "=|m";
unicode = 0064;
},
{
glyphname = e;
lastChange = "2016-01-02 18:09:35 +0000";
layers = (
{
anchors = (
{
name = bottom;
position = "{282, 0}";
},
{
name = ogonek;
position = "{488, 19}";
},
{
name = top;
position = "{272, 490}";
}
);
background = {
paths = (
{
closed = 1;
nodes = (
"245 313 LINE SMOOTH",
"245 343 OFFCURVE",
"259 353 OFFCURVE",
"277 353 CURVE SMOOTH",
"299 353 OFFCURVE",
"308 339 OFFCURVE",
"308 323 CURVE SMOOTH",
"308 311 OFFCURVE",
"303 302 OFFCURVE",
"295 296 CURVE SMOOTH",
"280 285 OFFCURVE",
"259 284 OFFCURVE",
"238 284 CURVE",
"218 177 LINE",
"310 177 OFFCURVE",
"390 189 OFFCURVE",
"441 226 CURVE SMOOTH",
"473 250 OFFCURVE",
"492 284 OFFCURVE",
"492 333 CURVE SMOOTH",
"492 417 OFFCURVE",
"438 474 OFFCURVE",
"329 474 CURVE SMOOTH",
"263 474 OFFCURVE",
"225 454 OFFCURVE",
"203 422 CURVE",
"193 422 LINE",
"177 466 LINE",
"25 466 LINE",
"25 12 LINE",
"76 -18 OFFCURVE",
"159 -39 OFFCURVE",
"258 -39 CURVE SMOOTH",
"346 -39 OFFCURVE",
"427 -23 OFFCURVE",
"488 5 CURVE",
"457 168 LINE",
"423 155 OFFCURVE",
"379 144 OFFCURVE",
"319 144 CURVE SMOOTH",
"288 144 OFFCURVE",
"243 147 OFFCURVE",
"205 161 CURVE",
"245 74 LINE"
);
}
);
};
layerId = "BFFFD157-90D3-4B85-B99D-9A2F366F03CA";
name = Bold;
paths = (
{
closed = 1;
nodes = (
"355 285 LINE",
"122 285 LINE",
"127 177 LINE",
"487 177 LINE",
"495 215 OFFCURVE",
"499 250 OFFCURVE",
"499 288 CURVE SMOOTH",
"499 424 OFFCURVE",
"434 505 OFFCURVE",
"275 505 CURVE SMOOTH",
"106 505 OFFCURVE",
"18 409 OFFCURVE",
"18 243 CURVE SMOOTH",
"18 61 OFFCURVE",
"128 -14 OFFCURVE",
"298 -14 CURVE SMOOTH",
"357 -14 OFFCURVE",
"431 -5 OFFCURVE",
"488 19 CURVE",
"466 157 LINE",
"421 145 OFFCURVE",
"375 140 OFFCURVE",
"340 140 CURVE SMOOTH",
"245 140 OFFCURVE",
"233 179 OFFCURVE",
"233 252 CURVE SMOOTH",
"233 327 OFFCURVE",
"240 355 OFFCURVE",
"273 355 CURVE SMOOTH",
"296 355 OFFCURVE",
"307 341 OFFCURVE",
"307 302 CURVE SMOOTH",
"307 291 OFFCURVE",
"306 279 OFFCURVE",
"303 269 CURVE"
);
}
);
width = 515;
},
{
anchors = (
{
name = bottom;
position = "{272, 0}";
},
{
name = ogonek;
position = "{450, 27}";
},
{
name = top;
position = "{262, 480}";
}
);
background = {
paths = (
{
closed = 1;
nodes = (
"379 -12 OFFCURVE",
"456 79 OFFCURVE",
"456 239 CURVE SMOOTH",
"456 404 OFFCURVE",
"383 492 OFFCURVE",
"246 492 CURVE SMOOTH",
"108 492 OFFCURVE",
"30 404 OFFCURVE",
"30 239 CURVE SMOOTH",
"30 79 OFFCURVE",
"104 -12 OFFCURVE",
"242 -12 CURVE SMOOTH"
);
},
{
closed = 1;
nodes = (
"165 72 OFFCURVE",
"119 123 OFFCURVE",
"119 240 CURVE SMOOTH",
"119 357 OFFCURVE",
"162 403 OFFCURVE",
"242 403 CURVE SMOOTH",
"323 403 OFFCURVE",
"367 354 OFFCURVE",
"367 240 CURVE SMOOTH",
"367 119 OFFCURVE",
"326 72 OFFCURVE",
"246 72 CURVE SMOOTH"
);
}
);
};
layerId = "3E7589AA-8194-470F-8E2F-13C1C581BE24";
name = Regular;
paths = (
{
closed = 1;
nodes = (
"385 267 LINE",
"107 267 LINE",
"112 187 LINE",
"441 187 LINE",
"448 218 OFFCURVE",
"453 247 OFFCURVE",
"453 285 CURVE SMOOTH",
"453 401 OFFCURVE",
"407 491 OFFCURVE",
"263 491 CURVE SMOOTH",
"121 491 OFFCURVE",
"50 398 OFFCURVE",
"50 236 CURVE SMOOTH",
"50 59 OFFCURVE",
"133 -12 OFFCURVE",
"281 -12 CURVE SMOOTH",
"346 -12 OFFCURVE",
"399 2 OFFCURVE",
"450 27 CURVE",
"438 107 LINE",
"396 87 OFFCURVE",
"338 73 OFFCURVE",
"284 73 CURVE SMOOTH",
"201 73 OFFCURVE",
"138 103 OFFCURVE",
"138 243 CURVE SMOOTH",
"138 343 OFFCURVE",
"172 405 OFFCURVE",
"258 405 CURVE SMOOTH",
"333 405 OFFCURVE",
"363 360 OFFCURVE",
"363 293 CURVE SMOOTH",
"363 281 OFFCURVE",
"362 264 OFFCURVE",
"359 250 CURVE"
);
}
);
width = 503;
},
{
anchors = (
{
name = bottom;
position = "{259, 0}";
},
{
name = ogonek;
position = "{390, 20}";
},
{
name = top;
position = "{239, 470}";
}
);
layerId = "C4872ECA-A3A9-40AB-960A-1DB2202F16DE";
name = Light;
paths = (
{
closed = 1;
nodes = (
"387 246 LINE",
"73 246 LINE",
"75 230 LINE",
"396 230 LINE",
"400 254 OFFCURVE",
"402 284 OFFCURVE",
"402 304 CURVE SMOOTH",
"402 389 OFFCURVE",
"363 479 OFFCURVE",
"242 479 CURVE SMOOTH",
"130 479 OFFCURVE",
"63 403 OFFCURVE",
"63 230 CURVE SMOOTH",
"63 69 OFFCURVE",
"122 -10 OFFCURVE",
"264 -10 CURVE SMOOTH",
"310 -10 OFFCURVE",
"347 -2 OFFCURVE",
"390 20 CURVE",
"383 36 LINE",
"344 14 OFFCURVE",
"304 6 OFFCURVE",
"263 6 CURVE SMOOTH",
"133 6 OFFCURVE",
"80 78 OFFCURVE",
"80 230 CURVE SMOOTH",
"80 392 OFFCURVE",
"139 463 OFFCURVE",
"242 463 CURVE SMOOTH",
"354 463 OFFCURVE",
"385 375 OFFCURVE",
"385 300 CURVE SMOOTH",
"385 279 OFFCURVE",
"384 259 OFFCURVE",
"381 239 CURVE"
);
}
);
width = 457;
},
{
anchors = (
{
name = bottom;
position = "{280, 0}";
},
{
name = ogonek;
position = "{469, 23}";
},
{
name = top;
position = "{266, 485}";
}
);
associatedMasterId = "3E7589AA-8194-470F-8E2F-13C1C581BE24";
background = {
paths = (
{
closed = 1;
nodes = (
"379 -12 OFFCURVE",
"456 79 OFFCURVE",
"456 239 CURVE SMOOTH",
"456 404 OFFCURVE",
"383 492 OFFCURVE",
"246 492 CURVE SMOOTH",
"108 492 OFFCURVE",
"30 404 OFFCURVE",
"30 239 CURVE SMOOTH",
"30 79 OFFCURVE",
"104 -12 OFFCURVE",
"242 -12 CURVE SMOOTH"
);
},
{
closed = 1;
nodes = (
"165 72 OFFCURVE",
"119 123 OFFCURVE",
"119 240 CURVE SMOOTH",
"119 357 OFFCURVE",
"162 403 OFFCURVE",
"242 403 CURVE SMOOTH",
"323 403 OFFCURVE",
"367 354 OFFCURVE",
"367 240 CURVE SMOOTH",
"367 119 OFFCURVE",
"326 72 OFFCURVE",
"246 72 CURVE SMOOTH"
);
}
);
};
layerId = "507A9F49-2F7F-4BBE-A4B9-946874FBC2DE";
name = "{155, 100}";
paths = (
{
closed = 1;
nodes = (
"370 286 LINE",
"115 286 LINE",
"120 183 LINE",
"464 183 LINE",
"471 216 OFFCURVE",
"476 251 OFFCURVE",
"476 288 CURVE SMOOTH",
"476 413 OFFCURVE",
"421 498 OFFCURVE",
"269 498 CURVE SMOOTH",
"114 498 OFFCURVE",
"34 404 OFFCURVE",
"34 240 CURVE SMOOTH",
"34 60 OFFCURVE",
"131 -13 OFFCURVE",
"290 -13 CURVE SMOOTH",
"352 -13 OFFCURVE",
"415 -2 OFFCURVE",
"469 23 CURVE",
"452 141 LINE",
"409 125 OFFCURVE",
"357 116 OFFCURVE",
"312 116 CURVE SMOOTH",
"227 116 OFFCURVE",
"186 141 OFFCURVE",
"186 248 CURVE SMOOTH",
"186 333 OFFCURVE",
"207 371 OFFCURVE",
"268 371 CURVE SMOOTH",
"318 371 OFFCURVE",
"339 347 OFFCURVE",
"339 298 CURVE SMOOTH",
"339 286 OFFCURVE",
"338 272 OFFCURVE",
"335 260 CURVE"
);
}
);
width = 507;
}
);
leftKerningGroup = o;
leftMetricsKey = o;
rightKerningGroup = e;
unicode = 0065;
},
{
glyphname = f;
lastChange = "2015-12-28 12:37:16 +0000";
layers = (
{
background = {
paths = (
{
closed = 1;
nodes = (
"15 490 LINE",
"3 295 LINE",
"408 295 LINE",
"420 490 LINE"
);
}
);
};
layerId = "BFFFD157-90D3-4B85-B99D-9A2F366F03CA";
name = Bold;
paths = (
{
closed = 1;
nodes = (
"293 578 OFFCURVE",
"304 610 OFFCURVE",
"354 610 CURVE SMOOTH",
"371 610 OFFCURVE",
"391 606 OFFCURVE",
"409 597 CURVE",
"428 789 LINE",
"393 805 OFFCURVE",
"347 814 OFFCURVE",
"301 814 CURVE SMOOTH",
"160 814 OFFCURVE",
"73 733 OFFCURVE",
"73 560 CURVE SMOOTH",
"73 0 LINE",
"293 0 LINE",
"293 527 LINE SMOOTH"
);
},
{
closed = 1;
nodes = (
"25 490 LINE",
"15 315 LINE",
"169 295 LINE",
"384 295 LINE",
"384 490 LINE"
);
}
);
width = 395;
},
{
background = {
paths = (
{
closed = 1;
nodes = (
"29 480 LINE",
"20 392 LINE",
"356 392 LINE",
"365 480 LINE"
);
}
);
};
layerId = "3E7589AA-8194-470F-8E2F-13C1C581BE24";
name = Regular;
paths = (
{
closed = 1;
nodes = (
"212 670 OFFCURVE",
"226 719 OFFCURVE",
"298 719 CURVE SMOOTH",
"316 719 OFFCURVE",
"338 716 OFFCURVE",
"364 704 CURVE",
"381 788 LINE",
"357 801 OFFCURVE",
"328 807 OFFCURVE",
"293 807 CURVE SMOOTH",
"167 807 OFFCURVE",
"122 726 OFFCURVE",
"122 602 CURVE SMOOTH",
"122 0 LINE",
"212 0 LINE",
"212 598 LINE SMOOTH"
);
},
{
closed = 1;
nodes = (
"29 480 LINE",
"21 402 LINE",
"155 392 LINE",
"330 392 LINE",
"330 480 LINE"
);
}
);
width = 363;
},
{
background = {
paths = (
{
closed = 1;
nodes = (
"29 470 LINE",
"27 453 LINE",
"316 453 LINE",
"318 470 LINE"
);
}
);
};
layerId = "C4872ECA-A3A9-40AB-960A-1DB2202F16DE";
name = Light;
paths = (
{
closed = 1;
nodes = (
"143 724 OFFCURVE",
"161 787 OFFCURVE",
"249 787 CURVE SMOOTH",
"278 787 OFFCURVE",
"305 779 OFFCURVE",
"326 763 CURVE",
"332 777 LINE",
"310 793 OFFCURVE",
"286 803 OFFCURVE",
"248 803 CURVE SMOOTH",
"152 803 OFFCURVE",
"126 733 OFFCURVE",
"126 642 CURVE SMOOTH",
"126 0 LINE",
"143 0 LINE",
"143 641 LINE SMOOTH"
);
},
{
closed = 1;
nodes = (
"29 470 LINE",
"27 455 LINE",
"133 453 LINE",
"285 453 LINE",
"285 470 LINE"
);
}
);
width = 322;
}
);
leftKerningGroup = f;
leftMetricsKey = t;
rightKerningGroup = f;
unicode = 0066;
},
{
glyphname = g;
lastChange = "2015-12-28 16:34:33 +0000";
layers = (
{
layerId = "BFFFD157-90D3-4B85-B99D-9A2F366F03CA";
name = Bold;
paths = (
{
closed = 1;
nodes = (
"447 -211 OFFCURVE",
"535 -141 OFFCURVE",
"535 -12 CURVE SMOOTH",
"535 34 OFFCURVE",
"524 71 OFFCURVE",
"500 110 CURVE",
"195 110 LINE",
"193 115 OFFCURVE",
"191 122 OFFCURVE",
"191 128 CURVE SMOOTH",
"191 134 OFFCURVE",
"193 141 OFFCURVE",
"197 147 CURVE",
"89 205 LINE",
"48 180 OFFCURVE",
"21 151 OFFCURVE",
"21 94 CURVE SMOOTH",
"21 44 OFFCURVE",
"42 12 OFFCURVE",
"89 -24 CURVE",
"335 -24 LINE",
"338 -31 OFFCURVE",
"339 -38 OFFCURVE",
"339 -45 CURVE SMOOTH",
"339 -71 OFFCURVE",
"309 -84 OFFCURVE",
"269 -84 CURVE SMOOTH",
"220 -84 OFFCURVE",
"186 -71 OFFCURVE",
"186 -43 CURVE SMOOTH",
"186 -33 OFFCURVE",
"189 -22 OFFCURVE",
"196 -9 CURVE",
"65 46 LINE",
"26 21 OFFCURVE",
"1 -14 OFFCURVE",
"1 -67 CURVE SMOOTH",
"1 -165 OFFCURVE",
"86 -211 OFFCURVE",
"255 -211 CURVE SMOOTH"
);
},
{
closed = 1;
nodes = (
"25 187 OFFCURVE",
"128 135 OFFCURVE",
"262 135 CURVE SMOOTH",
"417 135 OFFCURVE",
"495 187 OFFCURVE",
"495 327 CURVE SMOOTH",
"495 435 OFFCURVE",
"413 505 OFFCURVE",
"262 505 CURVE SMOOTH",
"104 505 OFFCURVE",
"25 437 OFFCURVE",
"25 316 CURVE SMOOTH"
);
},
{
closed = 1;
nodes = (
"307 273 OFFCURVE",
"296 257 OFFCURVE",
"267 257 CURVE SMOOTH",
"238 257 OFFCURVE",
"225 273 OFFCURVE",
"225 309 CURVE SMOOTH",
"225 349 OFFCURVE",
"242 360 OFFCURVE",
"267 360 CURVE SMOOTH",
"291 360 OFFCURVE",
"307 351 OFFCURVE",
"307 313 CURVE SMOOTH"
);
},
{
closed = 1;
nodes = (
"556 505 LINE",
"493 505 OFFCURVE",
"447 486 OFFCURVE",
"420 456 CURVE",
"431 292 LINE",
"544 292 LINE"
);
}
);
width = 560;
},
{
background = {
paths = (
{
closed = 1;
nodes = (
"511 489 LINE",
"476 489 LINE SMOOTH",
"442 489 OFFCURVE",
"431 503 OFFCURVE",
"431 541 CURVE SMOOTH",
"431 1203 LINE",
"341 1203 LINE",
"341 547 LINE SMOOTH",
"341 446 OFFCURVE",
"370 403 OFFCURVE",
"458 403 CURVE SMOOTH",
"501 403 LINE"
);
}
);
};
layerId = "3E7589AA-8194-470F-8E2F-13C1C581BE24";
name = Regular;
paths = (
{
closed = 1;
nodes = (
"379 -211 OFFCURVE",
"464 -160 OFFCURVE",
"464 -50 CURVE SMOOTH",
"464 -3 OFFCURVE",
"448 35 OFFCURVE",
"422 68 CURVE",
"160 68 LINE",
"154 78 OFFCURVE",
"150 92 OFFCURVE",
"150 108 CURVE SMOOTH",
"150 129 OFFCURVE",
"160 153 OFFCURVE",
"180 171 CURVE",
"131 194 LINE",
"88 171 OFFCURVE",
"64 134 OFFCURVE",
"64 88 CURVE SMOOTH",
"64 44 OFFCURVE",
"84 10 OFFCURVE",
"120 -21 CURVE",
"371 -21 LINE",
"376 -32 OFFCURVE",
"378 -43 OFFCURVE",
"378 -54 CURVE SMOOTH",
"378 -94 OFFCURVE",
"349 -125 OFFCURVE",
"245 -125 CURVE SMOOTH",
"185 -125 OFFCURVE",
"123 -112 OFFCURVE",
"123 -55 CURVE SMOOTH",
"123 -37 OFFCURVE",
"129 -14 OFFCURVE",
"149 14 CURVE",
"99 37 LINE",
"70 21 OFFCURVE",
"35 -14 OFFCURVE",
"35 -70 CURVE SMOOTH",
"35 -166 OFFCURVE",
"123 -211 OFFCURVE",
"252 -211 CURVE SMOOTH"
);
},
{
closed = 1;
nodes = (
"61 188 OFFCURVE",
"141 129 OFFCURVE",
"253 129 CURVE SMOOTH",
"365 129 OFFCURVE",
"444 187 OFFCURVE",
"444 313 CURVE SMOOTH",
"444 425 OFFCURVE",
"388 492 OFFCURVE",
"258 492 CURVE SMOOTH",
"131 492 OFFCURVE",
"61 413 OFFCURVE",
"61 302 CURVE SMOOTH"
);
},
{
closed = 1;
nodes = (
"355 248 OFFCURVE",
"337 207 OFFCURVE",
"254 207 CURVE SMOOTH",
"179 207 OFFCURVE",
"150 251 OFFCURVE",
"150 306 CURVE SMOOTH",
"150 374 OFFCURVE",
"192 403 OFFCURVE",
"254 403 CURVE SMOOTH",
"313 403 OFFCURVE",
"355 371 OFFCURVE",
"355 310 CURVE SMOOTH"
);
},
{
closed = 1;
nodes = (
"511 489 LINE",
"448 489 OFFCURVE",
"404 464 OFFCURVE",
"377 434 CURVE",
"385 403 LINE",
"501 403 LINE"
);
}
);
width = 522;
},
{
layerId = "C4872ECA-A3A9-40AB-960A-1DB2202F16DE";
name = Light;
paths = (
{
closed = 1;
nodes = (
"352 -211 OFFCURVE",
"431 -171 OFFCURVE",
"431 -72 CURVE SMOOTH",
"431 -30 OFFCURVE",
"416 -2 OFFCURVE",
"396 24 CURVE",
"126 24 LINE",
"113 44 OFFCURVE",
"106 66 OFFCURVE",
"106 89 CURVE SMOOTH",
"106 119 OFFCURVE",
"118 153 OFFCURVE",
"148 176 CURVE",
"141 188 LINE",
"108 162 OFFCURVE",
"89 134 OFFCURVE",
"89 89 CURVE SMOOTH",
"89 55 OFFCURVE",
"99 33 OFFCURVE",
"116 7 CURVE",
"388 7 LINE",
"404 -15 OFFCURVE",
"414 -39 OFFCURVE",
"414 -72 CURVE SMOOTH",
"414 -160 OFFCURVE",
"345 -195 OFFCURVE",
"241 -195 CURVE SMOOTH",
"128 -195 OFFCURVE",
"71 -153 OFFCURVE",
"71 -79 CURVE SMOOTH",
"71 -34 OFFCURVE",
"90 -9 OFFCURVE",
"126 9 CURVE",
"119 23 LINE",
"76 0 OFFCURVE",
"55 -27 OFFCURVE",
"55 -80 CURVE SMOOTH",
"55 -166 OFFCURVE",
"119 -211 OFFCURVE",
"241 -211 CURVE SMOOTH"
);
},
{
closed = 1;
nodes = (
"82 212 OFFCURVE",
"138 146 OFFCURVE",
"247 146 CURVE SMOOTH",
"345 146 OFFCURVE",
"405 199 OFFCURVE",
"405 313 CURVE SMOOTH",
"405 422 OFFCURVE",
"354 480 OFFCURVE",
"249 480 CURVE SMOOTH",
"140 480 OFFCURVE",
"82 413 OFFCURVE",
"82 314 CURVE SMOOTH"
);
},
{
closed = 1;
nodes = (
"388 214 OFFCURVE",
"338 162 OFFCURVE",
"247 162 CURVE SMOOTH",
"148 162 OFFCURVE",
"99 223 OFFCURVE",
"99 314 CURVE SMOOTH",
"99 402 OFFCURVE",
"148 464 OFFCURVE",
"246 464 CURVE SMOOTH",
"346 464 OFFCURVE",
"388 407 OFFCURVE",
"388 313 CURVE SMOOTH"
);
},
{
closed = 1;
nodes = (
"467 476 LINE",
"404 476 OFFCURVE",
"356 472 OFFCURVE",
"327 461 CURVE",
"333 450 LINE",
"461 450 LINE"
);
}
);
width = 488;
}
);
leftKerningGroup = g;
rightKerningGroup = g;
unicode = 0067;
},
{
glyphname = h;
lastChange = "2015-12-28 12:41:11 +0000";
layers = (
{
background = {
paths = (
{
closed = 1;
nodes = (
"250 0 LINE",
"250 240 LINE SMOOTH",
"250 272 OFFCURVE",
"264 283 OFFCURVE",
"284 283 CURVE SMOOTH",
"295 283 OFFCURVE",
"304 280 OFFCURVE",
"310 276 CURVE",
"310 0 LINE",
"530 0 LINE",
"530 448 LINE",
"490 478 OFFCURVE",
"430 501 OFFCURVE",
"357 501 CURVE SMOOTH",
"259 501 OFFCURVE",
"209 461 OFFCURVE",
"188 401 CURVE",
"178 401 LINE",
"162 490 LINE",
"30 490 LINE",
"30 0 LINE"
);
}
);
};
layerId = "BFFFD157-90D3-4B85-B99D-9A2F366F03CA";
name = Bold;
paths = (
{
closed = 1;
nodes = (
"250 0 LINE",
"250 240 LINE SMOOTH",
"250 272 OFFCURVE",
"264 283 OFFCURVE",
"284 283 CURVE SMOOTH",
"295 283 OFFCURVE",
"304 280 OFFCURVE",
"310 276 CURVE",
"310 0 LINE",
"530 0 LINE",
"530 446 LINE",
"490 477 OFFCURVE",
"438 500 OFFCURVE",
"377 500 CURVE SMOOTH",
"302 500 OFFCURVE",
"273 465 OFFCURVE",
"261 427 CURVE",
"250 427 LINE",
"250 800 LINE",
"30 800 LINE",
"30 0 LINE"
);
}
);
width = 560;
},
{
background = {
paths = (
{
closed = 1;
nodes = (
"167 0 LINE",
"167 270 LINE SMOOTH",
"167 362 OFFCURVE",
"209 402 OFFCURVE",
"277 402 CURVE SMOOTH",
"315 402 OFFCURVE",
"345 390 OFFCURVE",
"365 370 CURVE",
"365 0 LINE",
"455 0 LINE",
"455 423 LINE",
"425 454 OFFCURVE",
"380 490 OFFCURVE",
"294 490 CURVE SMOOTH",
"205 490 OFFCURVE",
"170 452 OFFCURVE",
"155 409 CURVE",
"147 409 LINE",
"139 480 LINE",
"77 480 LINE",
"77 0 LINE"
);
}
);
};
layerId = "3E7589AA-8194-470F-8E2F-13C1C581BE24";
name = Regular;
paths = (
{
closed = 1;
nodes = (
"167 0 LINE",
"167 270 LINE SMOOTH",
"167 362 OFFCURVE",
"209 402 OFFCURVE",
"277 402 CURVE SMOOTH",
"315 402 OFFCURVE",
"345 390 OFFCURVE",
"365 370 CURVE",
"365 0 LINE",
"455 0 LINE",
"455 423 LINE",
"422 456 OFFCURVE",
"381 490 OFFCURVE",
"298 490 CURVE SMOOTH",
"219 490 OFFCURVE",
"190 460 OFFCURVE",
"175 429 CURVE",
"167 429 LINE",
"167 800 LINE",
"77 800 LINE",
"77 0 LINE"
);
}
);
width = 528;
},
{
background = {
paths = (
{
closed = 1;
nodes = (
"117 0 LINE",
"117 290 LINE SMOOTH",
"117 416 OFFCURVE",
"178 463 OFFCURVE",
"262 463 CURVE SMOOTH",
"322 463 OFFCURVE",
"365 437 OFFCURVE",
"394 408 CURVE",
"394 0 LINE",
"411 0 LINE",
"411 414 LINE",
"377 450 OFFCURVE",
"333 479 OFFCURVE",
"262 479 CURVE SMOOTH",
"169 479 OFFCURVE",
"132 429 OFFCURVE",
"121 384 CURVE",
"118 384 LINE",
"115 470 LINE",
"100 470 LINE",
"100 0 LINE"
);
}
);
};
layerId = "C4872ECA-A3A9-40AB-960A-1DB2202F16DE";
name = Light;
paths = (
{
closed = 1;
nodes = (
"117 0 LINE",
"117 290 LINE SMOOTH",
"117 416 OFFCURVE",
"178 463 OFFCURVE",
"262 463 CURVE SMOOTH",
"322 463 OFFCURVE",
"365 436 OFFCURVE",
"394 406 CURVE",
"394 0 LINE",
"411 0 LINE",
"411 414 LINE",
"377 452 OFFCURVE",
"333 479 OFFCURVE",
"262 479 CURVE SMOOTH",
"168 479 OFFCURVE",
"133 430 OFFCURVE",
"121 384 CURVE",
"117 383 LINE",
"117 800 LINE",
"100 800 LINE",
"100 0 LINE"
);
}
);
width = 498;
}
);
leftKerningGroup = h;
leftMetricsKey = m;
rightKerningGroup = n;
rightMetricsKey = m;
unicode = 0068;
},
{
glyphname = idotless;
lastChange = "2015-11-15 09:44:29 +0000";
layers = (
{
anchors = (
{
name = bottom;
position = "{140, 0}";
},
{
name = ogonek;
position = "{250, 0}";
},
{
name = top;
position = "{140, 490}";
}
);
layerId = "BFFFD157-90D3-4B85-B99D-9A2F366F03CA";
name = Bold;
paths = (
{
closed = 1;
nodes = (
"30 490 LINE",
"30 0 LINE",
"250 0 LINE",
"250 490 LINE"
);
}
);
width = 280;
},
{
anchors = (
{
name = bottom;
position = "{122, 0}";
},
{
name = ogonek;
position = "{167, 0}";
},
{
name = top;
position = "{122, 480}";
}
);
layerId = "3E7589AA-8194-470F-8E2F-13C1C581BE24";
name = Regular;
paths = (
{
closed = 1;
nodes = (
"77 480 LINE",
"77 0 LINE",
"167 0 LINE",
"167 480 LINE"
);
}
);
width = 244;
},
{
anchors = (
{
name = bottom;
position = "{109, 0}";
},
{
name = ogonek;
position = "{117, 0}";
},
{
name = top;
position = "{109, 470}";
}
);
layerId = "C4872ECA-A3A9-40AB-960A-1DB2202F16DE";
name = Light;
paths = (
{
closed = 1;
nodes = (
"100 470 LINE",
"100 0 LINE",
"117 0 LINE",
"117 470 LINE"
);
}
);
width = 217;
}
);
leftKerningGroup = i;
leftMetricsKey = m;
rightKerningGroup = i;
rightMetricsKey = "=|m";
unicode = 0131;
},
{
glyphname = jdotless;
lastChange = "2015-12-28 16:34:29 +0000";
layers = (
{
anchors = (
{
name = bottom;
position = "{124, 0}";
},
{
name = ogonek;
position = "{132, 0}";
},
{
name = top;
position = "{124, 470}";
}
);
background = {
paths = (
{
closed = 1;
nodes = (
"233 282 OFFCURVE",
"191 159 OFFCURVE",
"133 24 CURVE",
"129 24 LINE",
"-36 470 LINE",
"-55 470 LINE",
"118 0 LINE",
"91 -63 OFFCURVE",
"46 -129 OFFCURVE",
"-30 -194 CURVE",
"-18 -208 LINE",
"60 -137 OFFCURVE",
"107 -77 OFFCURVE",
"155 33 CURVE SMOOTH",
"209 155 OFFCURVE",
"247 273 OFFCURVE",
"290 470 CURVE",
"272 470 LINE"
);
}
);
};
layerId = "C4872ECA-A3A9-40AB-960A-1DB2202F16DE";
name = Light;
paths = (
{
closed = 1;
nodes = (
"132 470 LINE",
"115 470 LINE",
"115 44 LINE SMOOTH",
"115 -98 OFFCURVE",
"49 -161 OFFCURVE",
"-25 -191 CURVE",
"-18 -208 LINE",
"62 -175 OFFCURVE",
"132 -106 OFFCURVE",
"132 47 CURVE SMOOTH"
);
}
);
width = 232;
},
{
anchors = (
{
name = bottom;
position = "{136, 0}";
},
{
name = ogonek;
position = "{181, 0}";
},
{
name = top;
position = "{136, 480}";
}
);
background = {
paths = (
{
closed = 1;
nodes = (
"217 293 OFFCURVE",
"183 180 OFFCURVE",
"137 86 CURVE",
"129 86 LINE",
"7 480 LINE",
"-89 480 LINE",
"67 0 LINE",
"29 -50 OFFCURVE",
"-30 -97 OFFCURVE",
"-87 -134 CURVE",
"-41 -212 LINE",
"39 -159 OFFCURVE",
"113 -94 OFFCURVE",
"171 -6 CURVE SMOOTH",
"253 119 OFFCURVE",
"303 269 OFFCURVE",
"337 480 CURVE",
"247 480 LINE"
);
}
);
};
layerId = "3E7589AA-8194-470F-8E2F-13C1C581BE24";
name = Regular;
paths = (
{
closed = 1;
nodes = (
"181 480 LINE",
"91 480 LINE",
"91 70 LINE SMOOTH",
"91 -52 OFFCURVE",
"52 -90 OFFCURVE",
"-46 -126 CURVE",
"-11 -209 LINE",
"114 -155 OFFCURVE",
"181 -90 OFFCURVE",
"181 70 CURVE SMOOTH"
);
}
);
width = 258;
},
{
anchors = (
{
name = bottom;
position = "{160, 0}";
},
{
name = ogonek;
position = "{270, 0}";
},
{
name = top;
position = "{160, 490}";
}
);
background = {
paths = (
{
closed = 1;
nodes = (
"226 344 OFFCURVE",
"215 251 OFFCURVE",
"202 159 CURVE",
"195 159 LINE",
"152 490 LINE",
"-80 490 LINE",
"33 0 LINE",
"4 -10 OFFCURVE",
"-32 -19 OFFCURVE",
"-65 -24 CURVE",
"-34 -212 LINE",
"84 -194 OFFCURVE",
"167 -154 OFFCURVE",
"227 -102 CURVE SMOOTH",
"365 14 OFFCURVE",
"419 207 OFFCURVE",
"443 490 CURVE",
"228 490 LINE"
);
}
);
};
layerId = "BFFFD157-90D3-4B85-B99D-9A2F366F03CA";
name = Bold;
paths = (
{
closed = 1;
nodes = (
"270 490 LINE",
"50 490 LINE",
"50 67 LINE SMOOTH",
"50 5 OFFCURVE",
"37 -16 OFFCURVE",
"-42 -25 CURVE",
"-14 -212 LINE",
"203 -187 OFFCURVE",
"270 -75 OFFCURVE",
"270 90 CURVE SMOOTH"
);
}
);
width = 300;
}
);
leftKerningGroup = j;
rightKerningGroup = j;
rightMetricsKey = "=|m";
unicode = 0237;
},
{
glyphname = k;
lastChange = "2015-12-28 16:12:10 +0000";
layers = (
{
background = {
paths = (
{
closed = 1;
nodes = (
"250 0 LINE",
"250 240 LINE SMOOTH",
"250 272 OFFCURVE",
"264 283 OFFCURVE",
"284 283 CURVE SMOOTH",
"295 283 OFFCURVE",
"304 280 OFFCURVE",
"310 276 CURVE",
"310 0 LINE",
"530 0 LINE",
"530 446 LINE",
"490 477 OFFCURVE",
"438 500 OFFCURVE",
"377 500 CURVE SMOOTH",
"302 500 OFFCURVE",
"273 465 OFFCURVE",
"261 427 CURVE",
"250 427 LINE",
"250 800 LINE",
"30 800 LINE",
"30 0 LINE"
);
}
);
};
layerId = "BFFFD157-90D3-4B85-B99D-9A2F366F03CA";
name = Bold;
paths = (
{
closed = 1;
nodes = (
"250 800 LINE",
"30 800 LINE",
"30 0 LINE",
"250 0 LINE"
);
},
{
closed = 1;
nodes = (
"556 15 LINE",
"455 249 LINE",
"544 477 LINE",
"540 490 LINE",
"321 490 LINE",
"269 307 LINE",
"234 307 LINE",
"234 136 LINE",
"269 136 LINE",
"319 0 LINE",
"553 0 LINE"
);
}
);
width = 556;
},
{
background = {
paths = (
{
closed = 1;
nodes = (
"170 800 LINE",
"80 800 LINE",
"80 0 LINE",
"170 0 LINE"
);
},
{
closed = 1;
nodes = (
"265 244 LINE",
"437 480 LINE",
"333 480 LINE",
"186 267 LINE",
"151 267 LINE",
"151 196 LINE",
"186 196 LINE",
"350 -6 LINE",
"463 3 LINE"
);
}
);
};
layerId = "3E7589AA-8194-470F-8E2F-13C1C581BE24";
name = Regular;
paths = (
{
closed = 1;
nodes = (
"170 800 LINE",
"80 800 LINE",
"80 0 LINE",
"170 0 LINE"
);
},
{
closed = 1;
nodes = (
"451 15 LINE",
"256 247 LINE",
"437 467 LINE",
"433 480 LINE",
"343 480 LINE",
"181 275 LINE",
"146 275 LINE",
"146 204 LINE",
"181 204 LINE",
"349 0 LINE",
"448 0 LINE"
);
}
);
width = 466;
},
{
background = {
paths = (
{
closed = 1;
nodes = (
"117 0 LINE",
"117 290 LINE SMOOTH",
"117 416 OFFCURVE",
"178 463 OFFCURVE",
"262 463 CURVE SMOOTH",
"322 463 OFFCURVE",
"365 437 OFFCURVE",
"394 408 CURVE",
"394 0 LINE",
"411 0 LINE",
"411 414 LINE",
"377 450 OFFCURVE",
"333 479 OFFCURVE",
"262 479 CURVE SMOOTH",
"169 479 OFFCURVE",
"132 429 OFFCURVE",
"121 384 CURVE",
"118 384 LINE",
"115 470 LINE",
"100 470 LINE",
"100 0 LINE"
);
}
);
};
layerId = "C4872ECA-A3A9-40AB-960A-1DB2202F16DE";
name = Light;
paths = (
{
closed = 1;
nodes = (
"118 800 LINE",
"101 800 LINE",
"101 0 LINE",
"118 0 LINE"
);
},
{
closed = 1;
nodes = (
"377 5 LINE",
"189 230 LINE",
"367 466 LINE",
"366 470 LINE",
"349 470 LINE",
"175 237 LINE",
"110 237 LINE",
"110 221 LINE",
"175 221 LINE",
"359 0 LINE",
"375 0 LINE"
);
}
);
width = 408;
}
);
leftKerningGroup = h;
rightKerningGroup = k;
unicode = 006B;
},
{
glyphname = l;
lastChange = "2015-12-28 12:40:49 +0000";
layers = (
{
layerId = "BFFFD157-90D3-4B85-B99D-9A2F366F03CA";
name = Bold;
paths = (
{
closed = 1;
nodes = (
"301 199 LINE",
"274 199 LINE SMOOTH",
"257 199 OFFCURVE",
"251 207 OFFCURVE",
"251 228 CURVE SMOOTH",
"251 800 LINE",
"31 800 LINE",
"31 184 LINE SMOOTH",
"31 73 OFFCURVE",
"70 0 OFFCURVE",
"217 0 CURVE SMOOTH",
"289 0 LINE"
);
}
);
width = 314;
},
{
layerId = "3E7589AA-8194-470F-8E2F-13C1C581BE24";
name = Regular;
paths = (
{
closed = 1;
nodes = (
"250 86 LINE",
"215 86 LINE SMOOTH",
"181 86 OFFCURVE",
"170 100 OFFCURVE",
"170 138 CURVE SMOOTH",
"170 800 LINE",
"80 800 LINE",
"80 144 LINE SMOOTH",
"80 43 OFFCURVE",
"109 0 OFFCURVE",
"197 0 CURVE SMOOTH",
"240 0 LINE"
);
}
);
width = 285;
},
{
layerId = "C4872ECA-A3A9-40AB-960A-1DB2202F16DE";
name = Light;
paths = (
{
closed = 1;
nodes = (
"219 16 LINE",
"183 16 LINE SMOOTH",
"140 16 OFFCURVE",
"122 40 OFFCURVE",
"122 87 CURVE SMOOTH",
"123 800 LINE",
"106 800 LINE",
"105 86 LINE SMOOTH",
"105 26 OFFCURVE",
"130 0 OFFCURVE",
"180 0 CURVE SMOOTH",
"214 0 LINE"
);
}
);
width = 254;
}
);
leftKerningGroup = h;
rightKerningGroup = l;
unicode = 006C;
},
{
glyphname = m;
lastChange = "2016-01-05 13:25:49 +0000";
layers = (
{
background = {
paths = (
{
closed = 1;
nodes = (
"530 0 LINE",
"530 240 LINE SMOOTH",
"530 272 OFFCURVE",
"544 283 OFFCURVE",
"564 283 CURVE SMOOTH",
"575 283 OFFCURVE",
"584 280 OFFCURVE",
"590 276 CURVE",
"590 0 LINE",
"810 0 LINE",
"810 448 LINE",
"770 478 OFFCURVE",
"710 501 OFFCURVE",
"637 501 CURVE SMOOTH",
"539 501 OFFCURVE",
"489 461 OFFCURVE",
"468 401 CURVE",
"458 401 LINE",
"442 490 LINE",
"310 490 LINE",
"310 0 LINE"
);
}
);
};
layerId = "BFFFD157-90D3-4B85-B99D-9A2F366F03CA";
name = Bold;
paths = (
{
closed = 1;
nodes = (
"250 0 LINE",
"250 240 LINE SMOOTH",
"250 271 OFFCURVE",
"264 283 OFFCURVE",
"283 283 CURVE SMOOTH",
"291 283 OFFCURVE",
"301 281 OFFCURVE",
"310 276 CURVE",
"310 0 LINE",
"530 0 LINE",
"530 240 LINE SMOOTH",
"530 272 OFFCURVE",
"544 283 OFFCURVE",
"564 283 CURVE SMOOTH",
"573 283 OFFCURVE",
"584 281 OFFCURVE",
"590 276 CURVE",
"590 0 LINE",
"810 0 LINE",
"810 447 LINE",
"770 477 OFFCURVE",
"709 500 OFFCURVE",
"634 500 CURVE SMOOTH",
"535 500 OFFCURVE",
"498 459 OFFCURVE",
"469 385 CURVE",
"490 401 LINE",
"467 464 OFFCURVE",
"421 502 OFFCURVE",
"334 502 CURVE SMOOTH",
"243 502 OFFCURVE",
"202 460 OFFCURVE",
"188 401 CURVE",
"178 401 LINE",
"162 490 LINE",
"30 490 LINE",
"30 0 LINE"
);
}
);
width = 840;
},
{
background = {
paths = (
{
closed = 1;
nodes = (
"167 0 LINE",
"167 270 LINE SMOOTH",
"167 362 OFFCURVE",
"209 402 OFFCURVE",
"277 402 CURVE SMOOTH",
"315 402 OFFCURVE",
"345 390 OFFCURVE",
"365 370 CURVE",
"365 0 LINE",
"455 0 LINE",
"455 423 LINE",
"423 454 OFFCURVE",
"374 490 OFFCURVE",
"288 490 CURVE SMOOTH",
"199 490 OFFCURVE",
"170 452 OFFCURVE",
"155 409 CURVE",
"146 409 LINE",
"139 480 LINE",
"77 480 LINE",
"77 0 LINE"
);
}
);
};
layerId = "3E7589AA-8194-470F-8E2F-13C1C581BE24";
name = Regular;
paths = (
{
closed = 1;
nodes = (
"167 0 LINE",
"167 270 LINE SMOOTH",
"167 362 OFFCURVE",
"207 402 OFFCURVE",
"272 402 CURVE SMOOTH",
"315 402 OFFCURVE",
"347 384 OFFCURVE",
"366 354 CURVE",
"366 0 LINE",
"455 0 LINE",
"455 270 LINE SMOOTH",
"455 362 OFFCURVE",
"497 402 OFFCURVE",
"565 402 CURVE SMOOTH",
"603 402 OFFCURVE",
"633 390 OFFCURVE",
"653 370 CURVE",
"653 0 LINE",
"743 0 LINE",
"743 423 LINE",
"706 459 OFFCURVE",
"662 490 OFFCURVE",
"581 490 CURVE SMOOTH",
"487 490 OFFCURVE",
"438 448 OFFCURVE",
"415 385 CURVE",
"440 406 LINE",
"409 461 OFFCURVE",
"361 490 OFFCURVE",
"289 490 CURVE SMOOTH",
"206 490 OFFCURVE",
"164 451 OFFCURVE",
"155 409 CURVE",
"147 409 LINE",
"139 480 LINE",
"77 480 LINE",
"77 0 LINE"
);
}
);
width = 816;
},
{
background = {
paths = (
{
closed = 1;
nodes = (
"117 0 LINE",
"117 290 LINE SMOOTH",
"117 416 OFFCURVE",
"178 463 OFFCURVE",
"262 463 CURVE SMOOTH",
"322 463 OFFCURVE",
"365 437 OFFCURVE",
"394 408 CURVE",
"394 0 LINE",
"411 0 LINE",
"411 414 LINE",
"377 450 OFFCURVE",
"333 479 OFFCURVE",
"262 479 CURVE SMOOTH",
"169 479 OFFCURVE",
"132 429 OFFCURVE",
"121 384 CURVE",
"118 384 LINE",
"115 470 LINE",
"100 470 LINE",
"100 0 LINE"
);
}
);
};
layerId = "C4872ECA-A3A9-40AB-960A-1DB2202F16DE";
name = Light;
paths = (
{
closed = 1;
nodes = (
"117 0 LINE",
"117 290 LINE SMOOTH",
"117 404 OFFCURVE",
"167 463 OFFCURVE",
"264 463 CURVE SMOOTH",
"317 463 OFFCURVE",
"376 425 OFFCURVE",
"394 350 CURVE",
"394 0 LINE",
"411 0 LINE",
"411 295 LINE SMOOTH",
"411 409 OFFCURVE",
"467 463 OFFCURVE",
"558 463 CURVE SMOOTH",
"612 463 OFFCURVE",
"660 438 OFFCURVE",
"688 408 CURVE",
"688 0 LINE",
"705 0 LINE",
"705 414 LINE",
"670 451 OFFCURVE",
"625 479 OFFCURVE",
"560 479 CURVE SMOOTH",
"469 479 OFFCURVE",
"418 434 OFFCURVE",
"404 357 CURVE",
"406 358 LINE",
"392 432 OFFCURVE",
"330 479 OFFCURVE",
"264 479 CURVE SMOOTH",
"174 479 OFFCURVE",
"133 434 OFFCURVE",
"121 384 CURVE",
"118 384 LINE",
"115 470 LINE",
"100 470 LINE",
"100 0 LINE"
);
}
);
width = 792;
}
);
leftKerningGroup = n;
rightKerningGroup = n;
unicode = 006D;
},
{
glyphname = n;
lastChange = "2015-11-15 09:43:11 +0000";
layers = (
{
background = {
paths = (
{
closed = 1;
nodes = (
"250 0 LINE",
"250 240 LINE SMOOTH",
"250 272 OFFCURVE",
"264 283 OFFCURVE",
"284 283 CURVE SMOOTH",
"295 283 OFFCURVE",
"304 280 OFFCURVE",
"310 276 CURVE",
"310 0 LINE",
"530 0 LINE",
"530 448 LINE",
"490 478 OFFCURVE",
"430 501 OFFCURVE",
"357 501 CURVE SMOOTH",
"256 501 OFFCURVE",
"199 459 OFFCURVE",
"173 386 CURVE",
"197 366 LINE",
"162 490 LINE",
"30 490 LINE",
"30 0 LINE"
);
}
);
};
layerId = "BFFFD157-90D3-4B85-B99D-9A2F366F03CA";
name = Bold;
paths = (
{
closed = 1;
nodes = (
"250 0 LINE",
"250 240 LINE SMOOTH",
"250 272 OFFCURVE",
"264 283 OFFCURVE",
"284 283 CURVE SMOOTH",
"295 283 OFFCURVE",
"304 280 OFFCURVE",
"310 276 CURVE",
"310 0 LINE",
"530 0 LINE",
"530 448 LINE",
"490 478 OFFCURVE",
"430 501 OFFCURVE",
"357 501 CURVE SMOOTH",
"259 501 OFFCURVE",
"209 461 OFFCURVE",
"188 401 CURVE",
"178 401 LINE",
"162 490 LINE",
"30 490 LINE",
"30 0 LINE"
);
}
);
width = 560;
},
{
background = {
paths = (
{
closed = 1;
nodes = (
"167 0 LINE",
"167 270 LINE SMOOTH",
"167 362 OFFCURVE",
"209 402 OFFCURVE",
"277 402 CURVE SMOOTH",
"315 402 OFFCURVE",
"345 390 OFFCURVE",
"365 370 CURVE",
"365 0 LINE",
"455 0 LINE",
"455 423 LINE",
"423 454 OFFCURVE",
"374 490 OFFCURVE",
"288 490 CURVE SMOOTH",
"199 490 OFFCURVE",
"150 452 OFFCURVE",
"139 382 CURVE",
"159 356 LINE",
"139 480 LINE",
"77 480 LINE",
"77 0 LINE"
);
}
);
};
layerId = "3E7589AA-8194-470F-8E2F-13C1C581BE24";
name = Regular;
paths = (
{
closed = 1;
nodes = (
"167 0 LINE",
"167 270 LINE SMOOTH",
"167 362 OFFCURVE",
"209 402 OFFCURVE",
"277 402 CURVE SMOOTH",
"315 402 OFFCURVE",
"345 390 OFFCURVE",
"365 370 CURVE",
"365 0 LINE",
"455 0 LINE",
"455 423 LINE",
"425 454 OFFCURVE",
"380 490 OFFCURVE",
"294 490 CURVE SMOOTH",
"205 490 OFFCURVE",
"170 452 OFFCURVE",
"155 409 CURVE",
"147 409 LINE",
"139 480 LINE",
"77 480 LINE",
"77 0 LINE"
);
}
);
width = 528;
},
{
background = {
paths = (
{
closed = 1;
nodes = (
"117 0 LINE",
"117 322 LINE SMOOTH",
"117 435 OFFCURVE",
"175 491 OFFCURVE",
"270 491 CURVE SMOOTH",
"324 491 OFFCURVE",
"366 474 OFFCURVE",
"394 445 CURVE",
"394 -1 LINE",
"411 -1 LINE",
"411 435 LINE",
"378 475 OFFCURVE",
"340 509 OFFCURVE",
"263 509 CURVE SMOOTH",
"180 509 OFFCURVE",
"133 468 OFFCURVE",
"117 406 CURVE",
"134 376 LINE",
"123 500 LINE",
"100 500 LINE",
"100 0 LINE"
);
}
);
};
layerId = "C4872ECA-A3A9-40AB-960A-1DB2202F16DE";
name = Light;
paths = (
{
closed = 1;
nodes = (
"117 0 LINE",
"117 290 LINE SMOOTH",
"117 416 OFFCURVE",
"178 463 OFFCURVE",
"262 463 CURVE SMOOTH",
"322 463 OFFCURVE",
"365 437 OFFCURVE",
"394 408 CURVE",
"394 0 LINE",
"411 0 LINE",
"411 414 LINE",
"377 450 OFFCURVE",
"333 479 OFFCURVE",
"262 479 CURVE SMOOTH",
"169 479 OFFCURVE",
"132 429 OFFCURVE",
"121 384 CURVE",
"118 384 LINE",
"115 470 LINE",
"100 470 LINE",
"100 0 LINE"
);
}
);
width = 501;
}
);
leftKerningGroup = n;
leftMetricsKey = m;
rightKerningGroup = n;
rightMetricsKey = m;
unicode = 006E;
},
{
glyphname = o;
lastChange = "2016-01-04 15:09:52 +0000";
layers = (
{
anchors = (
{
name = bottom;
position = "{280, 0}";
},
{
name = center;
position = "{280, 245}";
},
{
name = ogonek;
position = "{503, 10}";
},
{
name = top;
position = "{284, 490}";
},
{
name = topright;
position = "{539, 490}";
}
);
background = {
paths = (
{
closed = 1;
nodes = (
"248 0 LINE",
"248 240 LINE SMOOTH",
"248 272 OFFCURVE",
"262 283 OFFCURVE",
"282 283 CURVE SMOOTH",
"293 283 OFFCURVE",
"302 280 OFFCURVE",
"308 276 CURVE",
"308 0 LINE",
"528 0 LINE",
"528 448 LINE",
"488 478 OFFCURVE",
"428 501 OFFCURVE",
"355 501 CURVE SMOOTH",
"254 501 OFFCURVE",
"197 459 OFFCURVE",
"171 386 CURVE",
"195 366 LINE",
"160 490 LINE",
"28 490 LINE",
"28 0 LINE"
);
}
);
};
layerId = "BFFFD157-90D3-4B85-B99D-9A2F366F03CA";
name = Bold;
paths = (
{
closed = 1;
nodes = (
"442 -15 OFFCURVE",
"541 77 OFFCURVE",
"541 248 CURVE SMOOTH",
"541 412 OFFCURVE",
"449 505 OFFCURVE",
"285 505 CURVE SMOOTH",
"120 505 OFFCURVE",
"18 410 OFFCURVE",
"18 239 CURVE SMOOTH",
"18 75 OFFCURVE",
"112 -15 OFFCURVE",
"275 -15 CURVE SMOOTH"
);
},
{
closed = 1;
nodes = (
"246 169 OFFCURVE",
"229 192 OFFCURVE",
"229 241 CURVE SMOOTH",
"229 286 OFFCURVE",
"245 307 OFFCURVE",
"278 307 CURVE SMOOTH",
"313 307 OFFCURVE",
"330 285 OFFCURVE",
"330 236 CURVE SMOOTH",
"330 191 OFFCURVE",
"314 169 OFFCURVE",
"281 169 CURVE SMOOTH"
);
}
);
width = 559;
},
{
anchors = (
{
name = bottom;
position = "{263, 0}";
},
{
name = center;
position = "{263, 240}";
},
{
name = ogonek;
position = "{473, 10}";
},
{
name = top;
position = "{263, 480}";
},
{
name = topright;
position = "{506, 480}";
}
);
background = {
paths = (
{
closed = 1;
nodes = (
"163 0 LINE",
"163 270 LINE SMOOTH",
"163 362 OFFCURVE",
"205 402 OFFCURVE",
"273 402 CURVE SMOOTH",
"311 402 OFFCURVE",
"341 390 OFFCURVE",
"361 370 CURVE",
"361 0 LINE",
"451 0 LINE",
"451 423 LINE",
"419 454 OFFCURVE",
"370 490 OFFCURVE",
"284 490 CURVE SMOOTH",
"195 490 OFFCURVE",
"146 452 OFFCURVE",
"135 382 CURVE",
"155 356 LINE",
"135 480 LINE",
"73 480 LINE",
"73 0 LINE"
);
}
);
};
layerId = "3E7589AA-8194-470F-8E2F-13C1C581BE24";
name = Regular;
paths = (
{
closed = 1;
nodes = (
"399 -12 OFFCURVE",
"476 79 OFFCURVE",
"476 239 CURVE SMOOTH",
"476 405 OFFCURVE",
"403 492 OFFCURVE",
"266 492 CURVE SMOOTH",
"128 492 OFFCURVE",
"50 404 OFFCURVE",
"50 239 CURVE SMOOTH",
"50 79 OFFCURVE",
"124 -12 OFFCURVE",
"262 -12 CURVE SMOOTH"
);
},
{
closed = 1;
nodes = (
"185 72 OFFCURVE",
"139 123 OFFCURVE",
"139 240 CURVE SMOOTH",
"139 357 OFFCURVE",
"182 403 OFFCURVE",
"262 403 CURVE SMOOTH",
"343 403 OFFCURVE",
"387 360 OFFCURVE",
"387 238 CURVE SMOOTH",
"387 119 OFFCURVE",
"346 72 OFFCURVE",
"266 72 CURVE SMOOTH"
);
}
);
width = 526;
},
{
anchors = (
{
name = bottom;
position = "{254, 0}";
},
{
name = center;
position = "{244, 235}";
},
{
name = ogonek;
position = "{310, -1}";
},
{
name = top;
position = "{250, 470}";
},
{
name = topright;
position = "{468, 470}";
}
);
layerId = "C4872ECA-A3A9-40AB-960A-1DB2202F16DE";
name = Light;
paths = (
{
closed = 1;
nodes = (
"369 -10 OFFCURVE",
"435 71 OFFCURVE",
"435 232 CURVE SMOOTH",
"435 402 OFFCURVE",
"369 480 OFFCURVE",
"250 480 CURVE SMOOTH",
"129 480 OFFCURVE",
"63 402 OFFCURVE",
"63 232 CURVE SMOOTH",
"63 71 OFFCURVE",
"129 -10 OFFCURVE",
"250 -10 CURVE SMOOTH"
);
},
{
closed = 1;
nodes = (
"141 6 OFFCURVE",
"80 77 OFFCURVE",
"80 235 CURVE SMOOTH",
"80 397 OFFCURVE",
"140 464 OFFCURVE",
"250 464 CURVE SMOOTH",
"357 464 OFFCURVE",
"418 397 OFFCURVE",
"418 235 CURVE SMOOTH",
"418 77 OFFCURVE",
"358 6 OFFCURVE",
"251 6 CURVE SMOOTH"
);
}
);
width = 488;
}
);
leftKerningGroup = o;
rightKerningGroup = o;
unicode = 006F;
},
{
glyphname = p;
lastChange = "2015-12-28 16:34:44 +0000";
layers = (
{
background = {
paths = (
{
closed = 1;
nodes = (
"547 490 LINE",
"415 490 LINE",
"326 349 LINE",
"326 216 LINE SMOOTH",
"326 181 OFFCURVE",
"315 156 OFFCURVE",
"283 156 CURVE SMOOTH",
"250 156 OFFCURVE",
"231 181 OFFCURVE",
"231 232 CURVE SMOOTH",
"231 283 OFFCURVE",
"249 309 OFFCURVE",
"285 309 CURVE SMOOTH",
"302 309 OFFCURVE",
"318 303 OFFCURVE",
"328 289 CURVE",
"381 420 LINE",
"349 478 OFFCURVE",
"297 503 OFFCURVE",
"224 503 CURVE SMOOTH",
"81 503 OFFCURVE",
"18 403 OFFCURVE",
"18 232 CURVE SMOOTH",
"18 86 OFFCURVE",
"67 -8 OFFCURVE",
"201 -8 CURVE SMOOTH",
"265 -8 OFFCURVE",
"300 12 OFFCURVE",
"316 44 CURVE",
"327 44 LINE",
"326 -200 LINE",
"547 -200 LINE"
);
}
);
};
layerId = "BFFFD157-90D3-4B85-B99D-9A2F366F03CA";
name = Bold;
paths = (
{
closed = 1;
nodes = (
"177 401 LINE",
"162 490 LINE",
"30 490 LINE",
"30 -200 LINE",
"251 -200 LINE",
"251 248 LINE SMOOTH",
"251 283 OFFCURVE",
"265 308 OFFCURVE",
"297 308 CURVE SMOOTH",
"330 308 OFFCURVE",
"346 283 OFFCURVE",
"346 234 CURVE SMOOTH",
"346 181 OFFCURVE",
"327 155 OFFCURVE",
"289 155 CURVE SMOOTH",
"271 155 OFFCURVE",
"254 161 OFFCURVE",
"243 175 CURVE",
"211 51 LINE",
"235 16 OFFCURVE",
"280 -9 OFFCURVE",
"351 -9 CURVE SMOOTH",
"494 -9 OFFCURVE",
"559 92 OFFCURVE",
"559 263 CURVE SMOOTH",
"559 428 OFFCURVE",
"485 502 OFFCURVE",
"357 502 CURVE SMOOTH",
"260 502 OFFCURVE",
"209 461 OFFCURVE",
"188 401 CURVE"
);
}
);
width = 577;
},
{
background = {
paths = (
{
closed = 1;
nodes = (
"167 0 LINE",
"167 270 LINE SMOOTH",
"167 362 OFFCURVE",
"209 402 OFFCURVE",
"277 402 CURVE SMOOTH",
"315 402 OFFCURVE",
"345 390 OFFCURVE",
"365 370 CURVE",
"365 0 LINE",
"455 0 LINE",
"455 423 LINE",
"423 454 OFFCURVE",
"374 490 OFFCURVE",
"288 490 CURVE SMOOTH",
"199 490 OFFCURVE",
"170 452 OFFCURVE",
"155 409 CURVE",
"147 409 LINE",
"139 480 LINE",
"77 480 LINE",
"77 0 LINE"
);
}
);
};
layerId = "3E7589AA-8194-470F-8E2F-13C1C581BE24";
name = Regular;
paths = (
{
closed = 1;
nodes = (
"147 409 LINE",
"139 480 LINE",
"77 480 LINE",
"77 -200 LINE",
"167 -200 LINE",
"167 254 LINE SMOOTH",
"167 367 OFFCURVE",
"212 400 OFFCURVE",
"281 400 CURVE SMOOTH",
"355 400 OFFCURVE",
"396 361 OFFCURVE",
"396 251 CURVE SMOOTH",
"396 134 OFFCURVE",
"350 77 OFFCURVE",
"252 77 CURVE SMOOTH",
"220 77 OFFCURVE",
"188 83 OFFCURVE",
"152 106 CURVE",
"132 37 LINE",
"167 4 OFFCURVE",
"210 -9 OFFCURVE",
"262 -9 CURVE SMOOTH",
"410 -9 OFFCURVE",
"486 95 OFFCURVE",
"486 261 CURVE SMOOTH",
"486 402 OFFCURVE",
"434 489 OFFCURVE",
"297 489 CURVE SMOOTH",
"224 489 OFFCURVE",
"173 467 OFFCURVE",
"155 409 CURVE"
);
}
);
width = 536;
},
{
background = {
paths = (
{
closed = 1;
nodes = (
"369 -10 OFFCURVE",
"435 71 OFFCURVE",
"435 232 CURVE SMOOTH",
"435 402 OFFCURVE",
"369 480 OFFCURVE",
"250 480 CURVE SMOOTH",
"129 480 OFFCURVE",
"63 402 OFFCURVE",
"63 232 CURVE SMOOTH",
"63 71 OFFCURVE",
"129 -10 OFFCURVE",
"250 -10 CURVE SMOOTH"
);
},
{
closed = 1;
nodes = (
"141 6 OFFCURVE",
"80 77 OFFCURVE",
"80 235 CURVE SMOOTH",
"80 397 OFFCURVE",
"140 464 OFFCURVE",
"250 464 CURVE SMOOTH",
"357 464 OFFCURVE",
"418 397 OFFCURVE",
"418 235 CURVE SMOOTH",
"418 77 OFFCURVE",
"358 6 OFFCURVE",
"251 6 CURVE SMOOTH"
);
}
);
};
layerId = "C4872ECA-A3A9-40AB-960A-1DB2202F16DE";
name = Light;
paths = (
{
closed = 1;
nodes = (
"118 384 LINE",
"115 470 LINE",
"100 470 LINE",
"100 -200 LINE",
"117 -200 LINE",
"117 290 LINE SMOOTH",
"117 410 OFFCURVE",
"171 464 OFFCURVE",
"261 464 CURVE SMOOTH",
"365 464 OFFCURVE",
"421 391 OFFCURVE",
"421 252 CURVE SMOOTH",
"421 91 OFFCURVE",
"352 6 OFFCURVE",
"230 6 CURVE SMOOTH",
"194 6 OFFCURVE",
"151 14 OFFCURVE",
"109 35 CURVE",
"100 20 LINE",
"144 -2 OFFCURVE",
"188 -10 OFFCURVE",
"230 -10 CURVE SMOOTH",
"362 -10 OFFCURVE",
"438 79 OFFCURVE",
"438 252 CURVE SMOOTH",
"438 401 OFFCURVE",
"381 480 OFFCURVE",
"261 480 CURVE SMOOTH",
"186 480 OFFCURVE",
"141 451 OFFCURVE",
"121 384 CURVE"
);
}
);
width = 491;
}
);
leftKerningGroup = n;
leftMetricsKey = m;
rightKerningGroup = o;
rightMetricsKey = o;
unicode = 0070;
},
{
glyphname = q;
lastChange = "2016-01-02 18:09:01 +0000";
layers = (
{
background = {
paths = (
{
closed = 1;
nodes = (
"327 64 LINE",
"327 -209 LINE",
"547 -209 LINE",
"547 464 LINE",
"326 370 LINE",
"326 239 LINE SMOOTH",
"326 204 OFFCURVE",
"315 179 OFFCURVE",
"283 179 CURVE SMOOTH",
"250 179 OFFCURVE",
"231 204 OFFCURVE",
"231 255 CURVE SMOOTH",
"231 306 OFFCURVE",
"250 332 OFFCURVE",
"288 332 CURVE SMOOTH",
"306 332 OFFCURVE",
"323 326 OFFCURVE",
"334 312 CURVE",
"547 464 LINE",
"480 487 OFFCURVE",
"406 502 OFFCURVE",
"316 502 CURVE SMOOTH",
"91 502 OFFCURVE",
"18 400 OFFCURVE",
"18 219 CURVE SMOOTH",
"18 62 OFFCURVE",
"76 -11 OFFCURVE",
"192 -11 CURVE SMOOTH",
"264 -11 OFFCURVE",
"300 18 OFFCURVE",
"316 64 CURVE"
);
}
);
};
layerId = "BFFFD157-90D3-4B85-B99D-9A2F366F03CA";
name = Bold;
paths = (
{
closed = 1;
nodes = (
"547 490 LINE",
"415 490 LINE",
"326 349 LINE",
"326 216 LINE SMOOTH",
"326 181 OFFCURVE",
"315 156 OFFCURVE",
"283 156 CURVE SMOOTH",
"250 156 OFFCURVE",
"231 181 OFFCURVE",
"231 232 CURVE SMOOTH",
"231 283 OFFCURVE",
"249 309 OFFCURVE",
"285 309 CURVE SMOOTH",
"302 309 OFFCURVE",
"318 303 OFFCURVE",
"328 289 CURVE",
"381 420 LINE",
"349 478 OFFCURVE",
"297 503 OFFCURVE",
"224 503 CURVE SMOOTH",
"81 503 OFFCURVE",
"18 403 OFFCURVE",
"18 232 CURVE SMOOTH",
"18 86 OFFCURVE",
"67 -8 OFFCURVE",
"201 -8 CURVE SMOOTH",
"265 -8 OFFCURVE",
"300 12 OFFCURVE",
"316 44 CURVE",
"327 44 LINE",
"327 -200 LINE",
"547 -200 LINE"
);
}
);
width = 577;
},
{
background = {
paths = (
{
closed = 1;
nodes = (
"459 700 LINE",
"369 700 LINE",
"369 211 LINE SMOOTH",
"369 108 OFFCURVE",
"321 74 OFFCURVE",
"258 74 CURVE SMOOTH",
"178 74 OFFCURVE",
"140 126 OFFCURVE",
"140 236 CURVE SMOOTH",
"140 346 OFFCURVE",
"183 401 OFFCURVE",
"271 401 CURVE SMOOTH",
"313 401 OFFCURVE",
"352 388 OFFCURVE",
"378 358 CURVE",
"397 444 LINE",
"371 470 OFFCURVE",
"327 489 OFFCURVE",
"264 489 CURVE SMOOTH",
"122 489 OFFCURVE",
"50 395 OFFCURVE",
"50 231 CURVE SMOOTH",
"50 86 OFFCURVE",
"99 -11 OFFCURVE",
"236 -11 CURVE SMOOTH",
"302 -11 OFFCURVE",
"345 12 OFFCURVE",
"365 57 CURVE",
"373 57 LINE",
"382 0 LINE",
"459 0 LINE"
);
}
);
};
layerId = "3E7589AA-8194-470F-8E2F-13C1C581BE24";
name = Regular;
paths = (
{
closed = 1;
nodes = (
"459 480 LINE",
"397 480 LINE",
"369 382 LINE",
"369 211 LINE SMOOTH",
"369 108 OFFCURVE",
"324 74 OFFCURVE",
"261 74 CURVE SMOOTH",
"181 74 OFFCURVE",
"140 126 OFFCURVE",
"140 236 CURVE SMOOTH",
"140 346 OFFCURVE",
"183 401 OFFCURVE",
"267 401 CURVE SMOOTH",
"313 401 OFFCURVE",
"352 384 OFFCURVE",
"377 348 CURVE",
"394 419 LINE",
"369 460 OFFCURVE",
"324 489 OFFCURVE",
"252 489 CURVE SMOOTH",
"119 489 OFFCURVE",
"50 395 OFFCURVE",
"50 231 CURVE SMOOTH",
"50 86 OFFCURVE",
"102 -11 OFFCURVE",
"236 -11 CURVE SMOOTH",
"295 -11 OFFCURVE",
"337 8 OFFCURVE",
"359 44 CURVE",
"369 44 LINE",
"369 -200 LINE",
"459 -200 LINE"
);
}
);
width = 536;
},
{
background = {
paths = (
{
closed = 1;
nodes = (
"400 800 LINE",
"383 800 LINE",
"383 176 LINE SMOOTH",
"383 65 OFFCURVE",
"330 6 OFFCURVE",
"239 6 CURVE SMOOTH",
"137 6 OFFCURVE",
"80 76 OFFCURVE",
"80 225 CURVE SMOOTH",
"80 376 OFFCURVE",
"138 464 OFFCURVE",
"256 464 CURVE SMOOTH",
"295 464 OFFCURVE",
"346 454 OFFCURVE",
"391 409 CURVE",
"395 426 LINE",
"353 469 OFFCURVE",
"301 480 OFFCURVE",
"256 480 CURVE SMOOTH",
"128 480 OFFCURVE",
"63 388 OFFCURVE",
"63 225 CURVE SMOOTH",
"63 66 OFFCURVE",
"121 -10 OFFCURVE",
"239 -10 CURVE SMOOTH",
"315 -10 OFFCURVE",
"362 23 OFFCURVE",
"379 87 CURVE",
"383 87 LINE",
"385 0 LINE",
"400 0 LINE"
);
}
);
};
layerId = "C4872ECA-A3A9-40AB-960A-1DB2202F16DE";
name = Light;
paths = (
{
closed = 1;
nodes = (
"400 470 LINE",
"385 470 LINE",
"383 426 LINE",
"383 192 LINE SMOOTH",
"383 60 OFFCURVE",
"328 6 OFFCURVE",
"240 6 CURVE SMOOTH",
"135 6 OFFCURVE",
"80 79 OFFCURVE",
"80 225 CURVE SMOOTH",
"80 379 OFFCURVE",
"138 464 OFFCURVE",
"256 464 CURVE SMOOTH",
"295 464 OFFCURVE",
"346 454 OFFCURVE",
"391 409 CURVE",
"395 426 LINE",
"353 469 OFFCURVE",
"301 480 OFFCURVE",
"256 480 CURVE SMOOTH",
"128 480 OFFCURVE",
"63 391 OFFCURVE",
"63 225 CURVE SMOOTH",
"63 69 OFFCURVE",
"119 -10 OFFCURVE",
"240 -10 CURVE SMOOTH",
"313 -10 OFFCURVE",
"362 20 OFFCURVE",
"379 87 CURVE",
"383 87 LINE",
"383 -200 LINE",
"400 -200 LINE"
);
}
);
width = 490;
}
);
leftKerningGroup = o;
leftMetricsKey = o;
rightKerningGroup = q;
rightMetricsKey = "=|m";
unicode = 0071;
},
{
glyphname = r;
lastChange = "2015-12-22 15:09:18 +0000";
layers = (
{
background = {
paths = (
{
closed = 1;
nodes = (
"250 0 LINE",
"250 240 LINE SMOOTH",
"250 272 OFFCURVE",
"264 283 OFFCURVE",
"284 283 CURVE SMOOTH",
"295 283 OFFCURVE",
"304 280 OFFCURVE",
"310 276 CURVE",
"310 0 LINE",
"530 0 LINE",
"530 448 LINE",
"490 478 OFFCURVE",
"430 501 OFFCURVE",
"357 501 CURVE SMOOTH",
"259 501 OFFCURVE",
"209 461 OFFCURVE",
"188 401 CURVE",
"178 401 LINE",
"162 490 LINE",
"30 490 LINE",
"30 0 LINE"
);
}
);
};
layerId = "BFFFD157-90D3-4B85-B99D-9A2F366F03CA";
name = Bold;
paths = (
{
closed = 1;
nodes = (
"358 490 LINE",
"340 498 OFFCURVE",
"323 500 OFFCURVE",
"307 500 CURVE SMOOTH",
"238 500 OFFCURVE",
"196 459 OFFCURVE",
"186 383 CURVE",
"176 383 LINE",
"162 490 LINE",
"30 490 LINE",
"30 0 LINE",
"250 0 LINE",
"250 187 LINE SMOOTH",
"250 248 OFFCURVE",
"278 265 OFFCURVE",
"317 265 CURVE SMOOTH",
"326 265 OFFCURVE",
"336 264 OFFCURVE",
"346 261 CURVE"
);
}
);
width = 368;
},
{
background = {
paths = (
{
closed = 1;
nodes = (
"167 0 LINE",
"167 270 LINE SMOOTH",
"167 362 OFFCURVE",
"209 402 OFFCURVE",
"277 402 CURVE SMOOTH",
"315 402 OFFCURVE",
"345 390 OFFCURVE",
"365 370 CURVE",
"365 0 LINE",
"455 0 LINE",
"455 423 LINE",
"423 454 OFFCURVE",
"374 490 OFFCURVE",
"288 490 CURVE SMOOTH",
"199 490 OFFCURVE",
"170 452 OFFCURVE",
"155 409 CURVE",
"146 409 LINE",
"139 480 LINE",
"77 480 LINE",
"77 0 LINE"
);
}
);
};
layerId = "3E7589AA-8194-470F-8E2F-13C1C581BE24";
name = Regular;
paths = (
{
closed = 1;
nodes = (
"322 480 LINE",
"305 485 OFFCURVE",
"289 487 OFFCURVE",
"273 487 CURVE SMOOTH",
"188 487 OFFCURVE",
"167 443 OFFCURVE",
"155 405 CURVE",
"147 405 LINE",
"139 480 LINE",
"77 480 LINE",
"77 0 LINE",
"167 0 LINE",
"167 237 LINE SMOOTH",
"167 341 OFFCURVE",
"192 397 OFFCURVE",
"273 397 CURVE SMOOTH",
"284 397 OFFCURVE",
"298 396 OFFCURVE",
"313 392 CURVE"
);
}
);
width = 353;
},
{
background = {
paths = (
{
closed = 1;
nodes = (
"117 0 LINE",
"117 290 LINE SMOOTH",
"117 404 OFFCURVE",
"167 463 OFFCURVE",
"264 463 CURVE SMOOTH",
"317 463 OFFCURVE",
"376 425 OFFCURVE",
"394 350 CURVE",
"394 0 LINE",
"411 0 LINE",
"411 295 LINE SMOOTH",
"411 409 OFFCURVE",
"467 463 OFFCURVE",
"558 463 CURVE SMOOTH",
"612 463 OFFCURVE",
"660 438 OFFCURVE",
"688 408 CURVE",
"687 0 LINE",
"705 0 LINE",
"705 414 LINE",
"670 451 OFFCURVE",
"625 479 OFFCURVE",
"560 479 CURVE SMOOTH",
"469 479 OFFCURVE",
"418 434 OFFCURVE",
"404 357 CURVE",
"406 358 LINE",
"392 432 OFFCURVE",
"330 479 OFFCURVE",
"264 479 CURVE SMOOTH",
"174 479 OFFCURVE",
"133 434 OFFCURVE",
"121 384 CURVE",
"118 384 LINE",
"115 470 LINE",
"100 470 LINE",
"100 0 LINE"
);
}
);
};
layerId = "C4872ECA-A3A9-40AB-960A-1DB2202F16DE";
name = Light;
paths = (
{
closed = 1;
nodes = (
"304 467 LINE",
"285 474 OFFCURVE",
"265 478 OFFCURVE",
"245 478 CURVE SMOOTH",
"163 478 OFFCURVE",
"134 421 OFFCURVE",
"122 377 CURVE",
"119 377 LINE",
"115 470 LINE",
"100 470 LINE",
"100 0 LINE",
"117 0 LINE",
"117 250 LINE SMOOTH",
"117 370 OFFCURVE",
"154 460 OFFCURVE",
"243 460 CURVE SMOOTH",
"263 460 OFFCURVE",
"281 457 OFFCURVE",
"300 449 CURVE"
);
}
);
width = 331;
}
);
leftKerningGroup = n;
leftMetricsKey = m;
rightKerningGroup = r;
unicode = 0072;
},
{
glyphname = s;
lastChange = "2016-01-09 11:51:32 +0000";
layers = (
{
layerId = "BFFFD157-90D3-4B85-B99D-9A2F366F03CA";
name = Bold;
paths = (
{
closed = 1;
nodes = (
"346 490 OFFCURVE",
"290 501 OFFCURVE",
"236 501 CURVE SMOOTH",
"73 501 OFFCURVE",
"21 414 OFFCURVE",
"21 309 CURVE SMOOTH",
"21 259 OFFCURVE",
"37 216 OFFCURVE",
"57 183 CURVE",
"103 180 OFFCURVE",
"146 173 OFFCURVE",
"175 167 CURVE SMOOTH",
"206 160 OFFCURVE",
"214 156 OFFCURVE",
"214 145 CURVE SMOOTH",
"214 132 OFFCURVE",
"201 130 OFFCURVE",
"177 130 CURVE SMOOTH",
"121 130 OFFCURVE",
"76 140 OFFCURVE",
"37 154 CURVE",
"21 19 LINE",
"71 -1 OFFCURVE",
"142 -11 OFFCURVE",
"202 -11 CURVE SMOOTH",
"338 -11 OFFCURVE",
"394 47 OFFCURVE",
"394 146 CURVE SMOOTH",
"394 243 OFFCURVE",
"339 272 OFFCURVE",
"293 286 CURVE SMOOTH",
"266 294 OFFCURVE",
"236 299 OFFCURVE",
"204 303 CURVE",
"202 308 OFFCURVE",
"201 311 OFFCURVE",
"201 316 CURVE SMOOTH",
"201 331 OFFCURVE",
"209 339 OFFCURVE",
"244 339 CURVE SMOOTH",
"289 339 OFFCURVE",
"329 325 OFFCURVE",
"359 312 CURVE",
"383 470 LINE"
);
}
);
width = 404;
},
{
background = {
paths = (
{
closed = 0;
nodes = (
"371 378 LINE",
"381 464 LINE"
);
}
);
};
layerId = "3E7589AA-8194-470F-8E2F-13C1C581BE24";
name = Regular;
paths = (
{
closed = 1;
nodes = (
"344 482 OFFCURVE",
"296 492 OFFCURVE",
"244 492 CURVE SMOOTH",
"118 492 OFFCURVE",
"56 431 OFFCURVE",
"56 327 CURVE SMOOTH",
"56 281 OFFCURVE",
"68 244 OFFCURVE",
"86 213 CURVE",
"155 207 OFFCURVE",
"221 195 OFFCURVE",
"260 180 CURVE SMOOTH",
"297 166 OFFCURVE",
"309 150 OFFCURVE",
"309 127 CURVE SMOOTH",
"309 90 OFFCURVE",
"278 77 OFFCURVE",
"218 77 CURVE SMOOTH",
"164 77 OFFCURVE",
"115 88 OFFCURVE",
"72 113 CURVE",
"55 25 LINE",
"96 3 OFFCURVE",
"147 -11 OFFCURVE",
"211 -11 CURVE SMOOTH",
"324 -11 OFFCURVE",
"399 32 OFFCURVE",
"399 130 CURVE SMOOTH",
"399 179 OFFCURVE",
"381 235 OFFCURVE",
"278 266 CURVE SMOOTH",
"241 277 OFFCURVE",
"193 285 OFFCURVE",
"149 290 CURVE",
"144 303 OFFCURVE",
"143 317 OFFCURVE",
"143 327 CURVE SMOOTH",
"143 387 OFFCURVE",
"182 405 OFFCURVE",
"238 405 CURVE SMOOTH",
"284 405 OFFCURVE",
"330 393 OFFCURVE",
"368 372 CURVE",
"388 456 LINE"
);
}
);
width = 444;
},
{
background = {
paths = (
{
closed = 1;
nodes = (
"115 0 LINE",
"115 290 LINE SMOOTH",
"115 416 OFFCURVE",
"176 463 OFFCURVE",
"260 463 CURVE SMOOTH",
"320 463 OFFCURVE",
"363 437 OFFCURVE",
"392 408 CURVE",
"392 0 LINE",
"409 0 LINE",
"409 414 LINE",
"375 450 OFFCURVE",
"331 479 OFFCURVE",
"260 479 CURVE SMOOTH",
"166 479 OFFCURVE",
"118 426 OFFCURVE",
"114 364 CURVE",
"117 364 LINE",
"113 470 LINE",
"98 470 LINE",
"98 0 LINE"
);
}
);
};
layerId = "C4872ECA-A3A9-40AB-960A-1DB2202F16DE";
name = Light;
paths = (
{
closed = 1;
nodes = (
"318 463 OFFCURVE",
"280 479 OFFCURVE",
"228 479 CURVE SMOOTH",
"140 479 OFFCURVE",
"74 432 OFFCURVE",
"74 337 CURVE SMOOTH",
"74 301 OFFCURVE",
"83 267 OFFCURVE",
"106 231 CURVE",
"178 223 OFFCURVE",
"240 212 OFFCURVE",
"280 193 CURVE SMOOTH",
"320 174 OFFCURVE",
"338 146 OFFCURVE",
"338 104 CURVE SMOOTH",
"338 35 OFFCURVE",
"287 7 OFFCURVE",
"208 7 CURVE SMOOTH",
"157 7 OFFCURVE",
"112 17 OFFCURVE",
"76 35 CURVE",
"70 19 LINE",
"105 1 OFFCURVE",
"154 -9 OFFCURVE",
"208 -9 CURVE SMOOTH",
"295 -9 OFFCURVE",
"355 25 OFFCURVE",
"355 105 CURVE SMOOTH",
"355 153 OFFCURVE",
"334 186 OFFCURVE",
"285 209 CURVE SMOOTH",
"242 229 OFFCURVE",
"180 240 OFFCURVE",
"117 247 CURVE",
"100 271 OFFCURVE",
"91 303 OFFCURVE",
"91 338 CURVE SMOOTH",
"91 423 OFFCURVE",
"150 463 OFFCURVE",
"229 463 CURVE SMOOTH",
"276 463 OFFCURVE",
"311 448 OFFCURVE",
"339 428 CURVE",
"344 444 LINE"
);
}
);
width = 410;
},
{
associatedMasterId = "3E7589AA-8194-470F-8E2F-13C1C581BE24";
layerId = "A3104894-D6A5-4B73-B1F5-60AEDF855806";
name = "{155, 100}";
paths = (
{
closed = 1;
nodes = (
"345 486 OFFCURVE",
"293 497 OFFCURVE",
"240 497 CURVE SMOOTH",
"96 497 OFFCURVE",
"39 423 OFFCURVE",
"39 318 CURVE SMOOTH",
"39 270 OFFCURVE",
"51 226 OFFCURVE",
"72 194 CURVE",
"131 190 OFFCURVE",
"184 181 OFFCURVE",
"218 171 CURVE SMOOTH",
"252 160 OFFCURVE",
"262 150 OFFCURVE",
"262 136 CURVE SMOOTH",
"262 114 OFFCURVE",
"232 106 OFFCURVE",
"193 106 CURVE SMOOTH",
"147 106 OFFCURVE",
"96 117 OFFCURVE",
"55 138 CURVE",
"38 22 LINE",
"84 1 OFFCURVE",
"145 -11 OFFCURVE",
"212 -11 CURVE SMOOTH",
"333 -11 OFFCURVE",
"397 40 OFFCURVE",
"397 136 CURVE SMOOTH",
"397 210 OFFCURVE",
"357 256 OFFCURVE",
"283 279 CURVE SMOOTH",
"254 288 OFFCURVE",
"215 296 OFFCURVE",
"177 301 CURVE",
"173 310 OFFCURVE",
"172 319 OFFCURVE",
"172 326 CURVE SMOOTH",
"172 360 OFFCURVE",
"203 372 OFFCURVE",
"248 372 CURVE SMOOTH",
"289 372 OFFCURVE",
"331 362 OFFCURVE",
"367 344 CURVE",
"386 463 LINE"
);
}
);
width = 427;
}
);
leftKerningGroup = s;
rightKerningGroup = s;
unicode = 0073;
},
{
glyphname = germandbls;
lastChange = "2015-12-31 14:43:59 +0000";
layers = (
{
layerId = "C4872ECA-A3A9-40AB-960A-1DB2202F16DE";
name = Light;
paths = (
{
closed = 1;
nodes = (
"413 464 OFFCURVE",
"332 404 OFFCURVE",
"231 343 CURVE",
"235 322 LINE",
"364 308 OFFCURVE",
"472 269 OFFCURVE",
"472 144 CURVE SMOOTH",
"472 45 OFFCURVE",
"411 7 OFFCURVE",
"332 7 CURVE SMOOTH",
"281 7 OFFCURVE",
"236 17 OFFCURVE",
"200 35 CURVE",
"194 19 LINE",
"229 1 OFFCURVE",
"278 -9 OFFCURVE",
"332 -9 CURVE SMOOTH",
"419 -9 OFFCURVE",
"489 35 OFFCURVE",
"489 145 CURVE SMOOTH",
"489 279 OFFCURVE",
"383 324 OFFCURVE",
"245 338 CURVE",
"245 332 LINE",
"350 396 OFFCURVE",
"430 455 OFFCURVE",
"430 624 CURVE SMOOTH",
"430 737 OFFCURVE",
"381 803 OFFCURVE",
"272 803 CURVE SMOOTH",
"136 803 OFFCURVE",
"100 703 OFFCURVE",
"100 572 CURVE SMOOTH",
"100 0 LINE",
"117 0 LINE",
"117 571 LINE SMOOTH",
"117 694 OFFCURVE",
"145 787 OFFCURVE",
"273 787 CURVE SMOOTH",
"368 787 OFFCURVE",
"413 734 OFFCURVE",
"413 623 CURVE SMOOTH"
);
}
);
width = 533;
},
{
background = {
paths = (
{
closed = 1;
nodes = (
"524 482 OFFCURVE",
"476 492 OFFCURVE",
"424 492 CURVE SMOOTH",
"298 492 OFFCURVE",
"236 431 OFFCURVE",
"236 327 CURVE SMOOTH",
"236 281 OFFCURVE",
"248 244 OFFCURVE",
"266 213 CURVE",
"335 207 OFFCURVE",
"401 195 OFFCURVE",
"440 180 CURVE SMOOTH",
"477 166 OFFCURVE",
"489 150 OFFCURVE",
"489 127 CURVE SMOOTH",
"489 90 OFFCURVE",
"458 77 OFFCURVE",
"398 77 CURVE SMOOTH",
"344 77 OFFCURVE",
"295 88 OFFCURVE",
"252 113 CURVE",
"235 25 LINE",
"276 3 OFFCURVE",
"327 -11 OFFCURVE",
"391 -11 CURVE SMOOTH",
"504 -11 OFFCURVE",
"579 32 OFFCURVE",
"579 130 CURVE SMOOTH",
"579 179 OFFCURVE",
"561 235 OFFCURVE",
"458 266 CURVE SMOOTH",
"421 277 OFFCURVE",
"373 285 OFFCURVE",
"329 290 CURVE",
"324 303 OFFCURVE",
"323 317 OFFCURVE",
"323 327 CURVE SMOOTH",
"323 387 OFFCURVE",
"362 405 OFFCURVE",
"418 405 CURVE SMOOTH",
"464 405 OFFCURVE",
"510 393 OFFCURVE",
"548 372 CURVE",
"568 456 LINE"
);
}
);
};
layerId = "3E7589AA-8194-470F-8E2F-13C1C581BE24";
name = Regular;
paths = (
{
closed = 1;
nodes = (
"407 499 OFFCURVE",
"347 429 OFFCURVE",
"261 363 CURVE",
"275 286 LINE",
"400 278 OFFCURVE",
"465 257 OFFCURVE",
"465 167 CURVE SMOOTH",
"465 105 OFFCURVE",
"434 77 OFFCURVE",
"378 77 CURVE SMOOTH",
"345 77 OFFCURVE",
"301 82 OFFCURVE",
"256 101 CURVE",
"239 15 LINE",
"282 -3 OFFCURVE",
"328 -11 OFFCURVE",
"375 -11 CURVE SMOOTH",
"480 -11 OFFCURVE",
"555 52 OFFCURVE",
"555 174 CURVE SMOOTH",
"555 290 OFFCURVE",
"491 343 OFFCURVE",
"351 366 CURVE",
"341 327 LINE",
"425 402 OFFCURVE",
"497 476 OFFCURVE",
"497 604 CURVE SMOOTH",
"497 745 OFFCURVE",
"424 807 OFFCURVE",
"299 807 CURVE SMOOTH",
"135 807 OFFCURVE",
"77 700 OFFCURVE",
"77 536 CURVE SMOOTH",
"77 0 LINE",
"167 0 LINE",
"167 548 LINE SMOOTH",
"167 650 OFFCURVE",
"194 719 OFFCURVE",
"297 719 CURVE SMOOTH",
"370 719 OFFCURVE",
"407 683 OFFCURVE",
"407 600 CURVE SMOOTH"
);
}
);
width = 587;
},
{
background = {
paths = (
{
closed = 1;
nodes = (
"590 490 OFFCURVE",
"534 501 OFFCURVE",
"480 501 CURVE SMOOTH",
"317 501 OFFCURVE",
"265 414 OFFCURVE",
"265 309 CURVE SMOOTH",
"265 259 OFFCURVE",
"281 216 OFFCURVE",
"301 183 CURVE",
"347 180 OFFCURVE",
"390 173 OFFCURVE",
"419 167 CURVE SMOOTH",
"450 160 OFFCURVE",
"458 156 OFFCURVE",
"458 145 CURVE SMOOTH",
"458 132 OFFCURVE",
"445 130 OFFCURVE",
"421 130 CURVE SMOOTH",
"365 130 OFFCURVE",
"320 140 OFFCURVE",
"281 154 CURVE",
"265 19 LINE",
"315 -1 OFFCURVE",
"386 -11 OFFCURVE",
"446 -11 CURVE SMOOTH",
"582 -11 OFFCURVE",
"638 47 OFFCURVE",
"638 146 CURVE SMOOTH",
"638 243 OFFCURVE",
"583 272 OFFCURVE",
"537 286 CURVE SMOOTH",
"510 294 OFFCURVE",
"480 299 OFFCURVE",
"448 303 CURVE",
"446 308 OFFCURVE",
"445 311 OFFCURVE",
"445 316 CURVE SMOOTH",
"445 331 OFFCURVE",
"453 339 OFFCURVE",
"488 339 CURVE SMOOTH",
"533 339 OFFCURVE",
"573 325 OFFCURVE",
"603 312 CURVE",
"627 470 LINE"
);
}
);
};
layerId = "BFFFD157-90D3-4B85-B99D-9A2F366F03CA";
name = Bold;
paths = (
{
closed = 1;
nodes = (
"380 493 OFFCURVE",
"358 453 OFFCURVE",
"281 414 CURVE",
"297 271 LINE",
"431 263 OFFCURVE",
"467 245 OFFCURVE",
"467 217 CURVE SMOOTH",
"467 194 OFFCURVE",
"452 185 OFFCURVE",
"420 185 CURVE SMOOTH",
"375 185 OFFCURVE",
"352 191 OFFCURVE",
"291 208 CURVE",
"275 19 LINE",
"332 1 OFFCURVE",
"386 -11 OFFCURVE",
"444 -11 CURVE SMOOTH",
"573 -11 OFFCURVE",
"667 42 OFFCURVE",
"667 195 CURVE SMOOTH",
"667 340 OFFCURVE",
"576 409 OFFCURVE",
"403 429 CURVE",
"442 331 LINE",
"523 365 OFFCURVE",
"610 436 OFFCURVE",
"610 568 CURVE SMOOTH",
"610 759 OFFCURVE",
"495 814 OFFCURVE",
"341 814 CURVE SMOOTH",
"127 814 OFFCURVE",
"30 695 OFFCURVE",
"30 472 CURVE SMOOTH",
"30 0 LINE",
"250 0 LINE",
"250 507 LINE SMOOTH",
"250 572 OFFCURVE",
"274 598 OFFCURVE",
"323 598 CURVE SMOOTH",
"367 598 OFFCURVE",
"380 578 OFFCURVE",
"380 534 CURVE SMOOTH"
);
}
);
width = 675;
},
{
associatedMasterId = "3E7589AA-8194-470F-8E2F-13C1C581BE24";
background = {
paths = (
{
closed = 1;
nodes = (
"524 482 OFFCURVE",
"476 492 OFFCURVE",
"424 492 CURVE SMOOTH",
"298 492 OFFCURVE",
"236 431 OFFCURVE",
"236 327 CURVE SMOOTH",
"236 281 OFFCURVE",
"248 244 OFFCURVE",
"266 213 CURVE",
"335 207 OFFCURVE",
"401 195 OFFCURVE",
"440 180 CURVE SMOOTH",
"477 166 OFFCURVE",
"489 150 OFFCURVE",
"489 127 CURVE SMOOTH",
"489 90 OFFCURVE",
"458 77 OFFCURVE",
"398 77 CURVE SMOOTH",
"344 77 OFFCURVE",
"295 88 OFFCURVE",
"252 113 CURVE",
"235 25 LINE",
"276 3 OFFCURVE",
"327 -11 OFFCURVE",
"391 -11 CURVE SMOOTH",
"504 -11 OFFCURVE",
"579 32 OFFCURVE",
"579 130 CURVE SMOOTH",
"579 179 OFFCURVE",
"561 235 OFFCURVE",
"458 266 CURVE SMOOTH",
"421 277 OFFCURVE",
"373 285 OFFCURVE",
"329 290 CURVE",
"324 303 OFFCURVE",
"323 317 OFFCURVE",
"323 327 CURVE SMOOTH",
"323 387 OFFCURVE",
"362 405 OFFCURVE",
"418 405 CURVE SMOOTH",
"464 405 OFFCURVE",
"510 393 OFFCURVE",
"548 372 CURVE",
"568 456 LINE"
);
}
);
};
layerId = "9AE1DDE5-D83A-4696-AC1B-0F09BC29E95B";
name = "Regular Dec 31 15, 16:30";
paths = (
{
closed = 1;
nodes = (
"427 536 OFFCURVE",
"423 494 OFFCURVE",
"412 456 CURVE",
"444 494 LINE",
"320 486 OFFCURVE",
"256 431 OFFCURVE",
"256 327 CURVE SMOOTH",
"256 281 OFFCURVE",
"268 244 OFFCURVE",
"286 213 CURVE",
"355 207 OFFCURVE",
"401 197 OFFCURVE",
"440 183 CURVE SMOOTH",
"477 170 OFFCURVE",
"489 150 OFFCURVE",
"489 127 CURVE SMOOTH",
"489 90 OFFCURVE",
"458 77 OFFCURVE",
"418 77 CURVE SMOOTH",
"364 77 OFFCURVE",
"315 88 OFFCURVE",
"272 113 CURVE",
"255 25 LINE",
"296 3 OFFCURVE",
"347 -11 OFFCURVE",
"411 -11 CURVE SMOOTH",
"504 -11 OFFCURVE",
"579 32 OFFCURVE",
"579 130 CURVE SMOOTH",
"579 179 OFFCURVE",
"561 238 OFFCURVE",
"458 269 CURVE SMOOTH",
"421 280 OFFCURVE",
"393 285 OFFCURVE",
"349 290 CURVE",
"344 303 OFFCURVE",
"343 317 OFFCURVE",
"343 327 CURVE SMOOTH",
"343 387 OFFCURVE",
"372 415 OFFCURVE",
"485 415 CURVE",
"505 463 OFFCURVE",
"514 518 OFFCURVE",
"514 576 CURVE SMOOTH",
"514 733 OFFCURVE",
"449 807 OFFCURVE",
"303 807 CURVE SMOOTH",
"135 807 OFFCURVE",
"77 700 OFFCURVE",
"77 536 CURVE SMOOTH",
"77 0 LINE",
"167 0 LINE",
"167 548 LINE SMOOTH",
"167 650 OFFCURVE",
"194 719 OFFCURVE",
"301 719 CURVE SMOOTH",
"395 719 OFFCURVE",
"427 673 OFFCURVE",
"427 570 CURVE SMOOTH"
);
}
);
width = 611;
}
);
leftMetricsKey = m;
rightMetricsKey = "=s*.8";
unicode = 00DF;
},
{
glyphname = t;
lastChange = "2016-01-05 13:33:00 +0000";
layers = (
{
background = {
paths = (
{
closed = 0;
nodes = (
"410 490 LINE",
"398 315 LINE"
);
}
);
};
layerId = "BFFFD157-90D3-4B85-B99D-9A2F366F03CA";
name = Bold;
paths = (
{
closed = 1;
nodes = (
"403 210 LINE",
"386 203 OFFCURVE",
"368 201 OFFCURVE",
"355 201 CURVE SMOOTH",
"321 201 OFFCURVE",
"304 216 OFFCURVE",
"304 263 CURVE SMOOTH",
"303 636 LINE",
"83 610 LINE",
"84 182 LINE SMOOTH",
"84 71 OFFCURVE",
"130 -8 OFFCURVE",
"275 -8 CURVE SMOOTH",
"314 -8 OFFCURVE",
"358 -1 OFFCURVE",
"393 13 CURVE"
);
},
{
closed = 1;
nodes = (
"25 490 LINE",
"15 315 LINE",
"179 295 LINE",
"404 295 LINE",
"404 490 LINE"
);
}
);
width = 429;
},
{
background = {
paths = (
{
closed = 1;
nodes = (
"33 480 LINE",
"24 392 LINE",
"342 392 LINE",
"342 480 LINE"
);
}
);
};
layerId = "3E7589AA-8194-470F-8E2F-13C1C581BE24";
name = Regular;
paths = (
{
closed = 1;
nodes = (
"341 92 LINE",
"314 87 OFFCURVE",
"290 85 OFFCURVE",
"272 85 CURVE SMOOTH",
"225 85 OFFCURVE",
"206 101 OFFCURVE",
"206 145 CURVE SMOOTH",
"206 639 LINE",
"116 625 LINE",
"116 147 LINE SMOOTH",
"116 41 OFFCURVE",
"163 -3 OFFCURVE",
"256 -3 CURVE SMOOTH",
"276 -3 OFFCURVE",
"301 -1 OFFCURVE",
"329 4 CURVE"
);
},
{
closed = 1;
nodes = (
"33 480 LINE",
"25 402 LINE",
"159 392 LINE",
"340 392 LINE",
"340 480 LINE"
);
}
);
width = 381;
},
{
layerId = "C4872ECA-A3A9-40AB-960A-1DB2202F16DE";
name = Light;
paths = (
{
closed = 1;
nodes = (
"298 25 LINE",
"269 14 OFFCURVE",
"242 11 OFFCURVE",
"226 11 CURVE SMOOTH",
"168 11 OFFCURVE",
"143 50 OFFCURVE",
"143 117 CURVE SMOOTH",
"144 636 LINE",
"127 628 LINE",
"126 118 LINE SMOOTH",
"126 38 OFFCURVE",
"160 -5 OFFCURVE",
"224 -5 CURVE SMOOTH",
"244 -5 OFFCURVE",
"273 -1 OFFCURVE",
"298 9 CURVE"
);
},
{
closed = 1;
nodes = (
"29 470 LINE",
"27 455 LINE",
"133 453 LINE",
"295 453 LINE",
"295 470 LINE"
);
}
);
width = 348;
}
);
leftKerningGroup = t;
rightKerningGroup = t;
unicode = 0074;
},
{
glyphname = u;
lastChange = "2015-12-31 14:21:44 +0000";
layers = (
{
anchors = (
{
name = bottom;
position = "{220, 0}";
},
{
name = ogonek;
position = "{530, 0}";
},
{
name = top;
position = "{280, 490}";
},
{
name = topright;
position = "{540, 490}";
}
);
background = {
paths = (
{
closed = 1;
nodes = (
"310 490 LINE",
"310 250 LINE SMOOTH",
"310 218 OFFCURVE",
"296 207 OFFCURVE",
"276 207 CURVE SMOOTH",
"265 207 OFFCURVE",
"256 210 OFFCURVE",
"250 214 CURVE",
"250 490 LINE",
"30 490 LINE",
"30 42 LINE",
"70 12 OFFCURVE",
"130 -11 OFFCURVE",
"203 -11 CURVE SMOOTH",
"301 -11 OFFCURVE",
"351 29 OFFCURVE",
"372 89 CURVE",
"382 89 LINE",
"398 0 LINE",
"530 0 LINE",
"530 490 LINE"
);
}
);
};
layerId = "BFFFD157-90D3-4B85-B99D-9A2F366F03CA";
name = Bold;
paths = (
{
closed = 1;
nodes = (
"289 -12 OFFCURVE",
"328 17 OFFCURVE",
"349 54 CURVE",
"359 54 LINE",
"377 0 LINE",
"530 0 LINE",
"530 490 LINE",
"310 490 LINE",
"310 214 LINE SMOOTH",
"310 186 OFFCURVE",
"299 177 OFFCURVE",
"280 177 CURVE SMOOTH",
"261 177 OFFCURVE",
"250 186 OFFCURVE",
"250 214 CURVE SMOOTH",
"250 490 LINE",
"30 490 LINE",
"30 194 LINE SMOOTH",
"30 43 OFFCURVE",
"102 -12 OFFCURVE",
"211 -12 CURVE SMOOTH"
);
}
);
width = 560;
},
{
anchors = (
{
name = bottom;
position = "{249, 0}";
},
{
name = ogonek;
position = "{451, 0}";
},
{
name = top;
position = "{264, 480}";
},
{
name = topright;
position = "{508, 480}";
}
);
background = {
paths = (
{
closed = 1;
nodes = (
"451 800 LINE",
"361 800 LINE",
"361 211 LINE SMOOTH",
"361 108 OFFCURVE",
"313 74 OFFCURVE",
"250 74 CURVE SMOOTH",
"170 74 OFFCURVE",
"132 126 OFFCURVE",
"132 236 CURVE SMOOTH",
"132 346 OFFCURVE",
"175 401 OFFCURVE",
"263 401 CURVE SMOOTH",
"305 401 OFFCURVE",
"344 388 OFFCURVE",
"370 358 CURVE",
"389 444 LINE",
"363 470 OFFCURVE",
"319 489 OFFCURVE",
"256 489 CURVE SMOOTH",
"114 489 OFFCURVE",
"42 392 OFFCURVE",
"42 228 CURVE SMOOTH",
"42 83 OFFCURVE",
"92 -11 OFFCURVE",
"225 -11 CURVE SMOOTH",
"291 -11 OFFCURVE",
"337 12 OFFCURVE",
"357 57 CURVE",
"365 57 LINE",
"374 0 LINE",
"451 0 LINE"
);
}
);
};
layerId = "3E7589AA-8194-470F-8E2F-13C1C581BE24";
name = Regular;
paths = (
{
closed = 1;
nodes = (
"303 -11 OFFCURVE",
"342 15 OFFCURVE",
"362 57 CURVE",
"370 57 LINE",
"379 0 LINE",
"451 0 LINE",
"451 480 LINE",
"361 480 LINE",
"361 182 LINE SMOOTH",
"361 114 OFFCURVE",
"326 77 OFFCURVE",
"262 77 CURVE SMOOTH",
"199 77 OFFCURVE",
"163 114 OFFCURVE",
"163 182 CURVE SMOOTH",
"163 480 LINE",
"73 480 LINE",
"73 176 LINE SMOOTH",
"73 75 OFFCURVE",
"119 -11 OFFCURVE",
"235 -11 CURVE SMOOTH"
);
}
);
width = 528;
},
{
anchors = (
{
name = bottom;
position = "{239, 0}";
},
{
name = ogonek;
position = "{398, 0}";
},
{
name = top;
position = "{239, 470}";
},
{
name = topright;
position = "{478, 470}";
}
);
background = {
paths = (
{
closed = 1;
nodes = (
"398 800 LINE",
"381 800 LINE",
"381 176 LINE SMOOTH",
"381 65 OFFCURVE",
"328 6 OFFCURVE",
"237 6 CURVE SMOOTH",
"135 6 OFFCURVE",
"78 76 OFFCURVE",
"78 225 CURVE SMOOTH",
"78 376 OFFCURVE",
"136 464 OFFCURVE",
"254 464 CURVE SMOOTH",
"293 464 OFFCURVE",
"344 454 OFFCURVE",
"389 409 CURVE",
"393 426 LINE",
"351 469 OFFCURVE",
"299 480 OFFCURVE",
"254 480 CURVE SMOOTH",
"126 480 OFFCURVE",
"61 388 OFFCURVE",
"61 225 CURVE SMOOTH",
"61 66 OFFCURVE",
"119 -10 OFFCURVE",
"237 -10 CURVE SMOOTH",
"313 -10 OFFCURVE",
"360 23 OFFCURVE",
"377 87 CURVE",
"381 87 LINE",
"383 0 LINE",
"398 0 LINE"
);
}
);
};
layerId = "C4872ECA-A3A9-40AB-960A-1DB2202F16DE";
name = Light;
paths = (
{
closed = 1;
nodes = (
"325 -9 OFFCURVE",
"362 35 OFFCURVE",
"377 82 CURVE",
"381 82 LINE",
"383 0 LINE",
"398 0 LINE",
"398 470 LINE",
"381 470 LINE",
"381 167 LINE SMOOTH",
"381 63 OFFCURVE",
"322 7 OFFCURVE",
"237 7 CURVE SMOOTH",
"168 7 OFFCURVE",
"104 43 OFFCURVE",
"104 167 CURVE SMOOTH",
"104 470 LINE",
"87 470 LINE",
"87 167 LINE SMOOTH",
"87 32 OFFCURVE",
"153 -9 OFFCURVE",
"237 -9 CURVE SMOOTH"
);
}
);
width = 498;
}
);
leftKerningGroup = u;
leftMetricsKey = "=|m";
rightKerningGroup = u;
rightMetricsKey = "=|m";
unicode = 0075;
},
{
glyphname = v;
lastChange = "2016-01-05 13:34:38 +0000";
layers = (
{
background = {
paths = (
{
closed = 1;
nodes = (
"269 0 LINE",
"269 240 LINE SMOOTH",
"269 272 OFFCURVE",
"283 283 OFFCURVE",
"303 283 CURVE SMOOTH",
"314 283 OFFCURVE",
"323 280 OFFCURVE",
"329 276 CURVE",
"329 0 LINE",
"549 0 LINE",
"549 448 LINE",
"509 478 OFFCURVE",
"449 501 OFFCURVE",
"376 501 CURVE SMOOTH",
"275 501 OFFCURVE",
"218 459 OFFCURVE",
"192 386 CURVE",
"216 366 LINE",
"181 490 LINE",
"49 490 LINE",
"49 0 LINE"
);
}
);
};
layerId = "BFFFD157-90D3-4B85-B99D-9A2F366F03CA";
name = Bold;
paths = (
{
closed = 1;
nodes = (
"442 0 LINE",
"569 490 LINE",
"343 490 LINE",
"301 159 LINE",
"291 159 LINE",
"242 490 LINE",
"10 490 LINE",
"131 0 LINE"
);
}
);
width = 579;
},
{
background = {
paths = (
{
closed = 1;
nodes = (
"170 0 LINE",
"170 270 LINE SMOOTH",
"170 362 OFFCURVE",
"212 402 OFFCURVE",
"280 402 CURVE SMOOTH",
"318 402 OFFCURVE",
"348 390 OFFCURVE",
"368 370 CURVE",
"368 0 LINE",
"458 0 LINE",
"458 423 LINE",
"426 454 OFFCURVE",
"377 490 OFFCURVE",
"291 490 CURVE SMOOTH",
"202 490 OFFCURVE",
"153 452 OFFCURVE",
"142 382 CURVE",
"162 356 LINE",
"142 480 LINE",
"80 480 LINE",
"80 0 LINE"
);
}
);
};
layerId = "3E7589AA-8194-470F-8E2F-13C1C581BE24";
name = Regular;
paths = (
{
closed = 1;
nodes = (
"334 0 LINE",
"486 480 LINE",
"391 480 LINE",
"275 86 LINE",
"267 86 LINE",
"146 480 LINE",
"50 480 LINE",
"203 0 LINE"
);
}
);
width = 526;
},
{
background = {
paths = (
{
closed = 1;
nodes = (
"106 0 LINE",
"106 290 LINE SMOOTH",
"106 416 OFFCURVE",
"167 463 OFFCURVE",
"251 463 CURVE SMOOTH",
"311 463 OFFCURVE",
"354 437 OFFCURVE",
"383 408 CURVE",
"383 0 LINE",
"400 0 LINE",
"400 414 LINE",
"366 450 OFFCURVE",
"322 479 OFFCURVE",
"251 479 CURVE SMOOTH",
"157 479 OFFCURVE",
"109 426 OFFCURVE",
"105 364 CURVE",
"108 364 LINE",
"104 470 LINE",
"89 470 LINE",
"89 0 LINE"
);
}
);
};
layerId = "C4872ECA-A3A9-40AB-960A-1DB2202F16DE";
name = Light;
paths = (
{
closed = 1;
nodes = (
"263 0 LINE",
"436 470 LINE",
"418 470 LINE",
"251 17 LINE",
"246 17 LINE",
"80 470 LINE",
"60 470 LINE",
"233 0 LINE"
);
}
);
width = 496;
}
);
leftKerningGroup = v;
rightKerningGroup = v;
unicode = 0076;
},
{
glyphname = w;
lastChange = "2016-01-02 18:08:36 +0000";
layers = (
{
background = {
paths = (
{
closed = 1;
nodes = (
"240 0 LINE",
"240 247 LINE SMOOTH",
"240 271 OFFCURVE",
"254 283 OFFCURVE",
"273 283 CURVE SMOOTH",
"281 283 OFFCURVE",
"291 281 OFFCURVE",
"300 276 CURVE",
"300 0 LINE",
"520 0 LINE",
"520 246 LINE SMOOTH",
"520 272 OFFCURVE",
"534 283 OFFCURVE",
"554 283 CURVE SMOOTH",
"563 283 OFFCURVE",
"574 281 OFFCURVE",
"580 276 CURVE",
"580 0 LINE",
"800 0 LINE",
"800 447 LINE",
"760 477 OFFCURVE",
"698 500 OFFCURVE",
"623 500 CURVE SMOOTH",
"523 500 OFFCURVE",
"462 459 OFFCURVE",
"435 385 CURVE",
"456 401 LINE",
"435 464 OFFCURVE",
"386 502 OFFCURVE",
"306 502 CURVE SMOOTH",
"222 502 OFFCURVE",
"175 454 OFFCURVE",
"163 388 CURVE",
"183 366 LINE",
"148 490 LINE",
"20 490 LINE",
"20 0 LINE"
);
}
);
};
layerId = "BFFFD157-90D3-4B85-B99D-9A2F366F03CA";
name = Bold;
paths = (
{
closed = 1;
nodes = (
"603 169 LINE",
"593 169 LINE",
"532 480 LINE",
"333 480 LINE",
"283 169 LINE",
"273 169 LINE",
"242 490 LINE",
"10 490 LINE",
"113 0 LINE",
"384 0 LINE",
"423 192 LINE",
"430 192 LINE",
"473 0 LINE",
"744 0 LINE",
"849 490 LINE",
"623 490 LINE"
);
}
);
width = 859;
},
{
layerId = "3E7589AA-8194-470F-8E2F-13C1C581BE24";
name = Regular;
paths = (
{
closed = 1;
nodes = (
"604 86 LINE",
"598 86 LINE",
"476 470 LINE",
"371 470 LINE",
"264 86 LINE",
"258 86 LINE",
"146 480 LINE",
"50 480 LINE",
"193 0 LINE",
"324 0 LINE",
"423 330 LINE",
"429 330 LINE",
"533 0 LINE",
"664 0 LINE",
"806 480 LINE",
"711 480 LINE"
);
}
);
width = 856;
},
{
background = {
paths = (
{
closed = 1;
nodes = (
"556 17 LINE",
"551 17 LINE",
"408 460 LINE",
"388 460 LINE",
"238 17 LINE",
"233 17 LINE",
"80 470 LINE",
"60 470 LINE",
"220 0 LINE",
"250 0 LINE",
"397 433 LINE",
"538 0 LINE",
"568 0 LINE",
"734 470 LINE",
"716 470 LINE"
);
}
);
};
layerId = "C4872ECA-A3A9-40AB-960A-1DB2202F16DE";
name = Light;
paths = (
{
closed = 1;
nodes = (
"556 17 LINE",
"551 17 LINE",
"405 460 LINE",
"385 460 LINE",
"238 17 LINE",
"233 17 LINE",
"80 470 LINE",
"60 470 LINE",
"220 0 LINE",
"250 0 LINE",
"392 430 LINE",
"396 430 LINE",
"538 0 LINE",
"568 0 LINE",
"734 470 LINE",
"716 470 LINE"
);
}
);
width = 794;
}
);
leftKerningGroup = w;
leftMetricsKey = v;
rightKerningGroup = w;
rightMetricsKey = v;
unicode = 0077;
},
{
glyphname = x;
lastChange = "2016-01-04 12:20:16 +0000";
layers = (
{
layerId = "BFFFD157-90D3-4B85-B99D-9A2F366F03CA";
name = Bold;
paths = (
{
closed = 1;
nodes = (
"558 490 LINE",
"339 490 LINE",
"303 334 LINE",
"293 334 LINE",
"259 490 LINE",
"11 490 LINE",
"98 243 LINE",
"10 0 LINE",
"229 0 LINE",
"255 124 LINE",
"265 124 LINE",
"294 0 LINE",
"550 0 LINE",
"471 250 LINE"
);
}
);
width = 568;
},
{
background = {
paths = (
{
closed = 1;
nodes = (
"310 0 LINE",
"462 480 LINE",
"367 480 LINE",
"251 86 LINE",
"243 86 LINE",
"122 480 LINE",
"26 480 LINE",
"179 0 LINE"
);
}
);
};
layerId = "3E7589AA-8194-470F-8E2F-13C1C581BE24";
name = Regular;
paths = (
{
closed = 1;
nodes = (
"442 480 LINE",
"347 480 LINE",
"254 293 LINE",
"244 293 LINE",
"151 480 LINE",
"49 480 LINE",
"178 245 LINE",
"35 0 LINE",
"135 0 LINE",
"232 179 LINE",
"242 179 LINE",
"344 0 LINE",
"452 0 LINE",
"306 237 LINE"
);
}
);
width = 487;
},
{
layerId = "C4872ECA-A3A9-40AB-960A-1DB2202F16DE";
name = Light;
paths = (
{
closed = 1;
nodes = (
"366 470 LINE",
"346 470 LINE",
"223 252 LINE",
"218 252 LINE",
"85 470 LINE",
"65 470 LINE",
"203 244 LINE",
"55 0 LINE",
"74 0 LINE",
"213 230 LINE",
"219 230 LINE",
"366 0 LINE",
"386 0 LINE",
"234 238 LINE"
);
}
);
width = 441;
}
);
leftKerningGroup = x;
rightKerningGroup = x;
unicode = 0078;
},
{
glyphname = y;
lastChange = "2016-01-05 13:38:01 +0000";
layers = (
{
background = {
paths = (
{
closed = 1;
nodes = (
"434 0 LINE",
"549 490 LINE",
"323 490 LINE",
"292 159 LINE",
"285 159 LINE",
"242 490 LINE",
"10 490 LINE",
"123 0 LINE"
);
}
);
};
layerId = "BFFFD157-90D3-4B85-B99D-9A2F366F03CA";
name = Bold;
paths = (
{
closed = 1;
nodes = (
"316 344 OFFCURVE",
"305 251 OFFCURVE",
"292 159 CURVE",
"285 159 LINE",
"242 490 LINE",
"10 490 LINE",
"123 0 LINE",
"94 -10 OFFCURVE",
"58 -19 OFFCURVE",
"25 -24 CURVE",
"56 -212 LINE",
"174 -194 OFFCURVE",
"257 -154 OFFCURVE",
"317 -102 CURVE SMOOTH",
"455 14 OFFCURVE",
"509 207 OFFCURVE",
"533 490 CURVE",
"318 490 LINE"
);
}
);
width = 543;
},
{
background = {
paths = (
{
closed = 1;
nodes = (
"356 293 OFFCURVE",
"320 182 OFFCURVE",
"275 86 CURVE",
"268 86 LINE",
"146 480 LINE",
"50 480 LINE",
"206 0 LINE",
"168 -50 OFFCURVE",
"116 -94 OFFCURVE",
"50 -137 CURVE",
"98 -212 LINE",
"178 -159 OFFCURVE",
"252 -94 OFFCURVE",
"310 -6 CURVE SMOOTH",
"392 119 OFFCURVE",
"442 269 OFFCURVE",
"476 480 CURVE",
"386 480 LINE"
);
}
);
};
layerId = "3E7589AA-8194-470F-8E2F-13C1C581BE24";
name = Regular;
paths = (
{
closed = 1;
nodes = (
"356 293 OFFCURVE",
"322 180 OFFCURVE",
"276 86 CURVE",
"268 86 LINE",
"146 480 LINE",
"50 480 LINE",
"206 0 LINE",
"168 -50 OFFCURVE",
"109 -97 OFFCURVE",
"52 -134 CURVE",
"98 -212 LINE",
"178 -159 OFFCURVE",
"252 -94 OFFCURVE",
"310 -6 CURVE SMOOTH",
"392 119 OFFCURVE",
"442 269 OFFCURVE",
"476 480 CURVE",
"386 480 LINE"
);
}
);
width = 516;
},
{
background = {
paths = (
{
closed = 1;
nodes = (
"269 0 LINE",
"452 470 LINE",
"434 470 LINE",
"257 17 LINE",
"252 17 LINE",
"76 470 LINE",
"56 470 LINE",
"239 0 LINE"
);
}
);
};
layerId = "C4872ECA-A3A9-40AB-960A-1DB2202F16DE";
name = Light;
paths = (
{
closed = 1;
nodes = (
"368 282 OFFCURVE",
"326 159 OFFCURVE",
"258 24 CURVE",
"254 24 LINE",
"79 470 LINE",
"60 470 LINE",
"243 0 LINE",
"210 -65 OFFCURVE",
"170 -128 OFFCURVE",
"95 -194 CURVE",
"107 -208 LINE",
"185 -137 OFFCURVE",
"224 -77 OFFCURVE",
"275 20 CURVE SMOOTH",
"344 152 OFFCURVE",
"382 273 OFFCURVE",
"425 470 CURVE",
"407 470 LINE"
);
}
);
width = 485;
},
{
associatedMasterId = "3E7589AA-8194-470F-8E2F-13C1C581BE24";
background = {
paths = (
{
closed = 1;
nodes = (
"300 319 OFFCURVE",
"287 197 OFFCURVE",
"258 93 CURVE",
"253 93 LINE",
"178 485 LINE",
"16 485 LINE",
"146 0 LINE",
"114 -26 OFFCURVE",
"66 -56 OFFCURVE",
"16 -79 CURVE",
"76 -212 LINE",
"165 -171 OFFCURVE",
"233 -124 OFFCURVE",
"291 -57 CURVE SMOOTH",
"404 73 OFFCURVE",
"443 245 OFFCURVE",
"457 485 CURVE",
"306 485 LINE"
);
}
);
};
layerId = "E3545DD6-F0DC-4FCF-9473-AC535318A861";
name = "{155, 100}";
paths = (
{
closed = 1;
nodes = (
"326 319 OFFCURVE",
"303 217 OFFCURVE",
"274 123 CURVE",
"267 123 LINE",
"184 485 LINE",
"20 485 LINE",
"155 -2 LINE",
"123 -28 OFFCURVE",
"81 -50 OFFCURVE",
"28 -70 CURVE",
"76 -212 LINE",
"166 -177 OFFCURVE",
"245 -124 OFFCURVE",
"304 -54 CURVE SMOOTH",
"414 67 OFFCURVE",
"466 238 OFFCURVE",
"495 485 CURVE",
"342 485 LINE"
);
}
);
width = 515;
}
);
leftKerningGroup = v;
leftMetricsKey = v;
rightKerningGroup = y;
rightMetricsKey = v;
unicode = 0079;
},
{
glyphname = z;
lastChange = "2015-11-15 10:04:11 +0000";
layers = (
{
layerId = "BFFFD157-90D3-4B85-B99D-9A2F366F03CA";
name = Bold;
paths = (
{
closed = 1;
nodes = (
"298 186 LINE",
"438 360 LINE",
"438 490 LINE",
"34 490 LINE",
"34 302 LINE",
"156 302 LINE",
"18 134 LINE",
"18 0 LINE",
"446 0 LINE",
"446 186 LINE"
);
}
);
width = 464;
},
{
background = {
paths = (
{
closed = 1;
nodes = (
"264 -11 OFFCURVE",
"303 15 OFFCURVE",
"323 57 CURVE",
"331 57 LINE",
"340 0 LINE",
"412 0 LINE",
"412 480 LINE",
"322 480 LINE",
"322 182 LINE SMOOTH",
"322 114 OFFCURVE",
"287 77 OFFCURVE",
"223 77 CURVE SMOOTH",
"160 77 OFFCURVE",
"124 114 OFFCURVE",
"124 182 CURVE SMOOTH",
"124 480 LINE",
"34 480 LINE",
"34 176 LINE SMOOTH",
"34 75 OFFCURVE",
"80 -11 OFFCURVE",
"196 -11 CURVE SMOOTH"
);
}
);
};
layerId = "3E7589AA-8194-470F-8E2F-13C1C581BE24";
name = Regular;
paths = (
{
closed = 1;
nodes = (
"165 89 LINE",
"395 405 LINE",
"395 480 LINE",
"62 480 LINE",
"62 391 LINE",
"276 391 LINE",
"46 74 LINE",
"46 0 LINE",
"403 0 LINE",
"403 89 LINE"
);
}
);
width = 447;
},
{
background = {
paths = (
{
closed = 1;
nodes = (
"284 -9 OFFCURVE",
"321 35 OFFCURVE",
"336 82 CURVE",
"340 82 LINE",
"342 0 LINE",
"357 0 LINE",
"357 470 LINE",
"340 470 LINE",
"340 167 LINE SMOOTH",
"340 63 OFFCURVE",
"281 7 OFFCURVE",
"196 7 CURVE SMOOTH",
"127 7 OFFCURVE",
"63 43 OFFCURVE",
"63 167 CURVE SMOOTH",
"63 470 LINE",
"46 470 LINE",
"46 167 LINE SMOOTH",
"46 32 OFFCURVE",
"112 -9 OFFCURVE",
"196 -9 CURVE SMOOTH"
);
}
);
};
layerId = "C4872ECA-A3A9-40AB-960A-1DB2202F16DE";
name = Light;
paths = (
{
closed = 1;
nodes = (
"73 17 LINE",
"359 454 LINE",
"359 470 LINE",
"66 470 LINE",
"66 453 LINE",
"337 453 LINE",
"50 14 LINE",
"50 0 LINE",
"367 0 LINE",
"367 17 LINE"
);
}
);
width = 419;
}
);
leftKerningGroup = z;
leftMetricsKey = "=m*.6";
rightKerningGroup = z;
rightMetricsKey = "=m*.6";
unicode = 007A;
},
{
glyphname = zero;
lastChange = "2015-11-15 11:06:11 +0000";
layers = (
{
layerId = "C4872ECA-A3A9-40AB-960A-1DB2202F16DE";
name = Light;
paths = (
{
closed = 1;
nodes = (
"432 -10 OFFCURVE",
"503 105 OFFCURVE",
"503 348 CURVE SMOOTH",
"503 589 OFFCURVE",
"435 710 OFFCURVE",
"291 710 CURVE SMOOTH",
"146 710 OFFCURVE",
"75 588 OFFCURVE",
"75 348 CURVE SMOOTH",
"75 108 OFFCURVE",
"144 -10 OFFCURVE",
"289 -10 CURVE SMOOTH"
);
},
{
closed = 1;
nodes = (
"154 8 OFFCURVE",
"94 120 OFFCURVE",
"94 348 CURVE SMOOTH",
"94 579 OFFCURVE",
"156 692 OFFCURVE",
"291 692 CURVE SMOOTH",
"426 692 OFFCURVE",
"484 579 OFFCURVE",
"484 348 CURVE SMOOTH",
"484 113 OFFCURVE",
"421 8 OFFCURVE",
"289 8 CURVE SMOOTH"
);
}
);
width = 578;
},
{
layerId = "3E7589AA-8194-470F-8E2F-13C1C581BE24";
name = Regular;
paths = (
{
closed = 1;
nodes = (
"459 -12 OFFCURVE",
"536 110 OFFCURVE",
"536 350 CURVE SMOOTH",
"536 580 OFFCURVE",
"468 712 OFFCURVE",
"302 712 CURVE SMOOTH",
"136 712 OFFCURVE",
"60 585 OFFCURVE",
"60 342 CURVE SMOOTH",
"60 111 OFFCURVE",
"130 -12 OFFCURVE",
"293 -12 CURVE SMOOTH"
);
},
{
closed = 1;
nodes = (
"179 79 OFFCURVE",
"153 169 OFFCURVE",
"153 349 CURVE SMOOTH",
"153 532 OFFCURVE",
"184 621 OFFCURVE",
"297 621 CURVE SMOOTH",
"413 621 OFFCURVE",
"443 529 OFFCURVE",
"443 343 CURVE SMOOTH",
"443 164 OFFCURVE",
"414 79 OFFCURVE",
"299 79 CURVE SMOOTH"
);
}
);
width = 596;
},
{
layerId = "BFFFD157-90D3-4B85-B99D-9A2F366F03CA";
name = Bold;
paths = (
{
closed = 1;
nodes = (
"515 -15 OFFCURVE",
"623 114 OFFCURVE",
"623 354 CURVE SMOOTH",
"623 584 OFFCURVE",
"524 715 OFFCURVE",
"333 715 CURVE SMOOTH",
"137 715 OFFCURVE",
"30 585 OFFCURVE",
"30 342 CURVE SMOOTH",
"30 111 OFFCURVE",
"131 -15 OFFCURVE",
"321 -15 CURVE SMOOTH"
);
},
{
closed = 1;
nodes = (
"277 203 OFFCURVE",
"263 253 OFFCURVE",
"263 348 CURVE SMOOTH",
"263 444 OFFCURVE",
"278 488 OFFCURVE",
"326 488 CURVE SMOOTH",
"376 488 OFFCURVE",
"391 444 OFFCURVE",
"391 345 CURVE SMOOTH",
"391 250 OFFCURVE",
"378 203 OFFCURVE",
"329 203 CURVE SMOOTH"
);
}
);
width = 653;
}
);
leftKerningGroup = zero;
rightKerningGroup = zero;
unicode = 0030;
},
{
glyphname = one;
lastChange = "2015-11-15 11:01:01 +0000";
layers = (
{
layerId = "C4872ECA-A3A9-40AB-960A-1DB2202F16DE";
name = Light;
paths = (
{
closed = 1;
nodes = (
"253 710 LINE",
"50 670 LINE",
"54 653 LINE",
"234 685 LINE",
"234 10 LINE",
"253 10 LINE"
);
},
{
closed = 1;
nodes = (
"71 0 LINE",
"389 0 LINE",
"389 18 LINE",
"71 18 LINE"
);
}
);
width = 429;
},
{
layerId = "3E7589AA-8194-470F-8E2F-13C1C581BE24";
name = Regular;
paths = (
{
closed = 1;
nodes = (
"318 712 LINE",
"67 667 LINE",
"80 581 LINE",
"225 600 LINE",
"225 54 LINE",
"318 54 LINE"
);
},
{
closed = 1;
nodes = (
"82 0 LINE",
"434 0 LINE",
"434 91 LINE",
"82 91 LINE"
);
}
);
width = 480;
},
{
layerId = "BFFFD157-90D3-4B85-B99D-9A2F366F03CA";
name = Bold;
paths = (
{
closed = 1;
nodes = (
"381 712 LINE",
"25 659 LINE",
"40 437 LINE",
"156 446 LINE",
"156 128 LINE",
"381 128 LINE"
);
},
{
closed = 1;
nodes = (
"39 0 LINE",
"481 0 LINE",
"481 215 LINE",
"39 215 LINE"
);
}
);
width = 501;
}
);
leftKerningGroup = one;
rightKerningGroup = one;
unicode = 0031;
},
{
glyphname = two;
lastChange = "2015-11-15 11:00:52 +0000";
layers = (
{
background = {
paths = (
{
closed = 1;
nodes = (
"90 20 LINE",
"497 682 LINE",
"497 700 LINE",
"81 700 LINE",
"81 681 LINE",
"474 681 LINE",
"65 17 LINE",
"65 0 LINE",
"502 0 LINE",
"502 20 LINE"
);
}
);
};
layerId = "C4872ECA-A3A9-40AB-960A-1DB2202F16DE";
name = Light;
paths = (
{
closed = 1;
nodes = (
"94 19 LINE",
"312 258 LINE SMOOTH",
"397 352 OFFCURVE",
"441 410 OFFCURVE",
"441 511 CURVE SMOOTH",
"441 642 OFFCURVE",
"387 710 OFFCURVE",
"257 710 CURVE SMOOTH",
"177 710 OFFCURVE",
"125 686 OFFCURVE",
"71 639 CURVE",
"82 624 LINE",
"133 669 OFFCURVE",
"187 692 OFFCURVE",
"257 692 CURVE SMOOTH",
"372 692 OFFCURVE",
"422 630 OFFCURVE",
"422 510 CURVE SMOOTH",
"422 414 OFFCURVE",
"380 359 OFFCURVE",
"300 272 CURVE SMOOTH",
"65 18 LINE",
"65 0 LINE",
"482 0 LINE",
"482 19 LINE"
);
}
);
width = 538;
},
{
background = {
paths = (
{
closed = 1;
nodes = (
"158 92 LINE",
"511 616 LINE",
"511 700 LINE",
"53 700 LINE",
"53 608 LINE",
"395 608 LINE",
"37 78 LINE",
"37 0 LINE",
"514 0 LINE",
"514 92 LINE"
);
}
);
};
layerId = "3E7589AA-8194-470F-8E2F-13C1C581BE24";
name = Regular;
paths = (
{
closed = 1;
nodes = (
"201 92 LINE",
"338 233 LINE SMOOTH",
"440 339 OFFCURVE",
"480 407 OFFCURVE",
"480 504 CURVE SMOOTH",
"480 652 OFFCURVE",
"391 712 OFFCURVE",
"258 712 CURVE SMOOTH",
"174 712 OFFCURVE",
"108 685 OFFCURVE",
"55 642 CURVE",
"94 565 LINE",
"137 597 OFFCURVE",
"189 621 OFFCURVE",
"254 621 CURVE SMOOTH",
"335 621 OFFCURVE",
"387 583 OFFCURVE",
"387 496 CURVE SMOOTH",
"387 417 OFFCURVE",
"343 369 OFFCURVE",
"280 304 CURVE SMOOTH",
"62 78 LINE",
"62 0 LINE",
"494 0 LINE",
"494 92 LINE"
);
}
);
width = 554;
},
{
background = {
paths = (
{
closed = 1;
nodes = (
"384 220 LINE",
"587 520 LINE",
"587 700 LINE",
"84 700 LINE",
"84 480 LINE",
"279 480 LINE",
"68 177 LINE",
"68 0 LINE",
"598 0 LINE",
"598 220 LINE"
);
}
);
};
layerId = "BFFFD157-90D3-4B85-B99D-9A2F366F03CA";
name = Bold;
paths = (
{
closed = 1;
nodes = (
"387 220 LINE",
"445 290 LINE SMOOTH",
"492 347 OFFCURVE",
"528 402 OFFCURVE",
"528 484 CURVE SMOOTH",
"528 647 OFFCURVE",
"422 712 OFFCURVE",
"279 712 CURVE SMOOTH",
"180 712 OFFCURVE",
"94 690 OFFCURVE",
"15 647 CURVE",
"62 442 LINE",
"105 459 OFFCURVE",
"144 466 OFFCURVE",
"174 466 CURVE SMOOTH",
"213 466 OFFCURVE",
"236 449 OFFCURVE",
"236 413 CURVE SMOOTH",
"236 382 OFFCURVE",
"221 352 OFFCURVE",
"192 323 CURVE SMOOTH",
"48 177 LINE",
"48 0 LINE",
"540 0 LINE",
"540 220 LINE"
);
}
);
width = 570;
}
);
leftKerningGroup = two;
rightKerningGroup = two;
unicode = 0032;
},
{
glyphname = three;
lastChange = "2015-11-15 10:59:59 +0000";
layers = (
{
background = {
paths = (
{
closed = 1;
nodes = (
"261 322 LINE",
"411 330 OFFCURVE",
"447 425 OFFCURVE",
"447 520 CURVE SMOOTH",
"447 636 OFFCURVE",
"381 710 OFFCURVE",
"253 710 CURVE SMOOTH",
"176 710 OFFCURVE",
"114 681 OFFCURVE",
"68 638 CURVE",
"78 625 LINE",
"124 665 OFFCURVE",
"185 692 OFFCURVE",
"253 692 CURVE SMOOTH",
"371 692 OFFCURVE",
"428 627 OFFCURVE",
"428 519 CURVE SMOOTH",
"428 437 OFFCURVE",
"403 361 OFFCURVE",
"284 340 CURVE SMOOTH",
"261 336 OFFCURVE",
"211 335 OFFCURVE",
"161 335 CURVE",
"161 317 LINE",
"211 317 OFFCURVE",
"260 316 OFFCURVE",
"284 314 CURVE SMOOTH",
"394 303 OFFCURVE",
"453 245 OFFCURVE",
"453 156 CURVE SMOOTH",
"453 51 OFFCURVE",
"373 8 OFFCURVE",
"261 8 CURVE SMOOTH",
"173 8 OFFCURVE",
"105 34 OFFCURVE",
"56 73 CURVE",
"45 58 LINE",
"95 18 OFFCURVE",
"168 -10 OFFCURVE",
"261 -10 CURVE SMOOTH",
"382 -10 OFFCURVE",
"472 41 OFFCURVE",
"472 156 CURVE SMOOTH",
"472 259 OFFCURVE",
"401 330 OFFCURVE",
"261 331 CURVE"
);
}
);
};
layerId = "C4872ECA-A3A9-40AB-960A-1DB2202F16DE";
name = Light;
paths = (
{
closed = 1;
nodes = (
"260 324 LINE",
"397 331 OFFCURVE",
"447 425 OFFCURVE",
"447 520 CURVE SMOOTH",
"447 636 OFFCURVE",
"381 710 OFFCURVE",
"253 710 CURVE SMOOTH",
"176 710 OFFCURVE",
"114 681 OFFCURVE",
"68 638 CURVE",
"78 625 LINE",
"124 665 OFFCURVE",
"185 692 OFFCURVE",
"253 692 CURVE SMOOTH",
"371 692 OFFCURVE",
"428 627 OFFCURVE",
"428 519 CURVE SMOOTH",
"428 437 OFFCURVE",
"390 362 OFFCURVE",
"284 340 CURVE SMOOTH",
"261 335 OFFCURVE",
"211 335 OFFCURVE",
"161 335 CURVE",
"161 317 LINE",
"211 317 OFFCURVE",
"260 316 OFFCURVE",
"284 314 CURVE SMOOTH",
"394 303 OFFCURVE",
"453 245 OFFCURVE",
"453 156 CURVE SMOOTH",
"453 51 OFFCURVE",
"373 8 OFFCURVE",
"261 8 CURVE SMOOTH",
"173 8 OFFCURVE",
"105 34 OFFCURVE",
"56 73 CURVE",
"45 58 LINE",
"95 18 OFFCURVE",
"168 -10 OFFCURVE",
"261 -10 CURVE SMOOTH",
"382 -10 OFFCURVE",
"472 41 OFFCURVE",
"472 156 CURVE SMOOTH",
"472 259 OFFCURVE",
"401 330 OFFCURVE",
"261 331 CURVE"
);
}
);
width = 537;
},
{
background = {
paths = (
{
closed = 1;
nodes = (
"191 92 LINE",
"328 233 LINE SMOOTH",
"430 339 OFFCURVE",
"470 407 OFFCURVE",
"470 504 CURVE SMOOTH",
"470 652 OFFCURVE",
"381 712 OFFCURVE",
"248 712 CURVE SMOOTH",
"164 712 OFFCURVE",
"98 685 OFFCURVE",
"45 642 CURVE",
"84 565 LINE",
"127 597 OFFCURVE",
"179 621 OFFCURVE",
"244 621 CURVE SMOOTH",
"325 621 OFFCURVE",
"377 583 OFFCURVE",
"377 496 CURVE SMOOTH",
"377 417 OFFCURVE",
"333 369 OFFCURVE",
"270 304 CURVE SMOOTH",
"52 78 LINE",
"52 0 LINE",
"484 0 LINE",
"484 92 LINE"
);
}
);
};
layerId = "3E7589AA-8194-470F-8E2F-13C1C581BE24";
name = Regular;
paths = (
{
closed = 1;
nodes = (
"319 321 LINE",
"401 348 OFFCURVE",
"453 413 OFFCURVE",
"453 513 CURVE SMOOTH",
"453 642 OFFCURVE",
"368 712 OFFCURVE",
"246 712 CURVE SMOOTH",
"170 712 OFFCURVE",
"102 685 OFFCURVE",
"49 642 CURVE",
"88 565 LINE",
"131 597 OFFCURVE",
"180 621 OFFCURVE",
"242 621 CURVE SMOOTH",
"326 621 OFFCURVE",
"361 577 OFFCURVE",
"361 504 CURVE SMOOTH",
"361 432 OFFCURVE",
"325 385 OFFCURVE",
"251 373 CURVE SMOOTH",
"227 369 OFFCURVE",
"199 368 OFFCURVE",
"165 368 CURVE",
"165 280 LINE",
"198 280 OFFCURVE",
"227 279 OFFCURVE",
"250 277 CURVE SMOOTH",
"343 269 OFFCURVE",
"388 238 OFFCURVE",
"388 176 CURVE SMOOTH",
"388 104 OFFCURVE",
"326 79 OFFCURVE",
"248 79 CURVE SMOOTH",
"175 79 OFFCURVE",
"121 102 OFFCURVE",
"78 133 CURVE",
"40 52 LINE",
"93 11 OFFCURVE",
"165 -12 OFFCURVE",
"249 -12 CURVE SMOOTH",
"382 -12 OFFCURVE",
"481 39 OFFCURVE",
"481 171 CURVE SMOOTH",
"481 276 OFFCURVE",
"417 329 OFFCURVE",
"320 343 CURVE"
);
}
);
width = 531;
},
{
background = {
paths = (
{
closed = 1;
nodes = (
"355 319 LINE",
"437 349 OFFCURVE",
"486 418 OFFCURVE",
"486 513 CURVE SMOOTH",
"486 642 OFFCURVE",
"393 712 OFFCURVE",
"256 712 CURVE SMOOTH",
"172 712 OFFCURVE",
"103 696 OFFCURVE",
"50 672 CURVE",
"86 465 LINE",
"116 477 OFFCURVE",
"153 484 OFFCURVE",
"194 484 CURVE SMOOTH",
"229 484 OFFCURVE",
"260 479 OFFCURVE",
"260 455 CURVE SMOOTH",
"260 435 OFFCURVE",
"236 429 OFFCURVE",
"209 426 CURVE SMOOTH",
"183 423 OFFCURVE",
"152 423 OFFCURVE",
"118 423 CURVE",
"118 254 LINE",
"157 254 OFFCURVE",
"185 254 OFFCURVE",
"213 252 CURVE SMOOTH",
"269 249 OFFCURVE",
"289 239 OFFCURVE",
"289 218 CURVE SMOOTH",
"289 194 OFFCURVE",
"261 186 OFFCURVE",
"217 186 CURVE SMOOTH",
"176 186 OFFCURVE",
"135 193 OFFCURVE",
"79 204 CURVE",
"48 16 LINE",
"107 -2 OFFCURVE",
"183 -12 OFFCURVE",
"248 -12 CURVE SMOOTH",
"415 -12 OFFCURVE",
"514 59 OFFCURVE",
"514 205 CURVE SMOOTH",
"514 309 OFFCURVE",
"465 365 OFFCURVE",
"356 381 CURVE"
);
}
);
};
layerId = "BFFFD157-90D3-4B85-B99D-9A2F366F03CA";
name = Bold;
paths = (
{
closed = 1;
nodes = (
"355 319 LINE",
"437 349 OFFCURVE",
"486 418 OFFCURVE",
"486 513 CURVE SMOOTH",
"486 642 OFFCURVE",
"393 712 OFFCURVE",
"256 712 CURVE SMOOTH",
"162 712 OFFCURVE",
"92 698 OFFCURVE",
"20 672 CURVE",
"56 465 LINE",
"106 477 OFFCURVE",
"143 484 OFFCURVE",
"194 484 CURVE SMOOTH",
"229 484 OFFCURVE",
"260 479 OFFCURVE",
"260 455 CURVE SMOOTH",
"260 435 OFFCURVE",
"236 429 OFFCURVE",
"209 426 CURVE SMOOTH",
"183 423 OFFCURVE",
"152 423 OFFCURVE",
"88 423 CURVE",
"88 254 LINE",
"157 254 OFFCURVE",
"185 254 OFFCURVE",
"213 252 CURVE SMOOTH",
"269 249 OFFCURVE",
"289 239 OFFCURVE",
"289 218 CURVE SMOOTH",
"289 194 OFFCURVE",
"261 186 OFFCURVE",
"217 186 CURVE SMOOTH",
"166 186 OFFCURVE",
"119 191 OFFCURVE",
"49 204 CURVE",
"28 16 LINE",
"97 -4 OFFCURVE",
"173 -12 OFFCURVE",
"248 -12 CURVE SMOOTH",
"415 -12 OFFCURVE",
"514 59 OFFCURVE",
"514 205 CURVE SMOOTH",
"514 309 OFFCURVE",
"465 365 OFFCURVE",
"356 381 CURVE"
);
}
);
width = 534;
}
);
leftKerningGroup = three;
rightKerningGroup = three;
unicode = 0033;
},
{
glyphname = four;
lastChange = "2015-11-15 11:05:47 +0000";
layers = (
{
background = {
paths = (
{
closed = 1;
nodes = (
"375 700 LINE",
"329 700 LINE",
"99 0 LINE",
"119 0 LINE",
"342 677 LINE",
"362 677 LINE",
"581 0 LINE",
"602 0 LINE"
);
},
{
closed = 1;
nodes = (
"182 225 LINE",
"177 207 LINE",
"526 207 LINE",
"521 225 LINE"
);
}
);
};
layerId = "C4872ECA-A3A9-40AB-960A-1DB2202F16DE";
name = Light;
paths = (
{
closed = 1;
nodes = (
"382 700 LINE",
"333 700 LINE",
"53 193 LINE",
"55 176 LINE",
"557 176 LINE",
"557 194 LINE",
"373 194 LINE",
"347 194 LINE",
"74 194 LINE",
"342 680 LINE",
"363 680 LINE",
"363 2 LINE",
"382 2 LINE"
);
}
);
width = 593;
},
{
background = {
paths = (
{
closed = 0;
nodes = (
"26 217 LINE",
"26 139 LINE"
);
}
);
};
layerId = "3E7589AA-8194-470F-8E2F-13C1C581BE24";
name = Regular;
paths = (
{
closed = 1;
nodes = (
"461 702 LINE",
"335 702 LINE",
"42 217 LINE",
"49 142 LINE",
"599 142 LINE",
"599 233 LINE",
"428 233 LINE",
"397 233 LINE",
"154 233 LINE",
"360 575 LINE",
"368 575 LINE",
"368 2 LINE",
"461 2 LINE"
);
}
);
width = 636;
},
{
background = {
paths = (
{
closed = 1;
nodes = (
"336 302 LINE",
"539 602 LINE",
"539 782 LINE",
"36 782 LINE",
"36 562 LINE",
"231 562 LINE",
"20 259 LINE",
"20 82 LINE",
"550 82 LINE",
"550 302 LINE"
);
}
);
};
layerId = "BFFFD157-90D3-4B85-B99D-9A2F366F03CA";
name = Bold;
paths = (
{
closed = 1;
nodes = (
"545 702 LINE",
"172 702 LINE",
"20 259 LINE",
"32 82 LINE",
"617 82 LINE",
"617 297 LINE",
"469 297 LINE",
"382 277 LINE",
"238 277 LINE",
"305 505 LINE",
"320 505 LINE",
"320 2 LINE",
"545 2 LINE"
);
}
);
width = 637;
}
);
leftKerningGroup = four;
rightKerningGroup = four;
unicode = 0034;
},
{
glyphname = five;
lastChange = "2015-11-15 11:04:55 +0000";
layers = (
{
background = {
paths = (
{
closed = 0;
nodes = (
"274 340 LINE SMOOTH",
"251 336 OFFCURVE",
"201 335 OFFCURVE",
"151 335 CURVE",
"151 317 LINE",
"201 317 OFFCURVE",
"250 316 OFFCURVE",
"274 314 CURVE SMOOTH",
"384 303 OFFCURVE",
"443 245 OFFCURVE",
"443 156 CURVE SMOOTH",
"443 51 OFFCURVE",
"363 8 OFFCURVE",
"251 8 CURVE SMOOTH",
"163 8 OFFCURVE",
"95 34 OFFCURVE",
"46 73 CURVE",
"35 58 LINE",
"85 18 OFFCURVE",
"158 -10 OFFCURVE",
"251 -10 CURVE SMOOTH",
"372 -10 OFFCURVE",
"462 41 OFFCURVE",
"462 156 CURVE SMOOTH",
"462 259 OFFCURVE",
"391 330 OFFCURVE",
"251 331 CURVE",
"251 322 LINE"
);
}
);
};
layerId = "C4872ECA-A3A9-40AB-960A-1DB2202F16DE";
name = Light;
paths = (
{
closed = 1;
nodes = (
"153 347 OFFCURVE",
"205 354 OFFCURVE",
"260 354 CURVE SMOOTH",
"378 353 OFFCURVE",
"443 290 OFFCURVE",
"443 179 CURVE SMOOTH",
"443 62 OFFCURVE",
"364 8 OFFCURVE",
"251 8 CURVE SMOOTH",
"170 8 OFFCURVE",
"115 31 OFFCURVE",
"66 70 CURVE",
"55 55 LINE",
"107 16 OFFCURVE",
"160 -10 OFFCURVE",
"251 -10 CURVE SMOOTH",
"385 -10 OFFCURVE",
"462 62 OFFCURVE",
"462 179 CURVE SMOOTH",
"462 302 OFFCURVE",
"392 372 OFFCURVE",
"260 372 CURVE SMOOTH",
"199 372 OFFCURVE",
"156 367 OFFCURVE",
"112 355 CURVE",
"121 348 LINE",
"121 681 LINE",
"424 681 LINE",
"424 700 LINE",
"102 700 LINE",
"102 333 LINE"
);
}
);
width = 532;
},
{
layerId = "3E7589AA-8194-470F-8E2F-13C1C581BE24";
name = Regular;
paths = (
{
closed = 1;
nodes = (
"138 293 OFFCURVE",
"184 299 OFFCURVE",
"225 299 CURVE SMOOTH",
"335 299 OFFCURVE",
"388 269 OFFCURVE",
"388 189 CURVE SMOOTH",
"388 108 OFFCURVE",
"332 79 OFFCURVE",
"248 79 CURVE SMOOTH",
"175 79 OFFCURVE",
"121 102 OFFCURVE",
"78 133 CURVE",
"40 52 LINE",
"93 11 OFFCURVE",
"165 -12 OFFCURVE",
"249 -12 CURVE SMOOTH",
"382 -12 OFFCURVE",
"481 52 OFFCURVE",
"481 194 CURVE SMOOTH",
"481 318 OFFCURVE",
"406 390 OFFCURVE",
"255 390 CURVE SMOOTH",
"222 390 OFFCURVE",
"190 386 OFFCURVE",
"154 377 CURVE",
"178 346 LINE",
"178 607 LINE",
"447 607 LINE",
"447 700 LINE",
"86 700 LINE",
"86 283 LINE"
);
}
);
width = 526;
},
{
background = {
paths = (
{
closed = 1;
nodes = (
"364 319 LINE",
"446 349 OFFCURVE",
"495 418 OFFCURVE",
"495 513 CURVE SMOOTH",
"495 642 OFFCURVE",
"402 712 OFFCURVE",
"265 712 CURVE SMOOTH",
"171 712 OFFCURVE",
"101 698 OFFCURVE",
"29 672 CURVE",
"65 465 LINE",
"115 477 OFFCURVE",
"152 484 OFFCURVE",
"203 484 CURVE SMOOTH",
"238 484 OFFCURVE",
"269 479 OFFCURVE",
"269 455 CURVE SMOOTH",
"269 435 OFFCURVE",
"245 429 OFFCURVE",
"218 426 CURVE SMOOTH",
"192 423 OFFCURVE",
"161 423 OFFCURVE",
"97 423 CURVE",
"97 254 LINE",
"166 254 OFFCURVE",
"194 254 OFFCURVE",
"222 252 CURVE SMOOTH",
"278 249 OFFCURVE",
"298 239 OFFCURVE",
"298 218 CURVE SMOOTH",
"298 194 OFFCURVE",
"270 186 OFFCURVE",
"226 186 CURVE SMOOTH",
"175 186 OFFCURVE",
"128 191 OFFCURVE",
"58 204 CURVE",
"37 16 LINE",
"106 -4 OFFCURVE",
"182 -12 OFFCURVE",
"257 -12 CURVE SMOOTH",
"424 -12 OFFCURVE",
"523 59 OFFCURVE",
"523 205 CURVE SMOOTH",
"523 309 OFFCURVE",
"474 365 OFFCURVE",
"365 381 CURVE"
);
}
);
};
layerId = "BFFFD157-90D3-4B85-B99D-9A2F366F03CA";
name = Bold;
paths = (
{
closed = 1;
nodes = (
"124 254 OFFCURVE",
"171 257 OFFCURVE",
"215 257 CURVE SMOOTH",
"294 257 OFFCURVE",
"318 247 OFFCURVE",
"318 224 CURVE SMOOTH",
"318 201 OFFCURVE",
"294 192 OFFCURVE",
"226 192 CURVE SMOOTH",
"175 192 OFFCURVE",
"114 199 OFFCURVE",
"46 210 CURVE",
"25 16 LINE",
"86 -3 OFFCURVE",
"192 -12 OFFCURVE",
"257 -12 CURVE SMOOTH",
"424 -12 OFFCURVE",
"543 45 OFFCURVE",
"543 226 CURVE SMOOTH",
"543 358 OFFCURVE",
"480 437 OFFCURVE",
"314 437 CURVE SMOOTH",
"283 437 OFFCURVE",
"244 433 OFFCURVE",
"205 424 CURVE",
"276 346 LINE",
"276 480 LINE",
"519 480 LINE",
"519 700 LINE",
"61 700 LINE",
"61 250 LINE"
);
}
);
width = 568;
}
);
leftKerningGroup = five;
rightKerningGroup = five;
unicode = 0035;
},
{
glyphname = six;
lastChange = "2015-11-15 11:05:49 +0000";
layers = (
{
layerId = "C4872ECA-A3A9-40AB-960A-1DB2202F16DE";
name = Light;
paths = (
{
closed = 1;
nodes = (
"99 305 LINE",
"107 485 OFFCURVE",
"159 692 OFFCURVE",
"448 692 CURVE",
"445 710 LINE",
"157 710 OFFCURVE",
"80 501 OFFCURVE",
"80 293 CURVE SMOOTH",
"80 95 OFFCURVE",
"142 -6 OFFCURVE",
"289 -6 CURVE SMOOTH",
"433 -6 OFFCURVE",
"488 82 OFFCURVE",
"488 199 CURVE SMOOTH",
"488 330 OFFCURVE",
"425 397 OFFCURVE",
"302 397 CURVE SMOOTH",
"213 397 OFFCURVE",
"142 362 OFFCURVE",
"103 304 CURVE"
);
},
{
closed = 1;
nodes = (
"94 265 LINE",
"150 350 OFFCURVE",
"224 379 OFFCURVE",
"300 379 CURVE SMOOTH",
"415 379 OFFCURVE",
"469 313 OFFCURVE",
"469 199 CURVE SMOOTH",
"469 89 OFFCURVE",
"420 12 OFFCURVE",
"289 12 CURVE SMOOTH",
"163 12 OFFCURVE",
"99 102 OFFCURVE",
"99 294 CURVE"
);
}
);
width = 558;
},
{
layerId = "3E7589AA-8194-470F-8E2F-13C1C581BE24";
name = Regular;
paths = (
{
closed = 1;
nodes = (
"160 376 LINE",
"180 506 OFFCURVE",
"255 621 OFFCURVE",
"491 621 CURVE",
"476 711 LINE",
"133 711 OFFCURVE",
"60 485 OFFCURVE",
"60 296 CURVE SMOOTH",
"60 95 OFFCURVE",
"143 -5 OFFCURVE",
"302 -5 CURVE SMOOTH",
"437 -5 OFFCURVE",
"526 69 OFFCURVE",
"526 211 CURVE SMOOTH",
"526 338 OFFCURVE",
"455 418 OFFCURVE",
"316 418 CURVE SMOOTH",
"265 418 OFFCURVE",
"214 406 OFFCURVE",
"165 373 CURVE"
);
},
{
closed = 1;
nodes = (
"143 255 LINE",
"190 316 OFFCURVE",
"261 327 OFFCURVE",
"305 327 CURVE SMOOTH",
"393 327 OFFCURVE",
"433 280 OFFCURVE",
"433 206 CURVE SMOOTH",
"433 127 OFFCURVE",
"386 86 OFFCURVE",
"307 86 CURVE SMOOTH",
"216 86 OFFCURVE",
"154 143 OFFCURVE",
"154 294 CURVE"
);
}
);
width = 576;
},
{
background = {
paths = (
{
closed = 1;
nodes = (
"255 441 LINE",
"315 502 OFFCURVE",
"417 520 OFFCURVE",
"549 520 CURVE",
"532 711 LINE",
"90 711 OFFCURVE",
"25 490 OFFCURVE",
"25 313 CURVE SMOOTH",
"25 83 OFFCURVE",
"145 -15 OFFCURVE",
"317 -15 CURVE SMOOTH",
"475 -15 OFFCURVE",
"590 66 OFFCURVE",
"590 234 CURVE SMOOTH",
"590 384 OFFCURVE",
"498 452 OFFCURVE",
"363 452 CURVE SMOOTH",
"327 452 OFFCURVE",
"286 447 OFFCURVE",
"259 429 CURVE"
);
},
{
closed = 1;
nodes = (
"238 262 LINE",
"261 287 OFFCURVE",
"287 295 OFFCURVE",
"313 295 CURVE SMOOTH",
"354 295 OFFCURVE",
"372 277 OFFCURVE",
"372 243 CURVE SMOOTH",
"372 208 OFFCURVE",
"353 193 OFFCURVE",
"317 193 CURVE SMOOTH",
"260 193 OFFCURVE",
"252 235 OFFCURVE",
"252 336 CURVE"
);
}
);
};
layerId = "BFFFD157-90D3-4B85-B99D-9A2F366F03CA";
name = Bold;
paths = (
{
closed = 1;
nodes = (
"290 425 LINE",
"331 479 OFFCURVE",
"412 507 OFFCURVE",
"554 507 CURVE",
"537 715 LINE",
"112 715 OFFCURVE",
"30 456 OFFCURVE",
"30 301 CURVE SMOOTH",
"30 75 OFFCURVE",
"160 -15 OFFCURVE",
"322 -15 CURVE SMOOTH",
"480 -15 OFFCURVE",
"595 66 OFFCURVE",
"595 228 CURVE SMOOTH",
"595 353 OFFCURVE",
"523 438 OFFCURVE",
"390 438 CURVE SMOOTH",
"354 438 OFFCURVE",
"323 432 OFFCURVE",
"296 417 CURVE"
);
},
{
closed = 1;
nodes = (
"242 231 LINE",
"265 254 OFFCURVE",
"292 261 OFFCURVE",
"318 261 CURVE SMOOTH",
"359 261 OFFCURVE",
"378 244 OFFCURVE",
"378 214 CURVE SMOOTH",
"378 182 OFFCURVE",
"358 168 OFFCURVE",
"322 168 CURVE SMOOTH",
"264 168 OFFCURVE",
"256 207 OFFCURVE",
"256 298 CURVE"
);
}
);
width = 620;
}
);
leftKerningGroup = six;
rightKerningGroup = six;
unicode = 0036;
},
{
glyphname = seven;
lastChange = "2015-12-27 14:51:59 +0000";
layers = (
{
layerId = "C4872ECA-A3A9-40AB-960A-1DB2202F16DE";
name = Light;
paths = (
{
closed = 1;
nodes = (
"493 686 LINE",
"493 700 LINE",
"77 700 LINE",
"79 471 LINE",
"95 471 LINE",
"98 681 LINE",
"472 681 LINE",
"278 0 LINE",
"298 0 LINE"
);
}
);
width = 558;
},
{
background = {
paths = (
{
closed = 1;
nodes = (
"512 624 LINE",
"533 700 LINE",
"80 700 LINE",
"90 479 LINE",
"171 479 LINE",
"177 609 LINE",
"412 609 LINE",
"241 0 LINE",
"337 0 LINE"
);
}
);
};
layerId = "3E7589AA-8194-470F-8E2F-13C1C581BE24";
name = Regular;
paths = (
{
closed = 1;
nodes = (
"532 624 LINE",
"532 700 LINE",
"60 700 LINE",
"69 439 LINE",
"150 439 LINE",
"157 609 LINE",
"432 609 LINE",
"231 0 LINE",
"327 0 LINE"
);
}
);
width = 582;
},
{
layerId = "BFFFD157-90D3-4B85-B99D-9A2F366F03CA";
name = Bold;
paths = (
{
closed = 1;
nodes = (
"644 490 LINE",
"644 700 LINE",
"35 700 LINE",
"52 340 LINE",
"250 340 LINE",
"257 485 LINE",
"381 485 LINE",
"246 0 LINE",
"499 0 LINE"
);
}
);
width = 669;
}
);
leftKerningGroup = seven;
rightKerningGroup = seven;
unicode = 0037;
},
{
glyphname = eight;
lastChange = "2015-11-15 11:05:53 +0000";
layers = (
{
layerId = "C4872ECA-A3A9-40AB-960A-1DB2202F16DE";
name = Light;
paths = (
{
closed = 1;
nodes = (
"133 322 OFFCURVE",
"70 257 OFFCURVE",
"70 166 CURVE SMOOTH",
"70 60 OFFCURVE",
"147 -10 OFFCURVE",
"276 -10 CURVE SMOOTH",
"383 -10 OFFCURVE",
"477 36 OFFCURVE",
"477 145 CURVE SMOOTH",
"477 206 OFFCURVE",
"453 247 OFFCURVE",
"384 291 CURVE SMOOTH",
"328 327 OFFCURVE",
"235 357 OFFCURVE",
"189 399 CURVE SMOOTH",
"139 441 OFFCURVE",
"114 492 OFFCURVE",
"114 545 CURVE SMOOTH",
"114 633 OFFCURVE",
"181 692 OFFCURVE",
"277 692 CURVE SMOOTH",
"374 692 OFFCURVE",
"442 630 OFFCURVE",
"442 534 CURVE SMOOTH",
"442 422 OFFCURVE",
"374 371 OFFCURVE",
"298 326 CURVE",
"310 314 LINE",
"378 350 OFFCURVE",
"461 413 OFFCURVE",
"461 532 CURVE SMOOTH",
"461 644 OFFCURVE",
"385 710 OFFCURVE",
"277 710 CURVE SMOOTH",
"176 710 OFFCURVE",
"95 649 OFFCURVE",
"95 545 CURVE SMOOTH",
"95 484 OFFCURVE",
"119 433 OFFCURVE",
"176 385 CURVE SMOOTH",
"225 343 OFFCURVE",
"309 317 OFFCURVE",
"375 274 CURVE SMOOTH",
"434 235 OFFCURVE",
"458 200 OFFCURVE",
"458 147 CURVE SMOOTH",
"458 53 OFFCURVE",
"373 8 OFFCURVE",
"278 8 CURVE SMOOTH",
"162 8 OFFCURVE",
"89 76 OFFCURVE",
"89 165 CURVE SMOOTH",
"89 246 OFFCURVE",
"146 308 OFFCURVE",
"237 353 CURVE",
"226 366 LINE"
);
}
);
width = 547;
},
{
layerId = "3E7589AA-8194-470F-8E2F-13C1C581BE24";
name = Regular;
paths = (
{
closed = 1;
nodes = (
"117 326 OFFCURVE",
"56 262 OFFCURVE",
"56 174 CURVE SMOOTH",
"56 61 OFFCURVE",
"146 -11 OFFCURVE",
"289 -11 CURVE SMOOTH",
"420 -11 OFFCURVE",
"515 48 OFFCURVE",
"515 164 CURVE SMOOTH",
"515 237 OFFCURVE",
"482 288 OFFCURVE",
"407 335 CURVE SMOOTH",
"348 372 OFFCURVE",
"270 388 OFFCURVE",
"226 425 CURVE SMOOTH",
"188 457 OFFCURVE",
"177 492 OFFCURVE",
"177 527 CURVE SMOOTH",
"177 590 OFFCURVE",
"225 621 OFFCURVE",
"296 621 CURVE SMOOTH",
"368 621 OFFCURVE",
"419 588 OFFCURVE",
"419 511 CURVE SMOOTH",
"419 442 OFFCURVE",
"375 402 OFFCURVE",
"312 365 CURVE",
"369 316 LINE",
"436 352 OFFCURVE",
"509 406 OFFCURVE",
"509 519 CURVE SMOOTH",
"509 644 OFFCURVE",
"420 712 OFFCURVE",
"298 712 CURVE SMOOTH",
"178 712 OFFCURVE",
"85 643 OFFCURVE",
"85 520 CURVE SMOOTH",
"85 465 OFFCURVE",
"101 413 OFFCURVE",
"162 359 CURVE SMOOTH",
"217 311 OFFCURVE",
"291 302 OFFCURVE",
"357 259 CURVE SMOOTH",
"403 229 OFFCURVE",
"422 208 OFFCURVE",
"422 165 CURVE SMOOTH",
"422 105 OFFCURVE",
"374 80 OFFCURVE",
"292 80 CURVE SMOOTH",
"202 80 OFFCURVE",
"149 112 OFFCURVE",
"149 180 CURVE SMOOTH",
"149 234 OFFCURVE",
"188 270 OFFCURVE",
"257 323 CURVE",
"205 372 LINE"
);
}
);
width = 570;
},
{
layerId = "BFFFD157-90D3-4B85-B99D-9A2F366F03CA";
name = Bold;
paths = (
{
closed = 1;
nodes = (
"66 316 OFFCURVE",
"23 262 OFFCURVE",
"23 179 CURVE SMOOTH",
"23 53 OFFCURVE",
"123 -11 OFFCURVE",
"291 -11 CURVE SMOOTH",
"475 -11 OFFCURVE",
"570 48 OFFCURVE",
"570 186 CURVE SMOOTH",
"570 300 OFFCURVE",
"518 334 OFFCURVE",
"464 366 CURVE SMOOTH",
"400 404 OFFCURVE",
"321 422 OFFCURVE",
"281 454 CURVE SMOOTH",
"263 468 OFFCURVE",
"258 482 OFFCURVE",
"258 496 CURVE SMOOTH",
"258 521 OFFCURVE",
"275 534 OFFCURVE",
"307 534 CURVE SMOOTH",
"340 534 OFFCURVE",
"358 520 OFFCURVE",
"358 489 CURVE SMOOTH",
"358 462 OFFCURVE",
"343 445 OFFCURVE",
"315 430 CURVE",
"415 326 LINE",
"481 362 OFFCURVE",
"552 406 OFFCURVE",
"552 515 CURVE SMOOTH",
"552 644 OFFCURVE",
"454 712 OFFCURVE",
"302 712 CURVE SMOOTH",
"152 712 OFFCURVE",
"39 640 OFFCURVE",
"39 490 CURVE SMOOTH",
"39 421 OFFCURVE",
"70 367 OFFCURVE",
"120 327 CURVE SMOOTH",
"189 271 OFFCURVE",
"243 272 OFFCURVE",
"309 229 CURVE SMOOTH",
"332 214 OFFCURVE",
"342 200 OFFCURVE",
"342 184 CURVE SMOOTH",
"342 163 OFFCURVE",
"323 155 OFFCURVE",
"283 155 CURVE SMOOTH",
"239 155 OFFCURVE",
"218 167 OFFCURVE",
"218 197 CURVE SMOOTH",
"218 221 OFFCURVE",
"235 264 OFFCURVE",
"290 296 CURVE",
"133 352 LINE"
);
}
);
width = 593;
}
);
leftKerningGroup = eight;
rightKerningGroup = eight;
unicode = 0038;
},
{
glyphname = nine;
lastChange = "2015-11-15 11:01:52 +0000";
layers = (
{
layerId = "C4872ECA-A3A9-40AB-960A-1DB2202F16DE";
name = Light;
paths = (
{
closed = 1;
nodes = (
"459 368 LINE",
"453 226 OFFCURVE",
"393 11 OFFCURVE",
"110 11 CURVE",
"113 -7 LINE",
"401 -7 OFFCURVE",
"478 202 OFFCURVE",
"478 410 CURVE SMOOTH",
"478 608 OFFCURVE",
"420 709 OFFCURVE",
"273 709 CURVE SMOOTH",
"129 709 OFFCURVE",
"70 603 OFFCURVE",
"70 486 CURVE SMOOTH",
"70 355 OFFCURVE",
"133 276 OFFCURVE",
"261 276 CURVE SMOOTH",
"345 276 OFFCURVE",
"416 311 OFFCURVE",
"455 369 CURVE"
);
},
{
closed = 1;
nodes = (
"464 408 LINE",
"409 319 OFFCURVE",
"334 294 OFFCURVE",
"263 294 CURVE SMOOTH",
"143 294 OFFCURVE",
"89 372 OFFCURVE",
"89 486 CURVE SMOOTH",
"89 596 OFFCURVE",
"142 691 OFFCURVE",
"273 691 CURVE SMOOTH",
"411 691 OFFCURVE",
"459 599 OFFCURVE",
"459 396 CURVE"
);
}
);
width = 558;
},
{
background = {
paths = (
{
closed = 1;
nodes = (
"386 350 OFFCURVE",
"321 339 OFFCURVE",
"279 339 CURVE SMOOTH",
"192 339 OFFCURVE",
"143 386 OFFCURVE",
"143 475 CURVE SMOOTH",
"143 573 OFFCURVE",
"200 620 OFFCURVE",
"279 620 CURVE SMOOTH",
"370 620 OFFCURVE",
"422 563 OFFCURVE",
"422 412 CURVE SMOOTH",
"422 261 OFFCURVE",
"380 86 OFFCURVE",
"85 86 CURVE",
"100 -5 LINE",
"443 -5 OFFCURVE",
"516 221 OFFCURVE",
"516 410 CURVE SMOOTH",
"516 611 OFFCURVE",
"436 711 OFFCURVE",
"288 711 CURVE SMOOTH",
"145 711 OFFCURVE",
"50 627 OFFCURVE",
"50 468 CURVE SMOOTH",
"50 328 OFFCURVE",
"130 248 OFFCURVE",
"261 248 CURVE SMOOTH",
"333 248 OFFCURVE",
"406 273 OFFCURVE",
"459 344 CURVE",
"433 411 LINE"
);
}
);
};
layerId = "3E7589AA-8194-470F-8E2F-13C1C581BE24";
name = Regular;
paths = (
{
closed = 1;
nodes = (
"413 290 LINE",
"385 181 OFFCURVE",
"309 85 OFFCURVE",
"85 85 CURVE",
"100 -5 LINE",
"443 -5 OFFCURVE",
"516 221 OFFCURVE",
"516 410 CURVE SMOOTH",
"516 611 OFFCURVE",
"433 711 OFFCURVE",
"288 711 CURVE SMOOTH",
"115 711 OFFCURVE",
"50 597 OFFCURVE",
"50 464 CURVE SMOOTH",
"50 332 OFFCURVE",
"131 248 OFFCURVE",
"260 248 CURVE SMOOTH",
"311 248 OFFCURVE",
"359 260 OFFCURVE",
"408 293 CURVE"
);
},
{
closed = 1;
nodes = (
"433 411 LINE",
"386 350 OFFCURVE",
"315 339 OFFCURVE",
"277 339 CURVE SMOOTH",
"193 339 OFFCURVE",
"143 388 OFFCURVE",
"143 472 CURVE SMOOTH",
"143 563 OFFCURVE",
"190 620 OFFCURVE",
"281 620 CURVE SMOOTH",
"368 620 OFFCURVE",
"422 574 OFFCURVE",
"422 372 CURVE"
);
}
);
width = 576;
},
{
layerId = "BFFFD157-90D3-4B85-B99D-9A2F366F03CA";
name = Bold;
paths = (
{
closed = 1;
nodes = (
"360 255 LINE",
"300 194 OFFCURVE",
"198 176 OFFCURVE",
"66 176 CURVE",
"83 -15 LINE",
"525 -15 OFFCURVE",
"590 206 OFFCURVE",
"590 383 CURVE SMOOTH",
"590 613 OFFCURVE",
"470 711 OFFCURVE",
"298 711 CURVE SMOOTH",
"140 711 OFFCURVE",
"25 630 OFFCURVE",
"25 462 CURVE SMOOTH",
"25 312 OFFCURVE",
"117 244 OFFCURVE",
"252 244 CURVE SMOOTH",
"288 244 OFFCURVE",
"329 249 OFFCURVE",
"356 267 CURVE"
);
},
{
closed = 1;
nodes = (
"377 434 LINE",
"354 409 OFFCURVE",
"328 401 OFFCURVE",
"302 401 CURVE SMOOTH",
"261 401 OFFCURVE",
"243 419 OFFCURVE",
"243 453 CURVE SMOOTH",
"243 488 OFFCURVE",
"262 503 OFFCURVE",
"298 503 CURVE SMOOTH",
"355 503 OFFCURVE",
"363 461 OFFCURVE",
"363 360 CURVE"
);
}
);
width = 620;
}
);
leftKerningGroup = nine;
rightKerningGroup = nine;
unicode = 0039;
},
{
glyphname = colon;
lastChange = "2016-01-05 13:20:24 +0000";
layers = (
{
background = {
paths = (
{
closed = 1;
nodes = (
"110 29 LINE",
"110 0 LINE",
"138 0 LINE",
"138 29 LINE"
);
},
{
closed = 1;
nodes = (
"110 470 LINE",
"110 441 LINE",
"138 441 LINE",
"138 470 LINE"
);
}
);
};
layerId = "C4872ECA-A3A9-40AB-960A-1DB2202F16DE";
name = Light;
paths = (
{
closed = 1;
nodes = (
"109 32 LINE",
"109 0 LINE",
"139 0 LINE",
"139 32 LINE"
);
},
{
closed = 1;
nodes = (
"109 470 LINE",
"109 438 LINE",
"139 438 LINE",
"139 470 LINE"
);
}
);
width = 248;
},
{
layerId = "3E7589AA-8194-470F-8E2F-13C1C581BE24";
name = Regular;
paths = (
{
closed = 1;
nodes = (
"99 109 LINE",
"99 0 LINE",
"209 0 LINE",
"209 109 LINE"
);
},
{
closed = 1;
nodes = (
"99 480 LINE",
"99 371 LINE",
"209 371 LINE",
"209 480 LINE"
);
}
);
width = 308;
},
{
layerId = "BFFFD157-90D3-4B85-B99D-9A2F366F03CA";
name = Bold;
paths = (
{
closed = 1;
nodes = (
"45 214 LINE",
"45 0 LINE",
"265 0 LINE",
"265 214 LINE"
);
},
{
closed = 1;
nodes = (
"45 490 LINE",
"45 276 LINE",
"265 276 LINE",
"265 490 LINE"
);
}
);
width = 310;
}
);
leftMetricsKey = "=period+10";
rightMetricsKey = "=period+10";
unicode = 003A;
},
{
glyphname = comma;
lastChange = "2016-01-02 16:17:44 +0000";
layers = (
{
background = {
paths = (
{
closed = 1;
nodes = (
"142 29 LINE",
"142 0 LINE",
"170 0 LINE",
"170 29 LINE"
);
}
);
};
components = (
{
name = quotesinglbase;
transform = "{1, 0, 0, 1, 27, 0}";
}
);
layerId = "C4872ECA-A3A9-40AB-960A-1DB2202F16DE";
name = Light;
width = 318;
},
{
background = {
paths = (
{
closed = 1;
nodes = (
"137 99 LINE",
"137 0 LINE",
"237 0 LINE",
"237 99 LINE"
);
}
);
};
components = (
{
name = quotesinglbase;
transform = "{1, 0, 0, 1, 23, 0}";
}
);
layerId = "3E7589AA-8194-470F-8E2F-13C1C581BE24";
name = Regular;
width = 367;
},
{
background = {
paths = (
{
closed = 1;
nodes = (
"56 224 LINE",
"56 0 LINE",
"276 0 LINE",
"276 224 LINE"
);
}
);
};
components = (
{
name = quotesinglbase;
transform = "{1, 0, 0, 1, 15, 0}";
}
);
layerId = "BFFFD157-90D3-4B85-B99D-9A2F366F03CA";
name = Bold;
width = 355;
}
);
leftKerningGroup = comma;
leftMetricsKey = "=quotesinglbase*1.3";
rightKerningGroup = comma;
rightMetricsKey = "=quotesinglbase*1.2";
unicode = 002C;
},
{
glyphname = exclam;
lastChange = "2016-01-05 13:11:22 +0000";
layers = (
{
components = (
{
name = period;
transform = "{1, 0, 0, 1, 32, 0}";
}
);
layerId = "C4872ECA-A3A9-40AB-960A-1DB2202F16DE";
name = Light;
paths = (
{
closed = 1;
nodes = (
"154 145 LINE",
"161 700 LINE",
"130 700 LINE",
"137 145 LINE"
);
}
);
width = 291;
},
{
components = (
{
name = period;
transform = "{1, 0, 0, 1, 13, 0}";
}
);
layerId = "3E7589AA-8194-470F-8E2F-13C1C581BE24";
name = Regular;
paths = (
{
closed = 1;
nodes = (
"196 185 LINE",
"235 700 LINE",
"90 700 LINE",
"129 185 LINE"
);
}
);
width = 325;
},
{
components = (
{
name = period;
transform = "{1, 0, 0, 1, 17, 0}";
}
);
layerId = "BFFFD157-90D3-4B85-B99D-9A2F366F03CA";
name = Bold;
paths = (
{
closed = 1;
nodes = (
"246 275 LINE",
"295 700 LINE",
"30 700 LINE",
"79 275 LINE"
);
}
);
width = 325;
}
);
unicode = 0021;
},
{
glyphname = period;
lastChange = "2016-01-05 13:10:55 +0000";
layers = (
{
layerId = "C4872ECA-A3A9-40AB-960A-1DB2202F16DE";
name = Light;
paths = (
{
closed = 1;
nodes = (
"99 32 LINE",
"99 0 LINE",
"129 0 LINE",
"129 32 LINE"
);
}
);
width = 228;
},
{
layerId = "3E7589AA-8194-470F-8E2F-13C1C581BE24";
name = Regular;
paths = (
{
closed = 1;
nodes = (
"89 120 LINE",
"89 0 LINE",
"211 0 LINE",
"211 120 LINE"
);
}
);
width = 300;
},
{
layerId = "BFFFD157-90D3-4B85-B99D-9A2F366F03CA";
name = Bold;
paths = (
{
closed = 1;
nodes = (
"35 224 LINE",
"35 0 LINE",
"255 0 LINE",
"255 224 LINE"
);
}
);
width = 290;
}
);
unicode = 002E;
},
{
glyphname = question;
lastChange = "2016-01-05 13:11:24 +0000";
layers = (
{
background = {
paths = (
{
closed = 1;
nodes = (
"277 125 LINE",
"284 700 LINE",
"253 700 LINE",
"260 125 LINE"
);
}
);
};
components = (
{
name = period;
transform = "{1, 0, 0, 1, 153, 0}";
}
);
layerId = "C4872ECA-A3A9-40AB-960A-1DB2202F16DE";
name = Light;
paths = (
{
closed = 1;
nodes = (
"278 256 LINE",
"395 284 OFFCURVE",
"452 365 OFFCURVE",
"452 488 CURVE SMOOTH",
"452 628 OFFCURVE",
"381 708 OFFCURVE",
"251 708 CURVE SMOOTH",
"192 708 OFFCURVE",
"137 694 OFFCURVE",
"86 667 CURVE",
"92 650 LINE",
"137 675 OFFCURVE",
"196 690 OFFCURVE",
"251 690 CURVE SMOOTH",
"367 690 OFFCURVE",
"433 616 OFFCURVE",
"433 488 CURVE SMOOTH",
"433 368 OFFCURVE",
"376 295 OFFCURVE",
"259 271 CURVE",
"260 145 LINE",
"276 145 LINE"
);
}
);
width = 520;
},
{
background = {
paths = (
{
closed = 1;
nodes = (
"246 185 LINE",
"275 700 LINE",
"150 700 LINE",
"179 185 LINE"
);
}
);
};
components = (
{
name = period;
transform = "{1, 0, 0, 1, 63, 0}";
}
);
layerId = "3E7589AA-8194-470F-8E2F-13C1C581BE24";
name = Regular;
paths = (
{
closed = 1;
nodes = (
"251 250 LINE",
"363 289 OFFCURVE",
"429 348 OFFCURVE",
"429 486 CURVE SMOOTH",
"429 647 OFFCURVE",
"337 712 OFFCURVE",
"201 712 CURVE SMOOTH",
"144 712 OFFCURVE",
"93 700 OFFCURVE",
"48 679 CURVE",
"64 591 LINE",
"99 606 OFFCURVE",
"145 619 OFFCURVE",
"197 619 CURVE SMOOTH",
"284 619 OFFCURVE",
"336 584 OFFCURVE",
"336 484 CURVE SMOOTH",
"336 381 OFFCURVE",
"284 341 OFFCURVE",
"170 307 CURVE",
"177 185 LINE",
"247 185 LINE"
);
}
);
width = 480;
},
{
background = {
paths = (
{
closed = 1;
nodes = (
"286 275 LINE",
"335 700 LINE",
"70 700 LINE",
"119 275 LINE"
);
}
);
};
components = (
{
name = period;
transform = "{1, 0, 0, 1, 57, 0}";
}
);
layerId = "BFFFD157-90D3-4B85-B99D-9A2F366F03CA";
name = Bold;
paths = (
{
closed = 1;
nodes = (
"309 280 LINE",
"396 304 OFFCURVE",
"468 361 OFFCURVE",
"468 492 CURVE SMOOTH",
"468 682 OFFCURVE",
"329 715 OFFCURVE",
"196 715 CURVE SMOOTH",
"131 715 OFFCURVE",
"74 706 OFFCURVE",
"31 696 CURVE",
"65 478 LINE",
"83 482 OFFCURVE",
"130 489 OFFCURVE",
"171 489 CURVE SMOOTH",
"204 489 OFFCURVE",
"244 485 OFFCURVE",
"244 458 CURVE SMOOTH",
"244 427 OFFCURVE",
"192 419 OFFCURVE",
"85 416 CURVE",
"102 254 LINE",
"306 255 LINE"
);
}
);
width = 489;
}
);
unicode = 003F;
},
{
glyphname = quotedbl;
lastChange = "2015-12-22 16:44:30 +0000";
layers = (
{
background = {
paths = (
{
closed = 1;
nodes = (
"136 632 OFFCURVE",
"153 668 OFFCURVE",
"153 721 CURVE SMOOTH",
"153 800 LINE",
"60 800 LINE",
"60 781 LINE",
"134 781 LINE",
"134 720 LINE SMOOTH",
"134 672 OFFCURVE",
"119 645 OFFCURVE",
"83 635 CURVE",
"90 616 LINE"
);
}
);
};
components = (
{
name = quotesingle;
},
{
name = quotesingle;
transform = "{1, 0, 0, 1, 103, 0}";
}
);
layerId = "C4872ECA-A3A9-40AB-960A-1DB2202F16DE";
name = Light;
width = 325;
},
{
background = {
paths = (
{
closed = 1;
nodes = (
"163 543 OFFCURVE",
"200 578 OFFCURVE",
"200 666 CURVE SMOOTH",
"200 800 LINE",
"58 800 LINE",
"58 707 LINE",
"113 707 LINE",
"113 671 LINE SMOOTH",
"113 638 OFFCURVE",
"97 621 OFFCURVE",
"62 617 CURVE",
"87 528 LINE"
);
}
);
};
components = (
{
name = quotesingle;
},
{
name = quotesingle;
transform = "{1, 0, 0, 1, 175, 0}";
}
);
layerId = "3E7589AA-8194-470F-8E2F-13C1C581BE24";
name = Regular;
width = 466;
},
{
background = {
paths = (
{
closed = 1;
nodes = (
"174 406 OFFCURVE",
"258 481 OFFCURVE",
"258 622 CURVE SMOOTH",
"258 800 LINE",
"28 800 LINE",
"28 636 LINE",
"90 636 LINE",
"90 615 LINE SMOOTH",
"90 573 OFFCURVE",
"67 560 OFFCURVE",
"27 556 CURVE",
"55 398 LINE"
);
}
);
};
components = (
{
name = quotesingle;
},
{
name = quotesingle;
transform = "{1, 0, 0, 1, 250, 0}";
}
);
guideLines = (
{
position = "{49, 430}";
}
);
layerId = "BFFFD157-90D3-4B85-B99D-9A2F366F03CA";
name = Bold;
width = 596;
}
);
leftKerningGroup = quote;
leftMetricsKey = quotesingle;
rightKerningGroup = quote;
rightMetricsKey = quotesingle;
unicode = 0022;
},
{
glyphname = quotesingle;
lastChange = "2015-12-28 12:41:02 +0000";
layers = (
{
guideLines = (
{
position = "{85, 625}";
}
);
layerId = "C4872ECA-A3A9-40AB-960A-1DB2202F16DE";
name = Light;
paths = (
{
closed = 1;
nodes = (
"104 525 LINE",
"118 525 LINE",
"122 700 LINE",
"100 700 LINE"
);
}
);
width = 222;
},
{
guideLines = (
{
position = "{110, 545}";
}
);
layerId = "3E7589AA-8194-470F-8E2F-13C1C581BE24";
name = Regular;
paths = (
{
closed = 1;
nodes = (
"102 445 LINE",
"189 445 LINE",
"201 700 LINE",
"90 700 LINE"
);
}
);
width = 291;
},
{
layerId = "BFFFD157-90D3-4B85-B99D-9A2F366F03CA";
name = Bold;
paths = (
{
closed = 1;
nodes = (
"82 330 LINE",
"264 330 LINE",
"281 700 LINE",
"65 700 LINE"
);
}
);
width = 346;
}
);
leftKerningGroup = quote;
rightKerningGroup = quote;
unicode = 0027;
},
{
glyphname = semicolon;
lastChange = "2015-12-22 17:03:44 +0000";
layers = (
{
components = (
{
name = quotesinglbase;
transform = "{1, 0, 0, 1, 24, 0}";
}
);
layerId = "C4872ECA-A3A9-40AB-960A-1DB2202F16DE";
name = Light;
paths = (
{
closed = 1;
nodes = (
"169 470 LINE",
"169 441 LINE",
"197 441 LINE",
"197 470 LINE"
);
}
);
width = 297;
},
{
background = {
paths = (
{
closed = 1;
nodes = (
"191 -158 OFFCURVE",
"228 -123 OFFCURVE",
"228 -35 CURVE SMOOTH",
"228 99 LINE",
"101 99 LINE",
"101 0 LINE",
"141 0 LINE",
"141 -40 LINE SMOOTH",
"141 -73 OFFCURVE",
"127 -88 OFFCURVE",
"95 -92 CURVE",
"115 -173 LINE"
);
}
);
};
components = (
{
name = quotesinglbase;
transform = "{1, 0, 0, 1, 21, 0}";
}
);
layerId = "3E7589AA-8194-470F-8E2F-13C1C581BE24";
name = Regular;
paths = (
{
closed = 1;
nodes = (
"161 480 LINE",
"161 381 LINE",
"261 381 LINE",
"261 480 LINE"
);
}
);
width = 341;
},
{
components = (
{
name = quotesinglbase;
transform = "{1, 0, 0, 1, 14, 0}";
}
);
layerId = "BFFFD157-90D3-4B85-B99D-9A2F366F03CA";
name = Bold;
paths = (
{
closed = 1;
nodes = (
"75 490 LINE",
"75 266 LINE",
"295 266 LINE",
"295 490 LINE"
);
}
);
width = 330;
}
);
leftMetricsKey = comma;
rightMetricsKey = period;
unicode = 003B;
},
{
glyphname = slash;
lastChange = "2016-01-04 09:47:36 +0000";
layers = (
{
layerId = "C4872ECA-A3A9-40AB-960A-1DB2202F16DE";
name = Light;
paths = (
{
closed = 1;
nodes = (
"60 -200 LINE",
"79 -200 LINE",
"339 800 LINE",
"320 800 LINE"
);
}
);
width = 399;
},
{
layerId = "3E7589AA-8194-470F-8E2F-13C1C581BE24";
name = Regular;
paths = (
{
closed = 1;
nodes = (
"50 -200 LINE",
"143 -200 LINE",
"403 800 LINE",
"310 800 LINE"
);
}
);
width = 453;
},
{
layerId = "BFFFD157-90D3-4B85-B99D-9A2F366F03CA";
name = Bold;
paths = (
{
closed = 1;
nodes = (
"30 -200 LINE",
"253 -200 LINE",
"513 800 LINE",
"290 800 LINE"
);
}
);
width = 543;
}
);
unicode = 002F;
},
